<?xml version="1.0" encoding="utf-8"?>
<!-- Generator: Adobe Illustrator 24.1.3, SVG Export Plug-In . SVG Version: 6.00 Build 0)  -->
<svg version="1.1" id="Layer_1" xmlns="http://www.w3.org/2000/svg" xmlns:xlink="http://www.w3.org/1999/xlink" x="0px" y="0px"
	 viewBox="0 0 847 568.3" style="enable-background:new 0 0 847 568.3;" xml:space="preserve">
<style type="text/css">
	.st0{fill:#384E8D;}
	.st1{fill:#3A78BD;}
	.st2{fill-rule:evenodd;clip-rule:evenodd;fill:#194283;}
	.st3{fill-rule:evenodd;clip-rule:evenodd;fill:#3B77BB;}
</style>
<g>
	<polygon class="st0" points="115.9,439.8 147.3,439.8 147.3,445.1 121.9,445.1 121.9,460.5 146.8,460.5 146.8,465.9 121.9,465.9 
		121.9,482.4 147.3,482.4 147.3,487.7 115.9,487.7 	"/>
	<path class="st0" d="M188.9,482.5c-2.6,3.5-6.8,6-11.7,6c-9.1,0-15.4-6.9-15.4-18.2c0-11.1,6.3-18.2,15.4-18.2
		c4.7,0,8.9,2.3,11.7,6.1v-18.5h5.4v47.9h-5.4V482.5z M188.9,462.6c-1.9-3-6.1-5.6-10.4-5.6c-7,0-11.1,5.7-11.1,13.4
		s4.2,13.4,11.1,13.4c4.3,0,8.5-2.4,10.4-5.5V462.6z"/>
	<path class="st0" d="M235.7,482.8c-2.7,3-7.2,5.7-12.4,5.7c-7.3,0-11.1-3.5-11.1-11.1V453h5.4v22.8c0,6.1,3.1,7.9,7.8,7.9
		c4.2,0,8.3-2.4,10.3-5.2V453h5.4v34.7h-5.4V482.8z"/>
	<path class="st0" d="M274.4,452.1c6.3,0,10.1,2.6,12.7,6l-3.6,3.3c-2.3-3.2-5.2-4.5-8.8-4.5c-7.4,0-12,5.7-12,13.4
		c0,7.7,4.6,13.4,12,13.4c3.6,0,6.5-1.4,8.8-4.5l3.6,3.3c-2.7,3.4-6.4,6-12.7,6c-10.3,0-17.3-7.9-17.3-18.2
		C257,460,264,452.1,274.4,452.1"/>
	<path class="st0" d="M323.5,483.8c-2.9,3.2-6.8,4.8-11.5,4.8c-5.9,0-12.1-4-12.1-11.5c0-7.8,6.2-11.4,12.1-11.4
		c4.7,0,8.7,1.5,11.5,4.7v-6.2c0-4.7-3.7-7.3-8.8-7.3c-4.2,0-7.5,1.5-10.6,4.8l-2.5-3.7c3.7-3.9,8.2-5.7,13.9-5.7
		c7.3,0,13.4,3.3,13.4,11.7v23.8h-5.4V483.8z M323.5,473.8c-2.1-2.9-5.7-4.3-9.6-4.3c-5,0-8.5,3.2-8.5,7.6c0,4.4,3.5,7.5,8.5,7.5
		c3.8,0,7.5-1.4,9.6-4.3V473.8z"/>
	<path class="st0" d="M347.9,480.4v-22.7h-5.7V453h5.7v-9.5h5.4v9.5h7v4.7h-7v21.6c0,2.6,1.1,4.5,3.5,4.5c1.5,0,2.9-0.6,3.7-1.4
		l1.6,4c-1.4,1.3-3.3,2.2-6.5,2.2C350.5,488.6,347.9,485.6,347.9,480.4"/>
	<path class="st0" d="M390.2,452.1c10.5,0,16.7,8.2,16.7,18.6v1.4h-28.1c0.4,6.5,5,12,12.5,12c4,0,8-1.6,10.7-4.4l2.6,3.5
		c-3.4,3.4-8.1,5.3-13.8,5.3c-10.3,0-17.7-7.4-17.7-18.2C373.1,460.3,380.3,452.1,390.2,452.1 M378.8,468.2h22.8
		c-0.1-5.2-3.5-11.6-11.4-11.6C382.8,456.6,379.1,462.8,378.8,468.2"/>
	<path class="st0" d="M425.2,480.5c2.2,0,4,1.8,4,4c0,2.2-1.8,4-4,4c-2.2,0-4-1.8-4-4C421.2,482.3,423,480.5,425.2,480.5"/>
	<polygon class="st0" points="471.9,439.8 503.3,439.8 503.3,445.1 477.9,445.1 477.9,460.5 502.8,460.5 502.8,465.9 477.9,465.9 
		477.9,482.4 503.3,482.4 503.3,487.7 471.9,487.7 	"/>
	<rect x="519.8" y="439.8" class="st0" width="5.4" height="47.9"/>
	<path class="st0" d="M558.2,452.1c10.5,0,16.7,8.2,16.7,18.6v1.4h-28.1c0.4,6.5,5,12,12.5,12c4,0,8-1.6,10.7-4.4l2.6,3.5
		c-3.4,3.4-8.1,5.3-13.8,5.3c-10.3,0-17.7-7.4-17.7-18.2C541.1,460.3,548.3,452.1,558.2,452.1 M546.8,468.2h22.8
		c-0.1-5.2-3.5-11.6-11.4-11.6C550.7,456.6,547.1,462.8,546.8,468.2"/>
	<polygon class="st0" points="585.6,453 591.4,453 603,481.5 614.5,453 620.4,453 605.9,487.7 600,487.7 	"/>
	<path class="st0" d="M654.8,483.8c-2.9,3.2-6.8,4.8-11.5,4.8c-5.9,0-12.1-4-12.1-11.5c0-7.8,6.2-11.4,12.1-11.4
		c4.7,0,8.7,1.5,11.5,4.7v-6.2c0-4.7-3.7-7.3-8.8-7.3c-4.2,0-7.5,1.5-10.6,4.8l-2.5-3.7c3.7-3.9,8.2-5.7,13.9-5.7
		c7.3,0,13.4,3.3,13.4,11.7v23.8h-5.4V483.8z M654.8,473.8c-2.1-2.9-5.7-4.3-9.6-4.3c-5,0-8.5,3.2-8.5,7.6c0,4.4,3.5,7.5,8.5,7.5
		c3.8,0,7.5-1.4,9.6-4.3V473.8z"/>
	<path class="st0" d="M679.3,480.4v-22.7h-5.7V453h5.7v-9.5h5.4v9.5h7v4.7h-7v21.6c0,2.6,1.1,4.5,3.5,4.5c1.5,0,2.9-0.6,3.7-1.4
		l1.6,4c-1.4,1.3-3.3,2.2-6.5,2.2C681.9,488.6,679.3,485.6,679.3,480.4"/>
	<path class="st0" d="M721.6,452.1c10.5,0,16.7,8.2,16.7,18.6v1.4h-28.1c0.4,6.5,5,12,12.5,12c4,0,8-1.6,10.7-4.4l2.6,3.5
		c-3.4,3.4-8.1,5.3-13.8,5.3c-10.3,0-17.7-7.4-17.7-18.2C704.5,460.3,711.7,452.1,721.6,452.1 M710.2,468.2h22.8
		c-0.1-5.2-3.5-11.6-11.4-11.6C714.1,456.6,710.5,462.8,710.2,468.2"/>
	<path class="st0" d="M756.5,480.5c2.2,0,4,1.8,4,4c0,2.2-1.8,4-4,4c-2.2,0-4-1.8-4-4C752.6,482.3,754.4,480.5,756.5,480.5"/>
	<path class="st0" d="M91.7,356.5c9.5,10.1,24.4,19.1,43.7,19.1c19.9,0,27.8-9.7,27.8-18.8c0-12.4-14.7-16.2-31.5-20.5
		c-22.6-5.6-49.1-12.2-49.1-41.4c0-22.8,20.1-40.4,50.3-40.4c21.5,0,38.9,6.8,51.8,19.3l-13.9,18c-10.8-10.8-25.5-15.7-40-15.7
		c-14.3,0-23.4,6.8-23.4,17.2c0,10.8,14.1,14.3,30.4,18.4c22.8,5.8,49.9,12.8,49.9,42.9c0,23-16.2,42.7-53.4,42.7
		c-25.5,0-43.9-8.9-56.1-22L91.7,356.5z"/>
	<path class="st0" d="M257.2,292.1c19.5,0,31.3,8.3,38.3,17.8l-14.3,13.3c-5.6-7.9-13.3-11.8-23-11.8c-18.2,0-30.2,13.7-30.2,33.1
		c0,19.5,12,33.3,30.2,33.3c9.7,0,17.4-4.1,23-11.8l14.3,13.3c-7,9.5-18.8,17.8-38.3,17.8c-30.4,0-51.8-22.2-51.8-52.6
		C205.4,314.3,226.7,292.1,257.2,292.1"/>
	<path class="st0" d="M384.3,331.7c0-15.5-8.1-20.3-20.3-20.3c-11,0-20.5,6.6-25.7,13.5v69.8h-21.7V256.5h21.7v51.8
		c6.6-7.9,19.7-16.2,35.4-16.2c21.5,0,32.3,11.2,32.3,31.7v70.8h-21.7V331.7z"/>
	<path class="st0" d="M430.1,344.5c0-28.6,19.7-52.4,51.4-52.4c32.1,0,51.6,23.8,51.6,52.4c0,28.8-19.5,52.6-51.6,52.6
		C449.8,397.1,430.1,373.3,430.1,344.5 M510.5,344.5c0-17.6-10.4-33.1-29-33.1c-18.4,0-28.8,15.5-28.8,33.1
		c0,17.8,10.4,33.3,28.8,33.3C500.1,377.9,510.5,362.3,510.5,344.5"/>
	<rect x="557.1" y="256.5" class="st0" width="21.7" height="138.1"/>
	<path class="st1" d="M614.2,313.7h-16.6v-19.1h16.6V289c0-22.4,13.3-34.6,31.7-34.6c6.8,0,13,1.5,17.4,3.9l-4.8,15.9
		c-2.5-1.4-5.6-2.1-8.7-2.1c-8.5,0-13.9,5.6-13.9,16.8v5.6h20.3v19.1H636v81h-21.7V313.7z"/>
	<path class="st1" d="M719.4,292.1c30,0,49.3,23,49.3,54.5v5.2h-77.3c1.7,15.1,13,27.5,31.9,27.5c9.7,0,21.3-3.9,28.4-11l9.9,14.3
		c-9.9,9.5-24.6,14.5-40.6,14.5c-30,0-52.4-20.9-52.4-52.6C668.7,315.5,689.8,292.1,719.4,292.1 M691.3,336.4h56.3
		c-0.4-11.8-8.5-26.5-28.2-26.5C700.8,309.9,692.3,324.2,691.3,336.4"/>
</g>
<g>
	<path class="st2" d="M516.6,74.4L516.6,74.4L516.6,74.4l0.1,0h0h0l0,0l0,0l0,0l0,0h0l0,0l0,0h0l0,0l0,0l0,0l0,0h0l0,0l0,0l0,0l0,0
		l0,0l0,0l0,0l0,0l0,0l0,0l0,0l0,0l0,0l0,0l0.1,0h0l0,0v0l0.1,0l0,0l0,0l0,0l0,0c0,0,0.1,0.1,0.1,0.1l0,0v0l0,0l0,0l0,0.1l0,0l0,0
		l0,0l0,0.1l0,0l0,0l0,0l0,0l0,0l0,0l0,0l0,0l0,0l0,0v0l0,0l0,0l0,0l0,0l0,0l0,0l0,0l0,0l0,0l0,0l0,0v0l0,0l0,0l0,0l0,0l0,0l0,0l0,0
		l0,0v0V77v16.3v0l0,0l0,0l0,0l0,0l0,0l0,0l0,0l0,0l0,0l0,0l0,0l0,0l0,0l0,0l0,0l0,0l0,0l0,0l0,0l0,0l0,0l0,0l0,0l0,0l0,0l0,0l0,0
		l0,0l0,0l0,0l0,0l0,0.1l0,0l0,0l0,0l0,0.1l0,0l0,0v0l0,0c0,0-0.1,0.1-0.1,0.1l0,0l0,0l0,0l0,0l-0.1,0v0l0,0h0l-0.1,0l0,0l0,0l0,0
		l0,0l0,0l0,0l0,0l0,0l0,0l0,0l0,0l0,0l0,0l0,0h0l0,0l0,0l0,0l0,0h0l0,0l0,0h0l0,0l0,0l0,0l0,0h0l0,0l0,0h0h0h-78.9h-61.4h-1.4
		c-1.2,0-2.2,1-2.2,2.2v16.7c0,1.2,1,2.2,2.2,2.2h1.4H517h0h0l0,0h0h0l0,0h0l0,0h0l0,0h0l0,0h0l0,0l0,0l0,0h0l0,0l0,0l0,0h0l0,0l0,0
		l0,0l0,0l0,0h0l0,0l0,0l0,0l0,0l0,0l0,0l0,0l0,0l0,0h0l0,0l0,0l0,0l0,0l0,0l0,0l0,0l0,0l0,0l0,0l0,0l0,0l0,0l0,0l0,0l0,0l0,0l0,0
		l0,0l0,0l0,0l0,0l0,0l0,0l0,0l0,0l0,0l0,0l0,0l0,0l0,0l0,0l0,0l0,0l0,0l0,0l0,0l0,0l0,0l0,0l0,0l0,0l0,0l0,0l0,0l0,0l0,0l0,0l0,0
		l0,0l0,0l0,0l0,0l0,0l0,0l0,0l0,0l0,0l0,0l0,0v0l0,0l0,0l0,0v0l0,0v0l0,0l0,0l0,0v0l0,0v0l0,0v0l0,0v0l0,0v0l0,0l0,0l0,0l0,0l0,0
		l0,0v0v0v17.8c0,0.8-0.7,1.5-1.5,1.5c-53,0-106,0-159,0c-0.9,0-1.7-0.7-1.7-1.7c0-19.3,0-38.6,0-57.9c0-1.2,1-2.1,2.1-2.1h4.2
		C413.7,74.4,465.2,74.4,516.6,74.4z"/>
	<rect x="378.5" y="102.3" class="st2" width="136.9" height="5.4"/>
	<path class="st3" d="M330.4,204.3L330.4,204.3L330.4,204.3l-0.1,0h0h0l0,0l0,0l0,0l0,0h0l0,0l0,0h0l0,0l0,0h0l0,0h0l0,0l0,0l0,0h0
		l0,0l0,0l0,0l0,0l0,0h0l0,0l0,0l0,0l0,0l-0.1,0h0l0,0v0l-0.1,0h0l0,0h0l0,0c0,0-0.1-0.1-0.1-0.1l0,0v0l0,0l0,0l0-0.1l0,0l0,0l0,0
		l0-0.1l0,0l0,0l0,0l0,0l0,0l0,0l0,0l0,0l0,0l0,0v0l0,0l0,0l0,0l0,0l0,0l0,0l0,0l0,0l0,0l0,0l0,0v0l0,0l0,0l0,0l0,0l0,0l0,0l0,0l0,0
		l0,0c0-4.9,0-9.7,0-14.6v0l0,0l0,0l0,0l0,0l0,0l0,0l0,0l0,0l0,0l0,0l0,0l0,0l0,0l0,0l0,0l0,0l0,0l0,0l0,0l0,0l0,0l0,0l0,0l0,0l0,0
		l0,0l0,0l0,0l0,0l0,0h0l0-0.1l0,0l0,0h0l0,0l0,0l0,0l0,0l0,0c0,0,0.1-0.1,0.1-0.1l0,0h0l0,0h0l0.1,0l0,0l0,0l0,0l0.1,0l0,0l0,0l0,0
		l0,0l0,0l0,0l0,0h0l0,0l0,0l0,0l0,0l0,0l0,0l0,0l0,0l0,0l0,0l0,0h0l0,0l0,0l0,0l0,0l0,0l0,0l0,0l0,0l0,0l0,0h0h0h140.3h1.4
		c1.2,0,2.2-0.9,2.2-1.9v-14.2c0-1.1-1-1.9-2.2-1.9h-1.4H329.9h0h0v0h0h0l0,0h0h0l0,0l0,0h0l0,0l0,0l0,0h0l0,0h0l0,0h0l0,0h0l0,0
		l0,0l0,0h0l0,0l0,0l0,0l0,0l0,0l0,0l0,0l0,0l0,0l0,0l0,0h0l0,0l0,0l0,0l0,0l0,0l0,0l0,0l0,0l0,0l0,0l0,0l0,0l0,0l0,0l0,0l0,0l0,0
		l0,0l0,0l0,0l0,0l0,0l0,0l0,0l0,0l0,0l0,0l0,0l0,0l0,0l0,0l0,0l0,0l0,0l0,0l0,0l0,0l0,0l0,0l0,0l0,0l0,0l0,0l0,0l0,0l0,0l0,0l0,0
		l0,0l0,0l0,0l0,0l0,0l0,0l0,0l0,0l0,0l0,0l0,0l0,0l0,0l0,0l0,0l0,0l0,0l0,0l0,0l0,0l0,0l0,0l0,0l0,0l0,0l0,0l0,0l0,0l0,0l0,0v0l0,0
		l0,0l0,0l0,0l0,0l0,0l0,0v0v-15.2c0-0.7,0.7-1.2,1.5-1.2h159c0.9,0,1.7,0.6,1.7,1.4c0,15.6,0,31.2,0,46.8v2.6c0,1-1,1.8-2.1,1.8
		C436.1,204.3,383.2,204.3,330.4,204.3z"/>
	<rect x="330.3" y="176.1" class="st3" width="136.9" height="4.6"/>
</g>
</svg>
