<?xml version="1.0" encoding="utf-8"?>
<!-- Generator: Adobe Illustrator 24.1.3, SVG Export Plug-In . SVG Version: 6.00 Build 0)  -->
<svg version="1.1" id="Layer_1" xmlns="http://www.w3.org/2000/svg" xmlns:xlink="http://www.w3.org/1999/xlink" x="0px" y="0px"
	 viewBox="0 0 6000 5000" style="enable-background:new 0 0 6000 5000;" xml:space="preserve">
<style type="text/css">
	.st0{fill:#0868AF;}
	.st1{fill:#A2DFFF;}
	.st2{fill:#E0F4FC;}
	.st3{fill:#FFFFFF;}
	.st4{fill:#6EBDFF;}
	.st5{fill:#C5EDF9;}
	.st6{fill:#0B559E;}
</style>
<path class="st0" d="M5184.3,4030.2H925.6c-2.8,0-5,2.2-5,5s2.2,5,5,5h4258.7c2.8,0,5-2.2,5-5S5187,4030.2,5184.3,4030.2z"/>
<g>
	<path class="st1" d="M3535.6,1139.5H1907.4c-126.1,0-229.4,103.2-229.4,229.4v76.5h1173.1v-76.5c0-126.1,694.9-229.4,821-229.4
		H3565H3535.6z"/>
	<path class="st0" d="M3672.3,1134.5H1907.4c-62.3,0-121.1,24.4-165.5,68.8s-68.8,103.2-68.8,165.5v76.5c0,2.8,2.2,5,5,5h1173.1
		c2.8,0,5-2.2,5-5v-76.5c0-26.5,37.2-55.7,107.4-84.4c61.1-25,145.9-49.4,251.8-72.7c189.9-41.7,394-67.3,456.8-67.3
		c2.8,0,5-2.2,5-5S3675,1134.5,3672.3,1134.5z M3213.4,1202c-106.5,23.4-191.8,48-253.5,73.2c-35.4,14.5-62.9,29.2-81.6,43.7
		c-21.3,16.5-32,33.3-32,50v71.5H1683.1v-71.5c0-59.7,23.4-115.9,65.9-158.4c42.5-42.5,98.8-65.9,158.4-65.9h1644.8
		C3459.7,1155.6,3333.7,1175.6,3213.4,1202z"/>
</g>
<g>
	<path class="st2" d="M4052.9,3808.9l-0.4-3.6V1368.9c0-125.9-102-228.8-228-228.8H1907.4c22.8,0,44.9,3.3,65.8,9.5
		c95.5,28.5,159.9,116.3,162.2,215.9l-0.9,3.4v2436.4c0,125.9,104.7,229.8,230.6,229.8h1917.1c-22.8,0-44.9-3.8-65.8-10
		C4120.9,3996.5,4055.1,3908.5,4052.9,3808.9z"/>
	<path class="st0" d="M4282.2,4030c-20.9,0-42.5-3.3-64.4-9.8c-45.7-13.6-85.2-41.2-114.2-79.6c-28.9-38.3-44.7-83.9-45.8-131.8
		c0-0.1,0-0.3,0-0.4l-0.4-3.4V1368.9c0-128.9-104.5-233.8-233-233.8H1907.4c-2.8,0-5,2.2-5,5s2.2,5,5,5c21.9,0,43.6,3.1,64.4,9.3
		c45.6,13.6,84.8,41.1,113.5,79.5c28.3,37.9,43.9,83.2,45.1,131l-0.7,2.7c-0.1,0.4-0.2,0.9-0.2,1.3v2436.4
		c0,62.2,24.7,121,69.6,165.6c44.8,44.6,103.8,69.1,166.1,69.1h1917.1c2.8,0,5-2.2,5-5S4285,4030,4282.2,4030z M2365.1,4030
		c-59.6,0-116.1-23.5-159-66.2c-43-42.7-66.6-99.1-66.6-158.6V1369.5l0.8-2.7c0.1-0.5,0.2-1,0.2-1.5c-1.1-50.2-17.4-97.7-47.1-137.5
		c-29.8-39.9-70.5-68.5-117.8-82.8h1849c122.9,0,223,100.4,223,223.8v2436.4c0,0.2,0,0.4,0,0.5l0.4,3.4c1.2,50,17.7,97.5,47.8,137.4
		c30.3,40.2,71.5,68.9,119.3,83.2c0.3,0.1,0.5,0.2,0.8,0.2H2365.1z"/>
</g>
<g>
	<path class="st3" d="M2592.5,3805.3c0,126.1-101.2,230.8-227.4,230.8h1917.1c126.1,0,227.3-104.6,227.3-230.8V3730h-1917V3805.3z"
		/>
	<path class="st0" d="M4509.5,3725h-1917c-2.8,0-5,2.2-5,5v75.2c0,124.5-99.7,225.8-222.4,225.8c-2.8,0-5,2.2-5,5s2.2,5,5,5h1917.1
		c128.1,0,232.3-105.8,232.3-235.8V3730C4514.5,3727.3,4512.2,3725,4509.5,3725z M4504.5,3805.3c0,124.5-99.7,225.8-222.3,225.8
		h-1850c95.5-29.3,165.3-119.4,165.3-225.8V3735h1907V3805.3z"/>
</g>
<g>
	<rect x="2442.1" y="1486" class="st3" width="1305.5" height="1791.7"/>
	<path class="st0" d="M3747.6,1480.3H2442.1c-2.8,0-5,2.6-5,5.7v1791.7c0,3.2,2.2,5.7,5,5.7h1305.5c2.8,0,5-2.6,5-5.7V1486
		C3752.6,1482.8,3750.4,1480.3,3747.6,1480.3z M3742.6,3272H2447.1V1491.7h1295.5V3272z"/>
</g>
<g>
	<g>
		<path class="st0" d="M3747.6,3344.4H2442.1c-2.8,0-5,2.2-5,5c0,2.8,2.2,5,5,5h1305.5c2.8,0,5-2.2,5-5
			C3752.6,3346.7,3750.4,3344.4,3747.6,3344.4z"/>
		<path class="st0" d="M3747.6,3409.1H2442.1c-2.8,0-5,2.2-5,5s2.2,5,5,5h1305.5c2.8,0,5-2.2,5-5S3750.4,3409.1,3747.6,3409.1z"/>
	</g>
	<g>
		<path class="st0" d="M3747.6,3473.7H2442.1c-2.8,0-5,2.2-5,5c0,2.8,2.2,5,5,5h1305.5c2.8,0,5-2.2,5-5
			C3752.6,3475.9,3750.4,3473.7,3747.6,3473.7z"/>
	</g>
	<g>
		<path class="st0" d="M2911.4,3538.3h-469.3c-2.8,0-5,2.2-5,5c0,2.8,2.2,5,5,5h469.3c2.8,0,5-2.2,5-5
			C2916.4,3540.6,2914.2,3538.3,2911.4,3538.3z"/>
	</g>
</g>
<g>
	<g>
		<path class="st1" d="M3650.8,3690l-26.9,19.3c-9.2,7.2-8.5,20.5,2.6,20.5h87.8c6.2,0,12.1-5,13.2-11.2l9.8-53.8h-82.1L3650.8,3690
			z"/>
		<path class="st0" d="M3737.1,3660.8h-82.1c-2,0-3.7,1.4-4,3.4l-4,23.5l-25.6,18.3c0,0-0.1,0.1-0.1,0.1c-6.5,5.1-9.4,13.2-7.2,19.7
			c1.8,5.1,6.3,8.1,12.3,8.1h87.8c8.2,0,15.8-6.4,17.2-14.6l9.8-53.8c0.2-1.2-0.1-2.4-0.9-3.3
			C3739.5,3661.3,3738.4,3660.8,3737.1,3660.8z M3723.4,3718c-0.7,4.2-4.9,7.8-9.2,7.8h-87.8c-3.7,0-4.3-2-4.6-2.6
			c-0.9-2.7,0.3-7.3,4.5-10.6l26.9-19.3c0.9-0.6,1.5-1.6,1.6-2.6l3.7-21.8h73.7L3723.4,3718z"/>
	</g>
	<g>
		<path class="st1" d="M3938.7,3664.9h-79.4l9.3,25.2l-20.1,19.3c-6.6,7.2-1.3,20.5,9.8,20.5h87.8c6.2,0,10.3-5,9.2-11.2
			L3938.7,3664.9z"/>
		<path class="st0" d="M3959.2,3717.5l-16.6-53.8c-0.5-1.7-2.1-2.9-3.9-2.9h-79.4c-1.3,0-2.6,0.7-3.3,1.7c-0.8,1.1-0.9,2.5-0.5,3.7
			l8.4,22.7l-18.2,17.5c-0.1,0.1-0.1,0.1-0.2,0.2c-4.2,4.5-5.1,11.3-2.5,17.3c2.7,6.2,8.6,10.1,15.3,10.1h87.8
			c4.2,0,7.9-1.7,10.4-4.7c2.5-3,3.6-7.1,2.8-11.3C3959.3,3717.8,3959.3,3717.7,3959.2,3717.5z M3950.3,3724.1
			c-1,1.1-2.4,1.8-4.2,1.8h-87.8c-3.5,0-6.4-1.9-7.9-5.2c-1-2.4-1.3-5.8,1-8.4l20-19.2c1.2-1.1,1.6-2.8,1-4.4l-7.3-19.7h70.5
			l15.6,50.7C3951.6,3721.4,3951.2,3722.9,3950.3,3724.1z"/>
	</g>
	<g>
		<path class="st3" d="M3899.6,3200.6c-3.6,18.3,15.5,37.3,23.8,35.8c9.7-1.8,11.5,58,20,56.7c15-2.4,1-92.3,1-92.3
			S3903.2,3182.3,3899.6,3200.6z"/>
		<path class="st0" d="M3948.4,3200.1c-0.2-1.4-1.1-2.5-2.4-3.1c-3.1-1.4-30.4-13.2-43.5-6.5c-3.7,1.9-6.1,5.1-6.9,9.3
			c-2.5,12.8,4.4,25.2,11.7,32.6c5.5,5.5,11.4,8.5,16,8.1c2.5,3.1,5.2,17.6,6.9,26.4c3.4,18.1,5.6,30.3,12.8,30.3
			c0.3,0,0.7,0,1.1-0.1c7.4-1.2,9.2-11.4,9.9-19.1c0.7-8,0.6-18.8-0.4-32.3C3951.9,3223,3948.4,3200.3,3948.4,3200.1z
			 M3943.5,3287.9c-1.9-4.3-4-15.5-5.3-22.6c-1.4-7.6-2.9-15.4-4.6-21.3c-1-3.3-3.6-11.8-9.6-11.8c-0.4,0-0.8,0-1.3,0.1
			c-1.1,0.2-4.8-0.9-9.6-5.7c-5.6-5.6-11.4-15.6-9.5-25.3c0.3-1.7,1.2-2.8,2.6-3.6c6.8-3.5,23.8,1.4,34.4,5.8
			c0.9,6,3.3,23.1,4.6,40.7C3947.6,3275.7,3945,3285.2,3943.5,3287.9z"/>
	</g>
	<g>
		<path class="st3" d="M3891.7,3199.9c-5.2,17.9-8.7,68.9,2.8,72.7c13.7,4.6,9.3-34.2,17.7-35c9.8-0.9,6.4,58.8,14.9,58.2
			c8-0.5,10.1-26.2,10.3-50.3l-1.1-41.6C3936.2,3204,3896.9,3182,3891.7,3199.9z"/>
		<path class="st0" d="M3937.4,3241.4C3937.4,3241.4,3937.3,3241.4,3937.4,3241.4c-2.3,0-4.1,1.8-4.1,4c-0.1,13.1-0.8,23.8-1.9,31.8
			c-1.2,8.3-2.8,12-3.7,13.5c-1.5-4.5-2.6-15.8-3.3-22.9c-0.7-7.7-1.5-15.6-2.7-21.6c-0.8-3.6-2.8-13.3-9.8-12.6
			c-6.7,0.6-8.2,9.2-9.8,19c-0.9,5.5-2.5,14.7-5,16.2c-0.1,0.1-0.4,0.2-1.3-0.1c-1.3-0.4-5-6.4-4.9-27.2c0.1-14.4,2-31.4,4.7-40.5
			c0.5-1.7,1.4-2.7,2.9-3.4c7.6-3.1,25.9,4.4,35.7,9.9c2,1.1,4.4,0.4,5.5-1.6c1.1-2,0.4-4.4-1.6-5.5c-2.9-1.6-29.1-15.9-42.7-10.3
			c-3.8,1.6-6.5,4.6-7.7,8.6c-2.8,9.7-4.9,27.7-5,42.7c-0.1,21.1,3.3,32.6,10.4,35c3.7,1.2,6.4,0.3,8-0.7c5.7-3.4,7.3-12.8,8.8-21.9
			c0.5-3.3,1.4-8.2,2.3-10.9c1.9,4.9,3.1,17.5,3.8,25.5c1.8,18.8,3,31.3,10.6,31.3c0.2,0,0.3,0,0.5,0c7.8-0.5,10.5-11.5,11.8-19.7
			c1.4-8.5,2.2-20.2,2.3-34.6C3941.4,3243.3,3939.6,3241.5,3937.4,3241.4z"/>
	</g>
	<g>
		<g>
			<path class="st3" d="M3430.8,2558.1c1.7-11.8-0.9-19.9-8.7-17.9c-10,2.6-15.7,45.4-15.7,45.4l-16.6,75.9c0,0,35.3-5.7,44.9-14.4
				c9.6-8.7,9.6-31,7.9-40.1C3439.5,2590.9,3427.4,2580.6,3430.8,2558.1z"/>
			<path class="st0" d="M3440.6,2589.4c-4-9-7.8-17.5-5.8-30.7c1-6.8,1.1-15.9-3.9-20.4c-1.8-1.6-5-3.3-9.8-2
				c-6,1.6-10.5,9.8-14.6,26.7c-2.7,11.1-4.1,21.7-4.2,22.1c-0.3,2.2,1.3,4.3,3.5,4.6c2.2,0.3,4.3-1.3,4.6-3.5
				c0-0.1,1.4-10.6,4-21.2c4.6-19.1,8.7-20.7,8.7-20.7c1.6-0.4,2.2,0,2.3,0.2c1.4,1.3,2.4,5.9,1.3,13.2c-2.3,15.6,2.4,26,6.5,35.2
				c2.2,5,4.3,9.7,5.3,15c0.8,4.2,1.2,11.7,0.3,19c-1,8.1-3.5,14.3-6.9,17.4c-2,1.8-7.7,5.4-24.3,9.5c-9.8,2.4-18.5,3.9-18.6,3.9
				c-2.2,0.4-3.7,2.4-3.4,4.7c0.3,2,2.1,3.4,4,3.4c0.2,0,0.4,0,0.7-0.1c3.7-0.6,36.8-6.1,47-15.4c11.2-10.2,11-34,9.1-43.9
				C3445.4,2600,3443,2594.6,3440.6,2589.4z"/>
		</g>
		<g>
			<path class="st3" d="M3380.2,2507.5c-8.3,2.6-8.2,14.6-5.2,26.6c5.2,21.4,11.3,44.9,11.3,44.9l-27.6,16.3
				c-9.5,5.6-12,18.2-5.4,27l28.3,37.9l37.1-64.1l-20.5-68.9C3398,2527.1,3393.6,2503.3,3380.2,2507.5z"/>
			<path class="st0" d="M3402,2526.2c-0.5-2.4-3.5-16.3-12-21.4c-3.4-2-7.2-2.4-11.1-1.2c-5.4,1.7-13.7,8.1-8,31.5
				c4.1,16.7,8.8,35,10.6,42l-25,14.7c-5.5,3.3-9.4,8.7-10.7,15c-1.3,6.3,0.2,12.8,4,18l28.3,37.9c0.8,1.1,2,1.6,3.3,1.6
				c0.8,0,1.7-0.3,2.4-0.8c1.8-1.3,2.2-3.9,0.8-5.7l-28.3-37.9c-2.4-3.3-3.4-7.5-2.6-11.5c0.8-4,3.3-7.5,6.8-9.6l27.6-16.3
				c1.6-0.9,2.3-2.8,1.9-4.5c-0.1-0.2-6.2-23.8-11.3-44.9c-1.1-4.6-4.2-19.6,2.5-21.8c1.7-0.5,3-0.4,4.4,0.4
				c4.8,2.9,7.6,12.8,8.2,16.1c0,0.1,0.1,0.3,0.1,0.4l20.5,68.9c0.6,2.2,2.9,3.4,5.1,2.7c2.2-0.6,3.4-2.9,2.7-5.1L3402,2526.2z"/>
		</g>
	</g>
	<g>
		<path class="st1" d="M3915.6,2878.3c-6.7-32.6-61.3-40.2-88.3-38.2c-27.5,2.1,3.8,48.4,6.3,75.7l26.8,287.6
			c1.1,11.7,11.4,20.2,23.1,19.1l55.6-5.2c11.7-1.1,20.2-11.4,19.1-23.1L3915.6,2878.3z"/>
		<path class="st0" d="M3962.3,3193.8l-42.6-316c0-0.1,0-0.2,0-0.3c-7.4-36-65.6-43.5-92.6-41.4c-5.8,0.4-10,2.6-12.5,6.5
			c-6,9.2,0,25.6,6.3,42.9c3.9,10.8,8,22.1,8.8,30.8l26.8,287.6c1.2,13.1,12.3,22.9,25.2,22.9c0.8,0,1.6,0,2.4-0.1l55.6-5.2
			c6.7-0.6,12.8-3.8,17.1-9c4.3-5.2,6.3-11.8,5.7-18.5C3962.3,3193.9,3962.3,3193.8,3962.3,3193.8z M3950.3,3207.2
			c-2.9,3.5-7,5.7-11.6,6.1l-55.6,5.2c-9.4,0.9-17.8-6.1-18.7-15.5l-26.8-287.6c-0.9-9.8-5.2-21.5-9.3-32.8
			c-5.1-14-10.8-29.8-7.1-35.7c0.4-0.6,1.6-2.4,6.3-2.8c2.4-0.2,5.1-0.3,8-0.3c26.1,0,70.3,7.8,76,35.1l42.6,315.7
			C3954.6,3199.3,3953.2,3203.7,3950.3,3207.2z"/>
	</g>
	<g>
		<g>
			<path class="st3" d="M3772.3,2754.5l-14.2,108.3l74.1,2.8c0-8.5,0-111.1,0-111.1l-21.5-54.3L3772.3,2754.5z"/>
			<path class="st0" d="M3814.3,2698.7c-0.6-1.4-1.8-2.4-3.3-2.5c-1.5-0.2-2.9,0.5-3.8,1.7l-38.3,54.3c-0.4,0.5-0.6,1.2-0.7,1.8
				l-14.2,108.3c-0.1,1.1,0.2,2.3,0.9,3.2c0.7,0.9,1.8,1.4,3,1.4l74.1,2.8c0.1,0,0.1,0,0.2,0c1.1,0,2.1-0.4,2.8-1.1
				c0.8-0.8,1.2-1.8,1.2-2.9v-111.1c0-0.5-0.1-1-0.3-1.5L3814.3,2698.7z M3828,2861.4l-65.4-2.5l13.5-102.8l33.4-47.3l18.5,46.6
				V2861.4z"/>
		</g>
		<g>
			<path class="st3" d="M3720.1,2689.1l-3,30.4l-10.7,15.9c-1.6,2.4,0.1,5.6,3,5.6h5.6l-2.4,24.4c-1.9,18.6,14.5,33.9,32.9,30.8
				l33.3-5.5l45-133.4l-61.8-3.7C3740.7,2652.3,3722.2,2668,3720.1,2689.1z"/>
			<path class="st0" d="M3823.9,2653.2l-61.8-3.7c-23.5-1.4-43.7,15.8-46.1,39.2l-2.9,29.4l-10.1,15c-1.6,2.4-1.8,5.4-0.4,7.9
				c1.3,2.5,3.9,4.1,6.8,4.1h1.1l-2,20c-1,10.1,2.7,20,10.1,26.9c6.1,5.7,13.9,8.8,22.1,8.8c1.8,0,3.6-0.1,5.4-0.5l33.3-5.5
				c2.2-0.4,3.7-2.5,3.3-4.7c-0.4-2.2-2.5-3.7-4.7-3.3l-33.3,5.5c-7.5,1.3-15-1-20.6-6.2c-5.6-5.2-8.3-12.6-7.6-20.2l2.4-24.4
				c0.1-1.1-0.3-2.3-1-3.1c-0.8-0.9-1.9-1.3-3-1.3h-4.7l10.2-15.1c0.4-0.6,0.6-1.2,0.7-1.9l3-30.4c1.9-19,18.4-33.1,37.5-31.9
				l61.8,3.7c2.2,0.1,4.2-1.6,4.3-3.8C3827.9,2655.3,3826.2,2653.4,3823.9,2653.2z"/>
		</g>
		<g>
			<path class="st4" d="M3794.6,2627.6c-47,5.1-61.4,35.4-61.4,35.4s25.5,6.9,32.1,65.2c0.9,8.4,0.3,30.5,13.1,42.2
				c13.7,12.6,53.2,10.7,53.6,10.9c0,0,50-22.1,50.5-81C3883,2639.4,3831,2623.7,3794.6,2627.6z"/>
			<path class="st0" d="M3864.1,2643.5c-16.9-15.3-43.1-22.8-69.9-19.9c-48.7,5.3-64,36.3-64.6,37.7c-0.5,1.1-0.6,2.4-0.1,3.4
				c0.5,1.1,1.4,1.9,2.6,2.2c0.2,0.1,23.1,7.5,29.2,61.7c0.1,1.2,0.2,2.7,0.4,4.4c0.7,11,2,29.3,14,40.3c8.7,7.9,26.9,12,54.1,12
				c0.1,0,0.2,0,0.3,0c0.7,0,1.2,0,1.5,0c0.2,0,0.3,0,0.5,0c0.6,0,1.1-0.1,1.6-0.3c0.5-0.2,13.4-6,26.3-19.3
				c12-12.3,26.3-33.6,26.6-65.4C3886.8,2676.3,3879.2,2657.1,3864.1,2643.5z M3830,2784.9C3830,2784.9,3830,2784.9,3830,2784.9
				C3830,2784.9,3830,2784.9,3830,2784.9z M3830,2784.9C3830,2784.9,3830,2784.9,3830,2784.9C3830,2784.9,3830,2784.9,3830,2784.9z
				 M3830,2784.9C3830,2784.9,3830,2784.9,3830,2784.9C3830,2784.9,3830,2784.9,3830,2784.9z M3882.5,2700.3L3882.5,2700.3
				L3882.5,2700.3z M3854.4,2759.9c-10.1,10.5-20.4,15.9-23.2,17.4c-0.2,0-0.4,0-0.7,0c-0.2,0-0.5,0-0.8,0
				c-31.3,0-43.7-5.3-48.6-9.8c-9.7-8.8-10.8-25.1-11.4-34.9c-0.1-1.9-0.2-3.5-0.4-4.8c-5.1-45.7-22-61.4-30.3-66.4
				c1.9-2.8,5.2-7,10.3-11.3c8.2-7,22.8-15.8,45.7-18.3c19-2.1,45.6,1.5,63.6,17.8c13.3,12.1,20,29.2,19.8,50.8
				C3878.3,2723.5,3870.2,2743.6,3854.4,2759.9z"/>
		</g>
		<g>
			<path class="st3" d="M3760.3,2709.4c-4.2,0-8.7,1.9-12.4,4.8l5.8,33c9.5,0,17.6-5.5,20.2-18.6
				C3775.7,2719.3,3769.8,2709.4,3760.3,2709.4z"/>
			<path class="st0" d="M3760.3,2705.4c-4.9,0-10.3,2.1-14.9,5.6c-1.8,1.4-2.1,3.9-0.7,5.7c1.4,1.8,3.9,2.1,5.7,0.7
				c3.2-2.5,6.8-3.9,9.9-3.9c3.4,0,5.7,1.9,7,3.4c2.4,2.9,3.4,7,2.6,10.9c-1.9,10-7.5,15.3-16.1,15.3c-2.3,0-4.1,1.8-4.1,4.1
				c0,2.3,1.8,4.1,4.1,4.1c12.5,0,21.5-8.2,24.2-21.9c1.2-6.3-0.4-12.9-4.3-17.6C3770.2,2707.6,3765.5,2705.4,3760.3,2705.4z"/>
		</g>
	</g>
	<g>
		<g>
			<polygon class="st4" points="3892.1,3160 3748.9,3160 3787.2,3248.3 3799.4,3254.4 3812.6,3405.6 3848.3,3688.4 3946.7,3688.4 
				3899.9,3403.7 			"/>
			<path class="st0" d="M3904,3403.3l-7.9-243.4c-0.1-2.2-1.9-3.9-4.1-3.9h-143.1c-2.3,0-4.1,1.8-4.1,4.1s1.8,4.1,4.1,4.1h139.2
				l7.7,239.7c0,0.2,0,0.4,0.1,0.5l46,280h-90l-35.3-279.2l-13.2-151.1c-0.1-1.4-1-2.7-2.2-3.3l-12.1-6.1c-2-1-4.5-0.2-5.5,1.8
				c-1,2-0.2,4.5,1.8,5.5l10.1,5l13,148.9c0,0.1,0,0.1,0,0.2l35.8,282.8c0.3,2,2,3.6,4,3.6h98.3c1.2,0,2.3-0.5,3.1-1.4
				c0.8-0.9,1.1-2.1,0.9-3.3L3904,3403.3z"/>
		</g>
		<g>
			<path class="st4" d="M3682.5,3168l-28.9,244.2l-10.6,276.1h94.1l13.4-276.3l22.1-143c0,0,32.7-4.9,49.8-29.2l-49.8-79.9
				L3682.5,3168z"/>
			<path class="st0" d="M3824.7,3236.6c-1.8-1.3-4.4-0.9-5.7,1c-15.9,22.6-46.7,27.5-47,27.5c-1.8,0.3-3.2,1.6-3.4,3.4l-22.1,143
				c0,0.1,0,0.3,0,0.4l-13.2,272.4h-86l10.5-271.7l28.5-240.8l86.8-7.7c2.2-0.2,3.9-2.2,3.7-4.4c-0.2-2.2-2.2-3.9-4.4-3.7l-90.1,8
				c-1.9,0.2-3.5,1.7-3.7,3.6l-28.9,244.2c0,0.1,0,0.2,0,0.3l-10.6,276.1c0,1.1,0.4,2.2,1.1,3c0.8,0.8,1.8,1.2,2.9,1.2h94.1
				c2.2,0,4-1.7,4.1-3.9l13.4-276.1l21.6-140c8.8-1.9,34.5-9,49.5-30.3C3827,3240.4,3826.6,3237.9,3824.7,3236.6z"/>
		</g>
	</g>
	<g>
		<path class="st1" d="M3839.9,2840.2h-137.1c-19.6,0-51.4,16.7-49.9,36.2l4.4,61.2c1.2,16.6,7.2,32.5,17.4,45.7v0
			c13.6,17.7,19.6,40,17,62.2l-19.9,163.9h217.8c15.2,0,28-11.2,30.1-26.2l-31.3-288.2L3839.9,2840.2z"/>
		<path class="st0" d="M3892.4,2894.5c-0.2-2.2-2.3-3.9-4.5-3.6c-2.2,0.2-3.9,2.3-3.6,4.5l31.2,287.7c-2,12.7-13.1,22.2-26,22.2
			h-213.2l19.4-159.3c2.8-23.3-3.5-46.5-17.8-65.2c-9.7-12.6-15.4-27.7-16.5-43.5l-4.4-61.2c-0.4-4.6,1.7-9.4,6.1-14.2
			c9-9.7,26.8-17.6,39.7-17.6h137.1c2.3,0,4.1-1.8,4.1-4.1s-1.8-4.1-4.1-4.1h-137.1c-15.1,0-35.2,8.9-45.7,20.2
			c-5.9,6.4-8.8,13.5-8.3,20.4l4.4,61.2c1.3,17.4,7.5,34,18.2,47.9c13,17,18.7,38,16.1,59.2l-19.9,163.9c-0.1,1.2,0.2,2.3,1,3.2
			c0.8,0.9,1.9,1.4,3.1,1.4h217.8c17.1,0,31.8-12.8,34.1-29.7c0-0.3,0.1-0.7,0-1L3892.4,2894.5z"/>
	</g>
	<g>
		<path class="st4" d="M3888.4,2619.3c-16.6-13.9-38.7-7.5-47.3,6.3c-3.2,5.2-4.4,11.1-3.8,17.1l17.2,26.2
			c16.1,10.1,32.5,10.1,42.1-3C3907.6,2650.7,3904.2,2632.4,3888.4,2619.3z"/>
		<path class="st0" d="M3891,2616.2c-8.4-7-18.7-9.9-29.2-8.2c-10.1,1.6-19.1,7.4-24.2,15.5c-3.6,5.8-5.1,12.6-4.4,19.7
			c0.2,2.2,2.3,3.9,4.5,3.6c2.2-0.2,3.9-2.2,3.6-4.5c-0.6-5.3,0.5-10.3,3.2-14.5c3.8-6.1,10.8-10.5,18.6-11.8
			c8.1-1.3,16.1,1,22.7,6.4c14.1,11.8,17.1,27.8,7.5,41c-7.8,10.7-21.5,11.5-36.6,2c-1.9-1.2-4.4-0.6-5.6,1.3
			c-1.2,1.9-0.6,4.4,1.3,5.6c8.4,5.3,16.7,7.9,24.2,7.9c9.3,0,17.5-4,23.3-12C3912,2651.6,3908.4,2630.7,3891,2616.2z"/>
	</g>
	<g>
		<path class="st1" d="M3461.4,2638.4c-4.6-9.7-16.2-13.9-25.9-9.5l-53.6,24.4c-10,4.6-14.3,16.4-9.6,26.3
			c15.1,31.9,108.7,217.7,144.2,226.4c94,23.2,142.7,27,164.3,30.9l21.9-96.9c-0.5,0-68.9-10.7-149.6-30.1
			C3548.6,2804.5,3475.9,2668.9,3461.4,2638.4z"/>
		<path class="st0" d="M3703.2,2836.1c-1.5-0.2-67.7-10.5-147.6-29.7c-8.7-13.8-75.9-139-90.5-169.7c-5.5-11.7-19.6-16.8-31.3-11.4
			l-53.6,24.4c-5.8,2.7-10.3,7.4-12.5,13.5c-2.2,6-1.9,12.5,0.8,18.3c8.7,18.5,36,72.7,64.6,122.2c39,67.6,65.9,102.4,82.3,106.5
			c72.5,17.9,118,24.2,145.2,28c8.1,1.1,14.5,2,19.4,2.9c0.2,0,0.5,0.1,0.7,0.1c1.9,0,3.6-1.4,4-3.3c0.4-2.2-1.1-4.3-3.3-4.7
			c-5.1-0.9-11.5-1.8-19.7-3c-27-3.8-72.3-10.1-144.4-27.9c-7.8-1.9-28.3-17.8-77.2-102.6c-28.4-49.3-55.6-103.2-64.3-121.6
			c-1.8-3.8-2-8.1-0.5-12c1.4-4,4.4-7.1,8.2-8.8l53.6-24.4c7.7-3.5,16.9-0.2,20.6,7.5c13.8,29.2,87.1,166.2,92.2,172.4
			c0.6,0.7,1.3,1.2,2.2,1.4c82.5,19.9,150.1,30.2,150.4,30.2c2.2,0.1,4.2-1.6,4.3-3.9C3706.9,2838.2,3705.3,2836.3,3703.2,2836.1z"
			/>
	</g>
</g>
<g>
	<g>
		<g>
			<path class="st4" d="M4945.7,3956.7h-82l14.3,34.8l-22.3,21.4c-7.3,8-1.4,22.7,10.9,22.7h97.1c6.8,0,11.4-5.6,10.2-12.4
				L4945.7,3956.7z"/>
			<path class="st0" d="M4978,4021.5l-28.2-66.5c-0.7-1.7-2.3-2.7-4.2-2.7h-82c-1.5,0-2.9,0.7-3.7,2c-0.8,1.2-1,2.8-0.4,4.2l13.1,32
				l-20.1,19.3c-0.1,0.1-0.1,0.1-0.2,0.2c-4.6,5-5.7,12.5-2.8,19.1c3,6.9,9.5,11.2,17,11.2h97.1c4.6,0,8.7-1.8,11.5-5.2
				c2.8-3.3,3.9-7.9,3.1-12.5C4978.3,4022.1,4978.2,4021.8,4978,4021.5z M4968.3,4029.2c-1.1,1.3-2.7,2-4.6,2h-97.1
				c-3.9,0-7.1-2.2-8.7-5.8c-1.2-2.6-1.5-6.5,1.1-9.3l22.2-21.3c1.3-1.3,1.8-3.2,1.1-5l-11.7-28.6h72.3l26.8,63.2
				C4969.7,4026.3,4969.3,4028,4968.3,4029.2z"/>
		</g>
		<g>
			<path class="st4" d="M4694.4,3991.5l-26,21.4c-8.7,8-5.4,22.7,6.8,22.7h97.1c6.8,0,12.4-5.6,12.4-12.4v-66.5H4694L4694.4,3991.5z
				"/>
			<path class="st0" d="M4784.8,3952.2H4694c-1.2,0-2.4,0.5-3.2,1.3c-0.8,0.9-1.3,2-1.3,3.2l0.5,32.6l-24.4,20
				c-0.1,0.1-0.1,0.1-0.2,0.2c-5.8,5.3-7.9,13.6-5.2,20.6c2.4,6.3,8.1,10,15.1,10h97.1c9.3,0,16.9-7.6,16.9-16.9v-66.5
				C4789.3,3954.3,4787.3,3952.2,4784.8,3952.2z M4780.3,4023.3c0,4.4-3.5,7.9-7.9,7.9h-97.1c-4.4,0-6.1-2.7-6.7-4.3
				c-1.1-2.9-0.7-7.3,2.8-10.6l25.9-21.3c1.1-0.9,1.7-2.2,1.6-3.5l-0.4-30.2h81.7V4023.3z"/>
		</g>
		<g>
			<path class="st3" d="M4385.7,3163.2c-10.3,13-36.2,70.8-19.6,87.5c23.9,23.9,69.9,45.3,69.9,45.3l29-23.2l-58.7-83
				C4406.4,3189.9,4399.5,3145.8,4385.7,3163.2z"/>
			<path class="st0" d="M4410.7,3188.1c-0.4-2.3-1.5-8-3.3-13.9c-3.5-11.7-7.7-17.8-13.1-19.2c-2.9-0.8-7.4-0.4-12.1,5.5
				c-10.7,13.5-38.7,74-19.2,93.5c24.2,24.2,69.3,45.3,71.2,46.2c0.6,0.3,1.3,0.4,1.9,0.4c1,0,2-0.3,2.8-1l29-23.2
				c1.9-1.5,2.2-4.2,0.9-6.1L4410.7,3188.1z M4435.5,3290.7c-9.8-4.8-46.2-23.3-66.1-43.2c-5.8-5.8-5.5-20.6,0.8-40.6
				c5.4-17.1,14.1-34.6,19.1-40.9c1.6-2,2.5-2.4,2.7-2.4c0.6,0.1,3.5,2.4,6.6,12.5c2.2,7.1,3.3,14.3,3.4,14.4
				c0.1,0.7,0.4,1.3,0.8,1.9l56.2,79.5L4435.5,3290.7z"/>
		</g>
		<g>
			<path class="st4" d="M4388.8,3099.6c-4.1,0-7.1,3.7-6.3,7.7l24.4,119.2l13.6,22.5l210.9,3.8l-31.4-153.3H4388.8z"/>
			<path class="st0" d="M4604.4,3098.7c-0.4-2.1-2.3-3.6-4.4-3.6h-211.2c-3.3,0-6.4,1.5-8.5,4c-2.1,2.6-2.9,5.9-2.2,9.1l24.4,119.2
				c0.1,0.5,0.3,1,0.6,1.4l13.6,22.5c0.8,1.3,2.2,2.1,3.8,2.2l210.9,3.8c0,0,0.1,0,0.1,0c1.3,0,2.6-0.6,3.5-1.6
				c0.9-1.1,1.2-2.4,0.9-3.8L4604.4,3098.7z M4423.1,3244.7l-11.9-19.7l-24.3-118.5c-0.2-0.8,0.2-1.3,0.4-1.6
				c0.2-0.3,0.7-0.7,1.5-0.7h207.5l29.5,144.1L4423.1,3244.7z"/>
		</g>
		<g>
			<path class="st1" d="M4618.7,3108.7c-1.1-5.3-5.7-9.1-11.1-9.1h-209.9l31.4,153.3H4633c7.9,0,13.8-7.2,12.2-14.9L4618.7,3108.7z"
				/>
			<path class="st0" d="M4623.1,3107.8c-1.5-7.3-8-12.7-15.5-12.7h-209.9c-1.4,0-2.6,0.6-3.5,1.7c-0.9,1-1.2,2.4-0.9,3.8l31.4,153.3
				c0.4,2.1,2.3,3.6,4.4,3.6H4633c5.1,0,9.9-2.3,13.1-6.2c3.2-4,4.5-9.1,3.5-14.1L4623.1,3107.8z M4639.1,3245.5
				c-1.5,1.9-3.8,2.9-6.1,2.9h-200.2l-29.5-144.2h204.3c3.2,0,6,2.3,6.7,5.5l26.5,129.3C4641.2,3241.2,4640.7,3243.6,4639.1,3245.5z
				"/>
		</g>
		<polygon class="st4" points="4418.8,3114.6 4443.7,3236.5 4622.1,3236.5 4597.2,3114.6 		"/>
		<g>
			<g>
				<path class="st3" d="M4784.4,2956.3l-15.8,119.8l82,3.2c0-9.5,0-122.9,0-122.9l-23.8-60.1L4784.4,2956.3z"/>
				<path class="st0" d="M4831,2894.6c-0.6-1.5-2-2.6-3.7-2.8c-1.6-0.2-3.3,0.5-4.2,1.9l-42.4,60.1c-0.4,0.6-0.7,1.3-0.8,2
					l-15.8,119.8c-0.2,1.3,0.2,2.5,1,3.5c0.8,1,2,1.6,3.3,1.6l82,3.2c0.1,0,0.1,0,0.2,0c1.2,0,2.3-0.5,3.1-1.3
					c0.9-0.8,1.4-2,1.4-3.2v-122.9c0-0.6-0.1-1.1-0.3-1.7L4831,2894.6z M4846.1,3074.6l-72.3-2.8l15-113.8l36.9-52.4l20.4,51.5
					V3074.6z"/>
			</g>
			<g>
				<path class="st3" d="M4726.7,2884l-3.4,33.7l-11.9,17.5c-1.8,2.6,0.1,6.2,3.3,6.2h6.2l-2.7,27c-2.1,20.6,16,37.5,36.4,34.1
					l36.8-6.1l49.8-147.6l-68.3-4.1C4749.4,2843.2,4729,2860.6,4726.7,2884z"/>
				<path class="st0" d="M4841.5,2844.3l-68.3-4.1c-26-1.6-48.4,17.5-51,43.4l-3.3,32.6l-11.2,16.6c-1.8,2.6-1.9,5.9-0.5,8.7
					c1.5,2.8,4.3,4.5,7.5,4.5h1.2l-2.2,22.1c-1.1,11.2,3,22.1,11.2,29.8c6.7,6.3,15.4,9.7,24.4,9.7c2,0,4-0.2,6-0.5l36.8-6.1
					c2.5-0.4,4.1-2.7,3.7-5.2c-0.4-2.5-2.7-4.1-5.2-3.7l-36.8,6.1c-8.3,1.4-16.6-1.1-22.8-6.9c-6.2-5.8-9.2-13.9-8.4-22.3l2.7-27
					c0.1-1.3-0.3-2.5-1.1-3.5c-0.9-0.9-2.1-1.5-3.3-1.5h-5.2l11.3-16.7c0.4-0.6,0.7-1.3,0.8-2.1l3.4-33.7
					c2.1-21.1,20.3-36.6,41.5-35.3l68.3,4.1c2.5,0.1,4.6-1.7,4.8-4.2C4845.9,2846.6,4844,2844.4,4841.5,2844.3z"/>
			</g>
			<g>
				<path class="st4" d="M4744.1,2807.2c-19-1.6-31.9,3.3-33.3,18.5c-1.7,18,18.3,22.1,37.7,40.9c11.6,11.2,23.6,41.1,28.3,60.5
					c2.2,9.1,0.3,33.8,14.5,46.7c15.2,13.9,58.8,11.8,59.4,12.1c0,0,83.1-79,38.8-152C4853.1,2774.3,4789.3,2811.1,4744.1,2807.2z"
					/>
				<path class="st0" d="M4786.4,2799.2c-15.1,2.4-29.3,4.6-41.9,3.5c-29.6-2.5-37.1,10.9-38.2,22.5c-1.4,14.5,8.7,21.6,20.4,29.8
					c5.7,4,12.3,8.6,18.6,14.8c10.1,9.8,22.2,38.1,27,58.3c0.5,1.9,0.7,4.9,1.1,8.3c1.1,11.8,2.8,29.7,14.8,40.7
					c9.6,8.8,29.9,13.3,60.2,13.2c0.8,0,1.3,0,1.7,0c0.2,0,0.4,0,0.5,0c1.1,0,2.2-0.4,3.1-1.2c0.9-0.8,21.5-20.6,36.9-49.8
					c20.7-39.2,21.6-76.5,2.7-107.8C4866,2786.7,4823.7,2793.4,4786.4,2799.2z M4848.3,2989.9
					C4848.3,2989.9,4848.3,2989.9,4848.3,2989.9C4848.3,2989.9,4848.3,2989.9,4848.3,2989.9z M4848.3,2989.9
					C4848.3,2989.9,4848.3,2989.9,4848.3,2989.9C4848.3,2989.9,4848.3,2989.9,4848.3,2989.9z M4882.7,2935.1
					c-12.6,23.9-29.2,41.6-33.9,46.4c-0.2,0-0.5,0-0.7,0c-34.6,0-48.3-5.9-53.8-10.9c-9.4-8.6-10.9-23.8-11.9-34.9
					c-0.4-3.8-0.7-7.1-1.3-9.6c-4.4-18.5-16.5-50.1-29.5-62.7c-6.9-6.7-13.7-11.5-19.7-15.7c-11.8-8.3-17.5-12.7-16.6-21.6
					c0.6-6.5,3.7-14.7,22.1-14.7c2,0,4.1,0.1,6.4,0.3c13.7,1.2,28.4-1.1,44.1-3.6c36.2-5.7,73.6-11.6,97.7,28.3
					C4903,2865.2,4902,2898.4,4882.7,2935.1z"/>
			</g>
			<g>
				<path class="st3" d="M4771.1,2906.5c-4.6,0-9.6,2.1-13.7,5.3l6.5,36.5c10.5,0,19.5-6.1,22.3-20.6
					C4788.2,2917.4,4781.6,2906.5,4771.1,2906.5z"/>
				<path class="st0" d="M4771.1,2902c-5.4,0-11.4,2.3-16.5,6.2c-2,1.5-2.3,4.4-0.8,6.3c1.5,2,4.4,2.3,6.3,0.8
					c3.5-2.8,7.5-4.3,10.9-4.3c3.8,0,6.3,2,7.7,3.8c2.6,3.2,3.7,7.8,2.9,12.1c-2.1,11.1-8.3,17-17.9,17c-2.5,0-4.5,2-4.5,4.5
					c0,2.5,2,4.5,4.5,4.5c13.8,0,23.8-9.1,26.7-24.3c1.3-7-0.5-14.2-4.8-19.5C4782.1,2904.5,4776.9,2902,4771.1,2902z"/>
			</g>
		</g>
		<g>
			<g>
				<polygon class="st2" points="4916.9,3405.1 4758.6,3405.1 4801,3502.7 4814.4,3509.5 4820.3,3676.8 4855.5,3978.4 
					4963.4,3978.4 4916.9,3674.7 				"/>
				<path class="st0" d="M4921.4,3674.3v-269.3c0-2.5-2-4.5-4.5-4.5h-158.4c-2.5,0-4.5,2-4.5,4.5s2,4.5,4.5,4.5h153.9v265.1
					c0,0.2,0,0.5,0.1,0.7l45.6,298.5h-98.6l-34.8-297.4l-5.9-167.1c-0.1-1.7-1-3.1-2.5-3.9l-13.4-6.7c-2.2-1.1-4.9-0.2-6,2
					c-1.1,2.2-0.2,4.9,2,6l11,5.5l5.8,164.6c0,0.1,0,0.2,0,0.4l35.3,301.6c0.3,2.3,2.2,4,4.5,4h107.8c1.3,0,2.6-0.6,3.4-1.6
					c0.9-1,1.2-2.3,1-3.6L4921.4,3674.3z"/>
			</g>
			<g>
				<path class="st2" d="M4677,3405.1l8.1,573.3h108.5l-8.9-452.6c0,0,36.1-5.4,55.1-32.3l-55.1-88.4H4677z"/>
				<path class="st0" d="M4842.4,3489.7c-2-1.4-4.8-0.9-6.3,1.1c-17.5,25-51.7,30.4-52.1,30.5c-2.2,0.3-3.9,2.3-3.8,4.5l8.8,448
					h-99.5l-7.9-564.3h103.1c2.5,0,4.5-2,4.5-4.5s-2-4.5-4.5-4.5H4677c-1.2,0-2.4,0.5-3.2,1.3c-0.8,0.9-1.3,2-1.3,3.2l8.1,573.3
					c0,2.5,2,4.4,4.5,4.4h108.5c1.2,0,2.4-0.5,3.2-1.4c0.8-0.9,1.3-2,1.3-3.2l-8.8-448.8c10.2-2.3,37.9-10.3,54.2-33.4
					C4845,3494,4844.5,3491.2,4842.4,3489.7z"/>
			</g>
		</g>
		<g>
			<path class="st3" d="M4917.6,3051.1h-210.1c-21.7,0-56.9,18.5-55.2,40l24.7,313.9h237.1c16.8,0,31-12.4,33.3-29l7-282.8
				C4957.5,3071,4940.2,3051.1,4917.6,3051.1z"/>
			<path class="st0" d="M4917.6,3046.6h-210.1c-16.8,0-39,9.8-50.5,22.3c-6.6,7.1-9.7,14.9-9.1,22.6l24.7,313.9
				c0.2,2.3,2.1,4.2,4.5,4.2h237.1c18.9,0,35.2-14.1,37.8-32.9c0-0.2,0-0.3,0-0.5l7-282.5c1.6-11.8-2-23.8-9.9-32.8
				C4941.1,3051.8,4929.7,3046.6,4917.6,3046.6z M4949.9,3092.7c0,0.2,0,0.3,0,0.5l-7,282.5c-2.1,14.2-14.4,24.9-28.8,24.9h-232.9
				l-24.4-309.8c-0.4-5.1,1.9-10.4,6.8-15.7c9.9-10.7,29.6-19.4,43.9-19.4h210.1c9.4,0,18.4,4.1,24.6,11.2
				C4948.4,3073.9,4951.2,3083.4,4949.9,3092.7z"/>
		</g>
		<circle class="st5" cx="4534.9" cy="3170.6" r="17.1"/>
		<path class="st5" d="M4536.3,3165.7l-79.6-22.7c-2.7-0.8-5.5,0.8-6.2,3.5c-0.8,2.7,0.8,5.5,3.5,6.2l79.6,22.7
			c0.5,0.1,0.9,0.2,1.4,0.2c2.2,0,4.2-1.4,4.8-3.7C4540.5,3169.3,4539,3166.5,4536.3,3165.7z"/>
		<g>
			<path class="st3" d="M4578.7,3126.4c-13.8,7.2-54.2,30.8-43.7,41.7c8.9,9.2,49.6-31,58.9-20.7c10.3,11.6-19.6,23.9-11.8,35.1
				c7.5,10.8,72.8-30.1,72.8-30.1l6.9-25l-65.6-5.1C4587.4,3120.8,4581.8,3124.8,4578.7,3126.4z"/>
			<path class="st0" d="M4662.2,3123.1l-65.4-5.1c-9.4-1.6-15.8,1.9-19.2,3.9c-0.4,0.2-0.7,0.4-1,0.6c-3.5,1.8-15.7,8.4-26.9,16.4
				c-12.9,9.2-19.7,16.8-20.8,23.3c-0.6,3.5,0.4,6.6,2.8,9.1c6.9,7.1,19.5-0.6,34.1-9.5c6.1-3.8,12.5-7.6,17.6-9.8
				c5-2.1,6.9-1.7,7.1-1.5c2.2,2.4,1.1,4.8-5.5,12.4c-5.2,5.9-12.3,14-6.6,22.3c1.8,2.6,4.8,3.7,8.6,3.7c9,0,22.5-6.2,36.4-13.3
				c17.2-8.8,33.8-19.2,33.9-19.3c1-0.6,1.7-1.5,2-2.6l6.9-25c0.4-1.3,0.1-2.7-0.7-3.8C4664.7,3123.9,4663.5,3123.2,4662.2,3123.1z
				 M4651.1,3149.6c-4.1,2.5-16.4,9.9-29.4,16.7c-27.9,14.6-34.9,13.7-36,13.4c-1.2-2.1,1-5.2,6.1-11c5.4-6.1,13.5-15.4,5.5-24.3
				c-7.2-8.1-21.2,0.5-36.1,9.6c-5.3,3.3-10.8,6.6-15.4,8.8c-5.5,2.6-7.3,2.2-7.6,2.2c-0.4-0.4-0.5-0.8-0.4-1.4
				c0.9-5.6,16.3-19.1,43-33.2c0.4-0.2,0.8-0.4,1.2-0.7c3-1.7,7.1-4,13.4-2.8c0.2,0,0.3,0,0.5,0.1l60.1,4.7L4651.1,3149.6z"/>
		</g>
		<g>
			<path class="st3" d="M4428.1,3234.4c-3.3-7.6,3.8-48.4-8.2-51.6c-12-3.3-21.2,43.5-21.2,43.5l25,65.2l10.3-2.2l15.2-38
				C4449.3,3251.3,4431.4,3242,4428.1,3234.4z"/>
			<path class="st0" d="M4451.4,3247.3c-6.8-3.5-17.3-10.4-19.1-14.6c-0.8-1.8-0.6-9.5-0.5-15.1c0.3-16.9,0.6-36.1-10.6-39.1
				c-2.5-0.7-5.2-0.3-7.6,1.2c-11.1,6.9-18,39.3-19.2,45.7c-0.5,2.4,1.1,4.8,3.5,5.3c2.5,0.5,4.8-1.1,5.3-3.5c0-0.1,2.1-10.6,5.5-21
				c5.8-17.9,10-19,10.1-19c0.2,0.1,2.3,0.9,3.4,9c0.8,6.3,0.7,14.3,0.6,21.3c-0.2,9.7-0.2,15.4,1.3,18.8
				c2.9,6.8,13.6,13.7,19.7,17.1l-12.8,32.1l-8,1.7c-2.4,0.5-4,2.9-3.5,5.3c0.4,2.1,2.3,3.6,4.4,3.6c0.3,0,0.6,0,0.9-0.1l10.3-2.2
				c1.5-0.3,2.7-1.3,3.3-2.7l15.2-38C4454.4,3250.8,4453.5,3248.3,4451.4,3247.3z"/>
		</g>
		<g>
			<path class="st3" d="M4645.2,3084.3l-70.4,173.8l-100.9-36c-28.3-9.9-38.6,13.2-48.4,41.5c-9.9,28.3-15.7,51.2,12.7,61.1
				l128.5,45.6c8.5,3,17.2,4.4,25.7,4.4c30.9,0,60-18.5,72.2-48.7l64.4-151.7l-15.7-123.2
				C4680.6,3051.1,4656.4,3056.5,4645.2,3084.3z"/>
			<path class="st0" d="M4730.6,3170.1c-2.3-1-4.9,0.1-5.9,2.4l-64.4,151.8c-11.3,27.9-38,45.9-68.1,45.9c-8.2,0-16.4-1.4-24.2-4.1
				l-128.6-45.6c-11.4-4-16.9-10.1-17.7-19.7c-0.8-10,3.4-23.1,7.8-35.6c4.4-12.7,9.4-25.8,16.4-33.6c6.9-7.6,15-9.2,26.3-5.2
				l100.9,36c2.3,0.8,4.8-0.3,5.7-2.6l70.4-173.8c10.3-25.3,32-30.4,63.9-30.4c2.5,0,4.5-2,4.5-4.5s-2-4.5-4.5-4.5
				c-34.6,0-60.1,6.1-72.2,36l-68.8,169.8l-96.9-34.6c-14.8-5.2-26.6-2.7-36,7.7c-8.2,9-13.5,23-18.2,36.7
				c-4.7,13.5-9.2,27.6-8.2,39.3c1.1,13.3,8.8,22.3,23.7,27.5l128.6,45.6c8.8,3.1,17.9,4.6,27.2,4.6c33.7,0,63.7-20.2,76.4-51.5
				l64.4-151.7C4734,3173.8,4732.9,3171.1,4730.6,3170.1z"/>
		</g>
		<path class="st5" d="M4694.6,3178.6c-2.6-1.1-5.5,0.1-6.6,2.7l-49.5,116.6c-8.4,20.8-28.4,34.3-50.8,34.3c-6.1,0-12.2-1-18.1-3.1
			l-134-44.4c-2.6-0.9-5.5,0.6-6.4,3.2c-0.9,2.6,0.6,5.5,3.2,6.4l133.9,44.4c6.9,2.4,14.1,3.6,21.4,3.6c26.5,0,50.1-15.9,60.1-40.5
			l49.4-116.5C4698.4,3182.6,4697.2,3179.6,4694.6,3178.6z"/>
		<path class="st5" d="M4455.3,3139.1c-4.8,0-8.7,3.9-8.7,8.7c0,4.8,3.9,8.7,8.7,8.7s8.7-3.9,8.7-8.7
			C4464,3143,4460.1,3139.1,4455.3,3139.1z"/>
	</g>
</g>
<g>
	<g>
		<g>
			<polygon class="st1" points="1592.5,3115 1981.4,4035 2027.5,4035 1638.6,3115 			"/>
			<path class="st0" d="M1643.2,3113.1c-0.8-1.9-2.6-3.1-4.6-3.1h-46.1c-1.7,0-3.2,0.8-4.2,2.2s-1.1,3.2-0.4,4.7l388.9,920
				c0.8,1.9,2.6,3.1,4.6,3.1h46.1c1.7,0,3.2-0.8,4.2-2.2s1.1-3.2,0.4-4.7L1643.2,3113.1z M1984.7,4030L1600,3120h35.2l384.7,910
				H1984.7z"/>
		</g>
		<g>
			<polygon class="st3" points="1201.1,4036 1247.3,4036 1636.2,3116 1590.1,3116 			"/>
			<path class="st0" d="M1636.2,3111h-46.1c-2,0-3.8,1.2-4.6,3.1l-388.9,920c-0.7,1.5-0.5,3.3,0.4,4.7s2.5,2.2,4.2,2.2h46.1
				c2,0,3.8-1.2,4.6-3.1l388.9-920c0.7-1.5,0.5-3.3-0.4-4.7S1637.9,3111,1636.2,3111z M1243.9,4031h-35.2l384.7-910h35.2
				L1243.9,4031z"/>
		</g>
		<g>
			<path class="st6" d="M1906.4,3106.4h-271.1c-4.3,0-7.8,3.5-7.8,7.8s3.5,7.8,7.8,7.8h271.1c4.3,0,7.8-3.5,7.8-7.8
				S1910.7,3106.4,1906.4,3106.4z"/>
			<path class="st0" d="M1962.4,3240.9h-271.1c-2.8,0-5,2.2-5,5s2.2,5,5,5h271.1c2.8,0,5-2.2,5-5S1965.2,3240.9,1962.4,3240.9z"/>
			<path class="st0" d="M2186.6,3767.6h-271.1c-2.8,0-5,2.2-5,5s2.2,5,5,5h271.1c2.8,0,5-2.2,5-5S2189.4,3767.6,2186.6,3767.6z"/>
			<path class="st0" d="M2018.5,3372.6h-271.1c-2.8,0-5,2.2-5,5s2.2,5,5,5h271.1c2.8,0,5-2.2,5-5S2021.3,3372.6,2018.5,3372.6z"/>
			<path class="st0" d="M2242.7,3899.2h-271.1c-2.8,0-5,2.2-5,5s2.2,5,5,5h271.1c2.8,0,5-2.2,5-5S2245.4,3899.2,2242.7,3899.2z"/>
			<path class="st0" d="M2074.5,3504.3h-271.1c-2.8,0-5,2.2-5,5s2.2,5,5,5h271.1c2.8,0,5-2.2,5-5S2077.3,3504.3,2074.5,3504.3z"/>
			<path class="st0" d="M2130.6,3635.9h-271.1c-2.8,0-5,2.2-5,5s2.2,5,5,5h271.1c2.8,0,5-2.2,5-5S2133.3,3635.9,2130.6,3635.9z"/>
		</g>
		<g>
			<path class="st6" d="M1906.4,3106.4h-210.1c-4.3,0-7.8,3.5-7.8,7.8s3.5,7.8,7.8,7.8h210.1c4.3,0,7.8-3.5,7.8-7.8
				S1910.7,3106.4,1906.4,3106.4z"/>
			<path class="st0" d="M1850.4,3240.9h-287.2c-2.8,0-5,2.2-5,5s2.2,5,5,5h287.2c2.8,0,5-2.2,5-5S1853.1,3240.9,1850.4,3240.9z"/>
			<path class="st0" d="M1626.2,3767.6H1339c-2.8,0-5,2.2-5,5s2.2,5,5,5h287.2c2.8,0,5-2.2,5-5S1629,3767.6,1626.2,3767.6z"/>
			<path class="st0" d="M1794.3,3372.6h-287.2c-2.8,0-5,2.2-5,5s2.2,5,5,5h287.2c2.8,0,5-2.2,5-5S1797.1,3372.6,1794.3,3372.6z"/>
			<path class="st0" d="M1738.3,3504.3h-287.2c-2.8,0-5,2.2-5,5s2.2,5,5,5h287.2c2.8,0,5-2.2,5-5S1741,3504.3,1738.3,3504.3z"/>
			<path class="st0" d="M1682.2,3635.9H1395c-2.8,0-5,2.2-5,5s2.2,5,5,5h287.2c2.8,0,5-2.2,5-5S1685,3635.9,1682.2,3635.9z"/>
		</g>
		<g>
			<rect x="1552.7" y="3064.6" class="st3" width="484.5" height="49.6"/>
			<path class="st0" d="M2037.2,3059.6h-484.5c-2.8,0-5,2.2-5,5v49.7c0,2.8,2.2,5,5,5h484.5c2.8,0,5-2.2,5-5v-49.7
				C2042.2,3061.9,2040,3059.6,2037.2,3059.6z M2032.2,3109.3h-474.5v-39.7h474.5V3109.3z"/>
		</g>
		<g>
			<g>
				<path class="st1" d="M1819.3,3351.1l-92.4-46.8h-80.2v52.5c0,11.5,8.3,20.8,18.4,20.8h147.9
					C1825.9,3377.6,1830.5,3358.3,1819.3,3351.1z"/>
				<path class="st0" d="M1822,3346.9c-0.1-0.1-0.3-0.2-0.4-0.3l-92.4-46.8c-0.7-0.4-1.5-0.5-2.3-0.5h-80.2c-2.8,0-5,2.2-5,5v52.5
					c0,14.2,10.5,25.8,23.4,25.8h147.9c7.8,0,14.3-5.2,16.7-13.3C1832.3,3360.6,1829.2,3351.6,1822,3346.9z M1820.2,3366.5
					c-0.4,1.4-2.2,6.1-7.1,6.1h-147.9c-7.4,0-13.4-7.1-13.4-15.8v-47.5h74l91,46.2C1820.6,3358,1821.2,3362.9,1820.2,3366.5z"/>
			</g>
			<g>
				<g>
					<path class="st4" d="M1731.4,2870.2l-154.1-104.9l-76.2,0.5l-38.7,80.3l186.7,107.8l-16.5,350.6h94.3l28.8-380.3
						C1757.3,2902.3,1747.9,2881.4,1731.4,2870.2z"/>
					<path class="st0" d="M1734.2,2866l-154.1-104.9c-0.8-0.6-1.8-0.9-2.8-0.9l-76.2,0.5c-1.9,0-3.6,1.1-4.5,2.8l-38.7,80.3
						c-1.1,2.4-0.3,5.2,2,6.5l184.1,106.2l-16.4,347.5c-0.1,1.4,0.4,2.7,1.4,3.7c0.9,1,2.3,1.5,3.6,1.5h94.3c2.6,0,4.8-2,5-4.6
						l28.8-380.3C1762.5,2900.7,1752.3,2878.4,1734.2,2866z M1750.7,2923.6l-28.4,375.7h-84.4l16.3-345.3c0.1-1.9-0.9-3.6-2.5-4.6
						l-182.7-105.4l35.3-73.3l71.5-0.4l152.8,104.1C1743.5,2884.5,1752.2,2903.8,1750.7,2923.6z"/>
				</g>
			</g>
			<g>
				<path class="st1" d="M1579.1,3482.2l-114.3-46.8h-80.2l0.8,52.5c0,11.5,8.3,20.8,18.4,20.8h169
					C1585.8,3508.7,1590.3,3489.4,1579.1,3482.2z"/>
				<path class="st0" d="M1581.8,3478c-0.3-0.2-0.5-0.3-0.8-0.4l-114.3-46.8c-0.6-0.2-1.2-0.4-1.9-0.4h-80.2c-1.3,0-2.6,0.5-3.6,1.5
					c-0.9,1-1.5,2.2-1.4,3.6l0.8,52.4c0,14.2,10.5,25.8,23.4,25.8h169c7.8,0,14.3-5.2,16.7-13.3
					C1592.2,3491.7,1589.1,3482.7,1581.8,3478z M1580,3497.6c-0.4,1.4-2.2,6.1-7.1,6.1h-169c-7.4,0-13.4-7.1-13.4-15.9l-0.7-47.4
					h74.1l112.9,46.3C1580.5,3489.3,1581.1,3494,1580,3497.6z"/>
			</g>
			<g>
				<polygon class="st4" points="1373.3,3435.4 1467.9,3435.4 1462.4,2845.9 1501.5,2845.9 1577.3,2765.2 1343.7,2765.2 				"/>
				<path class="st0" d="M1577.3,2760.2h-233.6c-1.4,0-2.7,0.6-3.6,1.5c-0.9,1-1.4,2.3-1.4,3.7l29.7,670.2c0.1,2.7,2.3,4.8,5,4.8
					h94.5c1.3,0,2.6-0.5,3.6-1.5c0.9-0.9,1.5-2.2,1.4-3.6l-5.4-584.4h34.1c2.8,0,5-2.2,5-5s-2.2-5-5-5h-39.1c-1.3,0-2.6,0.5-3.6,1.5
					c-0.9,0.9-1.5,2.2-1.4,3.6l5.4,584.4h-84.7l-29.2-660.2h228.4c2.8,0,5-2.2,5-5S1580.1,2760.2,1577.3,2760.2z"/>
			</g>
		</g>
		<g>
			<polygon class="st1" points="1886.3,3115 2275.2,4035 2321.3,4035 1932.4,3115 			"/>
			<path class="st0" d="M1937,3113.1c-0.8-1.9-2.6-3.1-4.6-3.1h-46.1c-1.7,0-3.2,0.8-4.2,2.2s-1.1,3.2-0.4,4.7l388.9,920
				c0.8,1.9,2.6,3.1,4.6,3.1h46.1c1.7,0,3.2-0.8,4.2-2.2s1.1-3.2,0.4-4.7L1937,3113.1z M2278.5,4030l-384.7-910h35.2l384.7,910
				H2278.5z"/>
		</g>
		<g>
			<polygon class="st3" points="1504.8,4036 1550.9,4036 1939.9,3116 1893.8,3116 			"/>
			<path class="st0" d="M1939.9,3111h-46.1c-2,0-3.8,1.2-4.6,3.1l-388.9,920c-0.7,1.5-0.5,3.3,0.4,4.7s2.5,2.2,4.2,2.2h46.1
				c2,0,3.8-1.2,4.6-3.1l388.9-920c0.7-1.5,0.5-3.3-0.4-4.7S1941.5,3111,1939.9,3111z M1547.6,4031h-35.2l384.7-910h35.2
				L1547.6,4031z"/>
		</g>
	</g>
	<g>
		<g>
			<path class="st3" d="M1857.4,2316c-1-8.6-7.9-15.4-16.5-16.4l-35.2-4v19.7c0,0-24.3,20.9-24.1,50c0.3,32.2-0.4,68.4-1.8,98.8
				c-28.1-30.5-70.2-80.3-101.9-125.6c-14.8-21.1-32.2-26.4-52-26.6c-10.2-0.1-16.2,2.1-25.2,8.2c-24.1,16.4-30.4,49.2-14,73.3
				c1.4,2.1,34.9,51.2,74.6,99.3c51.6,62.3,98.9,128.9,162.5,111.1c52.8-14.8,53.7-56.8,47.9-136.5
				C1868.6,2423.5,1860.9,2345.1,1857.4,2316z"/>
			<path class="st0" d="M1862.4,2315.4c-1.3-11-9.9-19.5-20.9-20.7l-35.2-4c-1.4-0.2-2.8,0.3-3.9,1.2c-1.1,0.9-1.7,2.3-1.7,3.7v17.5
				c-5.9,5.7-24.3,25.5-24.1,52.3c0.2,28.1-0.2,58.9-1.3,86.4c-26.7-29.7-64.2-74.6-93.3-116.1c-17.6-25.2-39.2-28.5-56-28.7
				c-10.9-0.1-17.9,2.2-28.1,9.1c-26.4,17.9-33.2,53.9-15.3,80.3c1.4,2.1,35,51.4,74.9,99.6c4.3,5.2,8.6,10.4,12.8,15.6
				c24,29.3,46.6,57,71.3,76.1c20.9,16.1,41.2,24.1,61.5,24.1c7.3,0,14.7-1,22.1-3.1c57.7-16.2,57.2-64.4,51.5-141.7
				C1873.5,2422,1865.7,2343.1,1862.4,2315.4z M1865,2558.7c-5.9,21.7-18.6,33.8-42.4,40.4c-6.6,1.9-13,2.7-19.3,2.7
				c-46.3,0-84.7-47-125.2-96.5c-4.3-5.2-8.5-10.4-12.8-15.7c-39.6-47.9-73-96.8-74.4-98.9c-14.8-21.8-9.1-51.6,12.7-66.4
				c8.3-5.7,13.3-7.4,21.8-7.4c0.2,0,0.4,0,0.6,0c22,0.2,35.9,7.3,47.9,24.4c32.4,46.3,75.4,96.9,102.3,126.1c1.4,1.5,3.5,2,5.4,1.3
				c1.9-0.7,3.2-2.5,3.3-4.5c1.4-30.4,2.1-66.5,1.8-99.1c-0.2-26.4,22.1-46,22.3-46.2c1.1-0.9,1.7-2.3,1.7-3.8v-14.1l29.7,3.3
				c6.4,0.7,11.4,5.7,12.1,12c3.3,27.6,11.1,106.3,14.4,151.1C1869.5,2504.2,1871.2,2536.1,1865,2558.7z"/>
		</g>
		<g>
			<g>
				<path class="st3" d="M1432.9,2148.4l-26.4,66.6c0,0,0,125.8,0,136.3l90.9-3.5l-17.5-132.8L1432.9,2148.4z"/>
				<path class="st0" d="M1484.8,2214.3c-0.1-0.8-0.4-1.6-0.9-2.2l-47-66.6c-1.1-1.5-2.9-2.3-4.7-2.1c-1.8,0.2-3.4,1.4-4.1,3.1
					l-26.4,66.6c-0.2,0.6-0.4,1.2-0.4,1.8v136.3c0,1.4,0.6,2.7,1.5,3.6c0.9,0.9,2.2,1.4,3.5,1.4c0.1,0,0.1,0,0.2,0l90.9-3.5
					c1.4-0.1,2.7-0.7,3.6-1.8c0.9-1.1,1.3-2.5,1.1-3.9L1484.8,2214.3z M1411.5,2346.1v-130.2l22.7-57.1l41,58.1l16.6,126.2
					L1411.5,2346.1z"/>
			</g>
			<g>
				<path class="st3" d="M1543.8,2134.7c-2.6-25.9-25.2-45.2-51.3-43.6l-75.8,4.6l39.2,161.1l56.8,9.5c22.6,3.8,42.7-15,40.4-37.8
					L1543.8,2134.7z"/>
				<path class="st0" d="M1548.8,2134.3c-2.9-28.7-27.7-49.9-56.5-48.1l-75.8,4.6c-2.8,0.2-4.9,2.5-4.7,5.3c0.2,2.8,2.5,4.9,5.3,4.7
					l75.8-4.6c23.4-1.4,43.6,15.8,46,39.1l9.4,93.7c0.9,9.3-2.5,18.3-9.3,24.7c-6.8,6.4-16.1,9.2-25.3,7.7l-56.8-9.5
					c-2.7-0.5-5.3,1.4-5.8,4.1c-0.5,2.7,1.4,5.3,4.1,5.8l56.8,9.5c2.2,0.4,4.5,0.6,6.7,0.6c10,0,19.6-3.8,27.1-10.8
					c9.1-8.5,13.6-20.6,12.4-33L1548.8,2134.3z"/>
			</g>
			<g>
				<path class="st4" d="M1548.2,2069.7c-6.7-1.3-14-3.2-20.5-6c-44.6-19.3-125.2-41-163.2,20.4c-49.8,80.5,42,163.8,42,163.8
					c0.6-0.3,1.3-0.8,2.1-1.3l19.4-12.5c5.3-3.4,9-8.8,10.2-14.9l11.4-55.1c2.9-13.9,10.6-26.4,21.7-35.1c14.3-11.2,31.3-19,45.8-20
					c17.5-1.3,29.3-7,37.4-13.2C1564.5,2087.9,1560.6,2072.1,1548.2,2069.7z"/>
				<path class="st0" d="M1549.1,2064.8c-7.5-1.4-14.1-3.4-19.5-5.7c-36.9-16-127.2-45.8-169.4,22.4c-21.4,34.5-20.6,75,2.2,117.1
					c16.9,31.3,39.8,52.2,40.7,53c0.9,0.9,2.1,1.3,3.4,1.3c0.9,0,1.7-0.2,2.5-0.7c0.7-0.4,1.5-0.9,2.4-1.5l19.3-12.5
					c6.4-4.1,10.9-10.7,12.4-18.1l11.4-55.1c2.7-12.8,9.7-24.2,19.9-32.2c13.9-10.9,30-18,43.1-19c15.8-1.2,29.3-6,40.1-14.3
					c6.1-4.7,8.9-12.3,7.1-19.9C1562.8,2072,1556.9,2066.3,1549.1,2064.8z M1551.5,2091.6c-9.2,7.1-20.9,11.2-34.7,12.2
					c-15.2,1.1-32.9,8.8-48.5,21.1c-12,9.5-20.4,23-23.5,38.1l-11.4,55.1c-1,4.8-3.9,9.1-8,11.7l-18.1,11.7
					c-6.5-6.4-23.1-24.2-35.9-47.8c-21.3-39.3-22.1-75.3-2.5-107.1c15.7-25.3,40.6-38.1,74.1-38.1c0.2,0,0.5,0,0.7,0
					c30.7,0.2,61.6,10.8,82.1,19.7c6.1,2.6,13.3,4.8,21.6,6.4h0c4.6,0.9,7,4.4,7.7,7.3C1555.8,2085.7,1554.5,2089.3,1551.5,2091.6z"
					/>
			</g>
			<g>
				<path class="st3" d="M1424.6,2182.4c3.1,16.1,13.1,22.9,24.7,22.9l7.2-40.5c-4.6-3.6-10.1-5.9-15.2-5.9
					C1429.7,2158.9,1422.4,2171,1424.6,2182.4z"/>
				<path class="st0" d="M1459.6,2160.8c-5.7-4.4-12.3-6.9-18.3-6.9c-6.3,0-12.1,2.8-16.3,7.8c-4.8,5.8-6.8,13.9-5.3,21.6
					c3.2,16.9,14.3,26.9,29.6,26.9c2.8,0,5-2.2,5-5s-2.2-5-5-5c-10.6,0-17.4-6.5-19.8-18.8c-0.9-4.7,0.3-9.9,3.2-13.4
					c1.6-1.9,4.3-4.2,8.6-4.2c3.8,0,8.2,1.8,12.1,4.8c2.2,1.7,5.3,1.3,7-0.9C1462.2,2165.6,1461.8,2162.5,1459.6,2160.8z"/>
			</g>
			<g>
				<path class="st3" d="M1535.7,2154.5l4.3,43.9h17.1c3.5,0,5.6-3.9,3.6-6.9L1535.7,2154.5z"/>
				<path class="st0" d="M1539.8,2151.7c-1.5-2.3-4.7-2.9-6.9-1.3c-2.3,1.5-2.9,4.7-1.3,6.9l24.4,36.1H1540c-2.8,0-5,2.2-5,5
					s2.2,5,5,5h17.1c3.5,0,6.7-1.9,8.3-5c1.6-3.1,1.4-6.8-0.5-9.7L1539.8,2151.7z M1556.6,2194.4L1556.6,2194.4L1556.6,2194.4z"/>
			</g>
		</g>
		<g>
			<path class="st3" d="M1319,2312c-23,0-54.5,35.6-51.7,57.2l40.5,378.5c2.4,18.1,18.7,31.7,38,31.7H1583c19.3,0,35.6-13.6,38-31.7
				l33.2-320.7l-28.2-115H1319z"/>
			<path class="st0" d="M1654.7,2422.1c-2.8-0.3-5.2,1.7-5.5,4.5l-33.2,320.6c-2.1,15.6-16.2,27.3-33,27.3h-237.3
				c-16.8,0-30.9-11.7-33-27.3l-40.5-378.5c0,0,0-0.1,0-0.1c-1.1-8.3,4.5-20.8,14.3-32c10.4-11.9,23.1-19.5,32.4-19.5H1626
				c2.8,0,5-2.2,5-5s-2.2-5-5-5H1319c-12.4,0-27.3,8.6-39.9,22.9c-11.9,13.6-18.2,28.5-16.8,39.8l40.5,378.5c0,0,0,0.1,0,0.1
				c2.7,20.6,21.1,36.1,42.9,36.1H1583c21.8,0,40.2-15.5,42.9-36.1c0,0,0-0.1,0-0.1l33.2-320.7
				C1659.5,2424.8,1657.5,2422.4,1654.7,2422.1z"/>
		</g>
		<g>
			<path class="st3" d="M1793.4,2478c-11.1,2.7-33,8.8-43.3,17.5c-13.7,11.6-21.1,33.8-21.1,33.8l58.4,7l19.3-42.2
				c2-4.3,1.1-9.3-2.1-12.8C1801.7,2478.3,1797.5,2477,1793.4,2478z"/>
			<path class="st0" d="M1792.2,2473.2c-12.2,2.9-34.4,9.3-45.4,18.6c-14.6,12.4-22.3,35-22.6,36c-0.5,1.4-0.3,3,0.5,4.3
				s2.1,2.1,3.6,2.3l58.4,7c0.2,0,0.4,0,0.6,0c1.9,0,3.7-1.1,4.5-2.9l19.3-42.2c2.8-6.2,1.6-13.3-3-18.3
				C1804.2,2473.6,1798,2471.8,1792.2,2473.2z M1802.1,2492.1l-17.8,38.9l-48.4-5.8c3-7,9-18.7,17.3-25.8
				c6.8-5.8,21.9-11.8,41.2-16.5c2.3-0.6,4.7,0.2,6.4,1.9C1802.8,2486.8,1803.2,2489.6,1802.1,2492.1z"/>
		</g>
		<path class="st0" d="M1626,2307H1319c-2.8,0-5,2.2-5,5s2.2,5,5,5H1626c2.8,0,5-2.2,5-5S1628.8,2307,1626,2307z"/>
		<g>
			<rect x="1775.4" y="2096.1" class="st2" width="43.7" height="967.6"/>
			<rect x="1819.1" y="2096.1" class="st1" width="43.7" height="967.6"/>
			<rect x="1862.8" y="2096.1" class="st4" width="43.7" height="967.6"/>
			<path class="st0" d="M1906.5,2091.1h-131.1c-2.8,0-5,2.2-5,5v967.6c0,2.8,2.2,5,5,5h131.1c2.8,0,5-2.2,5-5v-967.6
				C1911.5,2093.4,1909.2,2091.1,1906.5,2091.1z M1901.5,3058.7h-121.1v-957.6h121.1V3058.7z"/>
			<g>
				<polygon class="st3" points="1775.4,2096.1 1906.5,2096.1 1840.9,1969.7 				"/>
				<path class="st0" d="M1845.4,1967.4c-0.9-1.7-2.6-2.7-4.4-2.7s-3.6,1-4.4,2.7l-65.5,126.4c-0.8,1.6-0.7,3.4,0.2,4.9
					c0.9,1.5,2.5,2.4,4.3,2.4h131.1c1.7,0,3.4-0.9,4.3-2.4c0.9-1.5,1-3.3,0.2-4.9L1845.4,1967.4z M1783.6,2091.1l57.3-110.5
					l57.3,110.5H1783.6z"/>
			</g>
			<g>
				<polygon class="st4" points="1812.7,2024 1869.2,2024 1840.9,1969.6 				"/>
				<path class="st0" d="M1845.4,1967.3c-0.9-1.7-2.6-2.7-4.4-2.7s-3.6,1-4.4,2.7l-28.2,54.5c-0.8,1.6-0.7,3.4,0.2,4.9
					c0.9,1.5,2.5,2.4,4.3,2.4h56.5c1.7,0,3.4-0.9,4.3-2.4c0.9-1.5,1-3.3,0.2-4.9L1845.4,1967.3z M1820.9,2019l20-38.6l20,38.6
					H1820.9z"/>
			</g>
		</g>
		<g>
			<path class="st3" d="M1801.8,2500.5l-41.4,10.3l-45.5,11.4l12.7,63.3h77.1c6.4,0,30.2-5.7,34.6-13.7l28.3-57.4
				C1867.5,2502.9,1809.1,2498.7,1801.8,2500.5z"/>
			<path class="st0" d="M1868.2,2506.7c-12.8-10-60.9-12.7-67.6-11l-41.4,10.3c-2.7,0.7-4.3,3.4-3.6,6.1c0.7,2.7,3.4,4.3,6.1,3.6
				l41.4-10.3c2.3-0.6,15.8-0.3,31,1.7c18.2,2.4,25.7,5.7,28,7.4l-27.2,55.1c-2.9,5-23.3,11-30.1,11h-73l-11.9-59.3
				c-0.5-2.7-3.2-4.5-5.9-3.9c-2.7,0.5-4.5,3.2-3.9,5.9l12.7,63.3c0.5,2.3,2.5,4,4.9,4h77.1c6,0,32.9-5.2,39-16.3
				c0-0.1,0.1-0.1,0.1-0.2l28.3-57.4c0.3-0.7,0.5-1.4,0.5-2.2C1872.5,2512.5,1871.8,2509.5,1868.2,2506.7z"/>
		</g>
		<g>
			<path class="st3" d="M1746.5,2528.4c-3.9-17-20.8-27.7-37.9-23.9c-48.1,10.9-138.1,30.2-211.3,39.5c-6.9,0.9-35.6-12.6-75.7-83.8
				c-6.3-11.1-12.1-22.4-17.5-33.3l-33.9-80c-9.5-27.6-39.5-42.2-67.1-32.7c-27.6,9.5-42.2,39.5-32.7,67.1
				c0.9,2.7,23.1,66.5,58.5,129.5c51.8,92.2,108,138.8,167.2,138.8c4.8,0,9.7-0.3,14.6-0.9c78.2-10,171.3-29.9,221.3-41.3
				c17.1-3.9,27.8-20.9,23.9-38L1746.5,2528.4z"/>
			<path class="st0" d="M1751.4,2527.3c-4.5-19.7-24.2-32.1-43.9-27.6c-47.3,10.7-137.6,30.1-210.8,39.4c-4.7,0.3-32.2-13-70.7-81.3
				c-5.8-10.3-11.6-21.4-17.3-33c-1.2-2.5-4.2-3.5-6.7-2.3c-2.5,1.2-3.5,4.2-2.3,6.7c5.8,11.8,11.7,23.1,17.6,33.6
				c38.8,68.8,68.2,86.4,79.5,86.4c0.4,0,0.9,0,1.3-0.1c73.6-9.4,164.2-28.8,211.7-39.6c14.3-3.2,28.6,5.8,31.9,20.1l9.4,41.1
				c1.6,7,0.4,14.1-3.4,20.2c-3.8,6-9.7,10.2-16.7,11.8c-48.9,11.1-142.6,31.2-220.8,41.2c-4.6,0.6-9.3,0.9-13.9,0.9
				c-57.2,0-112-45.8-162.8-136.2c-35.2-62.7-57.2-126-58.1-128.7c-4.2-12.1-3.4-25,2.2-36.5c5.6-11.5,15.3-20.1,27.4-24.2
				c24.9-8.6,52.2,4.7,60.7,29.6c0.9,2.6,3.7,4,6.4,3.1c2.6-0.9,4-3.7,3.1-6.4c-10.4-30.1-43.3-46.2-73.5-35.8
				c-14.6,5-26.3,15.4-33.1,29.3c-6.8,13.9-7.7,29.6-2.7,44.1c0.9,2.7,23.2,66.9,58.9,130.3c52.7,93.8,110.4,141.3,171.5,141.3
				c5,0,10.2-0.3,15.2-1c78.7-10,172.7-30.2,221.8-41.4c9.6-2.2,17.7-7.9,22.9-16.2c5.2-8.3,6.9-18.2,4.7-27.7L1751.4,2527.3z"/>
		</g>
	</g>
</g>
</svg>
