<?xml version="1.0" encoding="utf-8"?>
<!-- Generator: Adobe Illustrator 24.1.3, SVG Export Plug-In . SVG Version: 6.00 Build 0)  -->
<svg version="1.1" id="Layer_1" xmlns="http://www.w3.org/2000/svg" xmlns:xlink="http://www.w3.org/1999/xlink" x="0px" y="0px"
	 viewBox="0 0 6000 5000" style="enable-background:new 0 0 6000 5000;" xml:space="preserve">
<style type="text/css">
	.st0{fill:#6EBDFF;}
	.st1{fill:#0868AF;}
	.st2{fill:#C5EDF9;}
	.st3{fill:#A2DFFF;}
	.st4{fill:#FFFFFF;}
	.st5{fill:#E0F4FC;}
</style>
<g>
	<g>
		<g>
			<path class="st0" d="M4334.5,3830.3c-9.6,6.6-5.7,24.2,5.3,24.2h145c8.7,0,15.7-8.5,15.7-19v-47.9h-68.5L4334.5,3830.3z"/>
			<path class="st1" d="M4500.6,3782.5h-68.5c-0.7,0-1.4,0.1-2,0.4l-97.6,42.8c-0.3,0.1-0.6,0.3-0.8,0.5c-6.5,4.4-9.2,13.3-6.6,21.5
				c2.3,7.3,7.9,11.8,14.8,11.8h145c11.4,0,20.7-10.8,20.7-24v-47.9C4505.6,3784.8,4503.4,3782.5,4500.6,3782.5z M4495.6,3835.5
				c0,7.7-4.8,14-10.7,14h-145c-3.5,0-4.9-3.7-5.2-4.8c-1-3.2-0.6-7.6,2.4-10l96.1-42.1h62.4V3835.5z"/>
		</g>
		<g>
			<polygon class="st2" points="4597.8,3787.5 4683.7,3787.5 4683.7,3186.3 4556.1,3186.3 			"/>
			<path class="st1" d="M4683.7,3181.3h-127.6c-1.4,0-2.7,0.6-3.7,1.6c-0.9,1-1.4,2.4-1.3,3.8l41.7,601.3c0.2,2.6,2.4,4.7,5,4.7
				h85.9c2.8,0,5-2.2,5-5v-601.3C4688.7,3183.5,4686.4,3181.3,4683.7,3181.3z M4678.7,3782.5h-76.2l-41.1-591.3h117.3V3782.5z"/>
		</g>
		<g>
			<g>
				<polygon class="st3" points="4395.3,3787.5 4500.6,3787.5 4542.3,3186.3 4414.7,3186.3 				"/>
				<path class="st1" d="M4542.3,3181.3h-127.6c-2.7,0-4.9,2.1-5,4.8l-19.4,601.3c0,1.4,0.5,2.7,1.4,3.6c0.9,1,2.2,1.5,3.6,1.5
					h105.3c2.6,0,4.8-2,5-4.7l41.7-601.3c0.1-1.4-0.4-2.7-1.3-3.8C4545.1,3181.8,4543.7,3181.3,4542.3,3181.3z M4495.9,3782.5h-95.5
					l19.1-591.3H4537L4495.9,3782.5z"/>
			</g>
		</g>
		<g>
			<polygon class="st3" points="4504.8,3260 4561.2,3260 4578.5,3787.5 4683.7,3787.5 4683.7,3186.3 4414.7,3186.3 			"/>
			<path class="st1" d="M4683.7,3181.3h-269c-2.8,0-5,2.2-5,5s2.2,5,5,5h264v591.3h-95.3l-17.2-522.7c-0.1-2.7-2.3-4.8-5-4.8h-56.3
				c-2.8,0-5,2.2-5,5s2.2,5,5,5h51.5l17.2,522.7c0.1,2.7,2.3,4.8,5,4.8h105.2c2.8,0,5-2.2,5-5v-601.3
				C4688.7,3183.5,4686.4,3181.3,4683.7,3181.3z"/>
		</g>
		<g>
			<path class="st0" d="M4523.2,3830.3c-9.2,6.6-5.5,24.2,5.1,24.2h140.1c8.4,0,15.2-8.5,15.2-19v-47.9h-66.2L4523.2,3830.3z"/>
			<path class="st1" d="M4683.7,3782.5h-66.2c-0.7,0-1.4,0.2-2.1,0.4l-94.3,42.8c-0.3,0.1-0.6,0.3-0.8,0.5c-6.4,4.5-9,13.5-6.3,21.7
				c2.3,7.1,7.8,11.5,14.4,11.5h140.1c11.1,0,20.2-10.8,20.2-24v-47.9C4688.7,3784.8,4686.4,3782.5,4683.7,3782.5z M4678.7,3835.5
				c0,7.6-4.7,14-10.2,14h-140.1c-3.1,0-4.5-3.5-4.8-4.6c-1.1-3.4-0.6-7.9,2.3-10.3l92.8-42.1h60.1V3835.5z"/>
		</g>
	</g>
	<g>
		<g>
			<path class="st0" d="M4602.9,2431.4h-120.1c-21.4,0-38.8,17.4-38.8,38.8V2591h197.7v-120.8
				C4641.7,2448.8,4624.3,2431.4,4602.9,2431.4z"/>
			<path class="st1" d="M4602.9,2426.4h-120.1c-24.2,0-43.8,19.6-43.8,43.8V2591c0,2.8,2.2,5,5,5h197.7c2.8,0,5-2.2,5-5v-120.8
				C4646.7,2446.1,4627,2426.4,4602.9,2426.4z M4636.7,2586H4449v-115.8c0-18.6,15.2-33.8,33.8-33.8h120.1
				c18.6,0,33.8,15.2,33.8,33.8V2586z"/>
		</g>
		<g>
			<path class="st4" d="M4582.6,2702.8v-50.9H4543h-39.6v50.9c0,20.7-19.9,37.5-44.5,37.5h84.1h84.1
				C4602.5,2740.3,4582.6,2723.5,4582.6,2702.8z"/>
			<path class="st1" d="M4627.1,2735.3c-21.8,0-39.5-14.6-39.5-32.5v-50.9c0-2.8-2.2-5-5-5h-79.3c-2.8,0-5,2.2-5,5v50.9
				c0,17.9-17.7,32.5-39.5,32.5c-2.8,0-5,2.2-5,5s2.2,5,5,5h168.3c2.8,0,5-2.2,5-5S4629.9,2735.3,4627.1,2735.3z M4490.7,2735.3
				c10.8-7.8,17.6-19.5,17.6-32.5v-45.9h69.3v45.9c0,13,6.9,24.7,17.6,32.5H4490.7z"/>
		</g>
		<g>
			<path class="st2" d="M4626.1,2722.1h-166.3c-42.1,0-76.2,34.1-76.2,76.2v388h155.9h162.8v-388
				C4702.3,2756.2,4668.2,2722.1,4626.1,2722.1z"/>
			<path class="st1" d="M4626.1,2717.1h-166.3c-44.8,0-81.2,36.4-81.2,81.2v388c0,2.8,2.2,5,5,5h318.7c2.8,0,5-2.2,5-5v-388
				C4707.3,2753.5,4670.9,2717.1,4626.1,2717.1z M4697.3,3181.3h-308.7v-383c0-39.3,32-71.2,71.2-71.2h166.3
				c39.3,0,71.2,32,71.2,71.2V3181.3z"/>
		</g>
		<g>
			<path class="st2" d="M4282.9,3025.2c-14.4,34.6-0.6,73.3,30.8,86.4l0,0c31.4,13.1,68.6-4.3,83-38.9l-6.9-304.2L4282.9,3025.2z"/>
			<path class="st1" d="M4398.7,3068c-2.5-1.1-5.5,0.1-6.5,2.7c-6.5,15.6-18.1,27.9-32.6,34.7c-14.4,6.7-30,7.3-43.9,1.5
				c-13.9-5.8-24.5-17.2-29.8-32.2c-5.4-15.1-4.8-32.1,1.7-47.6l107-256.7c1.1-2.5-0.1-5.5-2.7-6.5c-2.5-1.1-5.5,0.1-6.5,2.7
				l-107,256.7c-7.5,17.9-8.1,37.4-1.9,54.9c6.3,17.7,18.9,31.2,35.4,38.1c7.6,3.2,15.7,4.8,23.8,4.8c9.5,0,19-2.1,28.1-6.4
				c16.8-7.9,30.2-22.1,37.6-40C4402.5,3072,4401.3,3069.1,4398.7,3068z"/>
		</g>
		<g>
			<g>
				
					<rect x="4437.5" y="2826.4" transform="matrix(0.9647 -0.2633 0.2633 0.9647 -604.9393 1272.4204)" class="st0" width="14.2" height="133.4"/>
				<path class="st1" d="M4438.6,2825.5c-0.7-2.7-3.5-4.2-6.1-3.5l-13.7,3.7c-1.3,0.3-2.4,1.2-3,2.3c-0.7,1.2-0.8,2.5-0.5,3.8
					l35.1,128.7c0.3,1.3,1.2,2.4,2.3,3c0.8,0.4,1.6,0.7,2.5,0.7c0.4,0,0.9-0.1,1.3-0.2l13.7-3.7c2.7-0.7,4.2-3.5,3.5-6.1
					L4438.6,2825.5z M4458.8,2953.1l-32.5-119l4-1.1l32.5,119L4458.8,2953.1z"/>
			</g>
			<g>
				<path class="st4" d="M4472.6,2912.3h-40.9c-6.7,0-13.1,2.9-17.5,8.1l-9.7,11.3l-38.8,46.9l55.6,22.8l11.7-15h50.6l-1.6-67.8
					L4472.6,2912.3z"/>
				<path class="st1" d="M4484.7,2914.4l-9.3-6.3c-0.8-0.6-1.8-0.9-2.8-0.9h-40.9c-8.2,0-16,3.6-21.3,9.8l-9.8,11.4l-38.8,46.9
					c-1.8,2.1-1.5,5.3,0.7,7c2.1,1.8,5.3,1.5,7-0.7l38.8-46.9l9.7-11.3c3.4-4,8.4-6.3,13.7-6.3h39.4l5.9,4l1.5,60.1h-45.4
					c-1.5,0-3,0.7-3.9,1.9l-11.7,15c-1.7,2.2-1.3,5.3,0.9,7c0.9,0.7,2,1.1,3.1,1.1c1.5,0,3-0.7,3.9-1.9l10.2-13.1h48.1
					c1.3,0,2.6-0.5,3.6-1.5c0.9-1,1.5-2.3,1.4-3.6l-1.6-67.8C4486.8,2916.8,4486,2915.3,4484.7,2914.4z"/>
			</g>
			<g>
				<g>
					<path class="st4" d="M4488.5,2912.3h-38l21.7,18.5h16.3c5.1,0,9.3-4.1,9.3-9.3C4497.8,2916.4,4493.6,2912.3,4488.5,2912.3z"/>
					<path class="st1" d="M4488.5,2907.3h-38c-2.8,0-5,2.2-5,5s2.2,5,5,5h38c2.4,0,4.3,1.9,4.3,4.3s-1.9,4.3-4.3,4.3h-16.3
						c-2.8,0-5,2.2-5,5s2.2,5,5,5h16.3c7.9,0,14.3-6.4,14.3-14.3S4496.4,2907.3,4488.5,2907.3z"/>
				</g>
				<g>
					<path class="st4" d="M4488.5,2949.3h-29.6v18.5h29.6c5.1,0,9.3-4.1,9.3-9.3l0,0C4497.8,2953.5,4493.6,2949.3,4488.5,2949.3z"/>
					<path class="st1" d="M4488.5,2944.3h-29.6c-2.8,0-5,2.2-5,5s2.2,5,5,5h29.6c2.4,0,4.3,1.9,4.3,4.3s-1.9,4.3-4.3,4.3h-29.6
						c-2.8,0-5,2.2-5,5s2.2,5,5,5h29.6c7.9,0,14.3-6.4,14.3-14.3S4496.4,2944.3,4488.5,2944.3z"/>
				</g>
				<g>
					<path class="st4" d="M4483.5,2967.8h-24.6l-25.9,18.5h50.6c5.1,0,9.3-4.1,9.3-9.3S4488.6,2967.8,4483.5,2967.8z"/>
					<path class="st1" d="M4483.5,2962.8h-24.6c-2.8,0-5,2.2-5,5s2.2,5,5,5h24.6c2.4,0,4.3,1.9,4.3,4.3s-1.9,4.3-4.3,4.3h-50.6
						c-2.8,0-5,2.2-5,5s2.2,5,5,5h50.6c7.9,0,14.3-6.4,14.3-14.3S4491.4,2962.8,4483.5,2962.8z"/>
				</g>
				<g>
					<path class="st4" d="M4493.1,2930.8h-34.3v18.5h34.3c4.3,0,7.8-4.1,7.8-9.3S4497.5,2930.8,4493.1,2930.8z"/>
					<path class="st1" d="M4493.1,2925.8h-34.3c-2.8,0-5,2.2-5,5s2.2,5,5,5h34.3c1.3,0,2.8,1.8,2.8,4.3c0,2.5-1.5,4.3-2.8,4.3h-34.3
						c-2.8,0-5,2.2-5,5s2.2,5,5,5h34.3c7.1,0,12.8-6.4,12.8-14.3C4506,2932.2,4500.2,2925.8,4493.1,2925.8z"/>
				</g>
			</g>
		</g>
		<g>
			<path class="st4" d="M4643.3,2882.5c-16-15.1-33-23.3-33-23.3l-3,55.6l58.5,41.9l3.7-25.2
				C4669.6,2931.4,4664.8,2902.9,4643.3,2882.5z"/>
			<path class="st1" d="M4646.8,2878.9c-16.3-15.5-33.5-23.9-34.2-24.2c-1.5-0.7-3.3-0.7-4.7,0.2c-1.4,0.9-2.4,2.4-2.4,4l-3,55.6
				c-0.1,1.7,0.7,3.3,2.1,4.3l58.5,41.9c0.9,0.6,1.9,0.9,2.9,0.9c0.7,0,1.3-0.1,2-0.4c1.6-0.7,2.7-2.1,3-3.9l3.7-25.2
				c0.1-0.5,0.1-1,0-1.6C4674.4,2929.4,4669.2,2900.2,4646.8,2878.9z M4662.2,2947.8l-49.7-35.5l2.4-44.9c6.2,3.7,15.8,10.1,25,18.7
				c18.1,17.2,23.8,41,24.7,45.4L4662.2,2947.8z"/>
		</g>
		<g>
			<path class="st2" d="M4695.7,2768.5l-6.9,304.2c14.4,34.6,51.6,52,83,38.9l0,0c31.4-13.1,45.2-51.8,30.8-86.4L4695.7,2768.5z"/>
			<path class="st1" d="M4700.3,2766.6c-1.1-2.5-4-3.8-6.5-2.7c-2.5,1.1-3.8,4-2.7,6.5l107,256.7c6.5,15.6,7.1,32.5,1.7,47.6
				c-5.3,15-15.9,26.4-29.8,32.2c-13.9,5.8-29.5,5.3-43.9-1.5c-14.6-6.8-26.1-19.2-32.6-34.7c-1.1-2.5-4-3.8-6.5-2.7
				c-2.5,1.1-3.8,4-2.7,6.5c7.5,17.9,20.8,32.1,37.6,40c9.1,4.3,18.7,6.4,28.1,6.4c8.1,0,16.2-1.6,23.8-4.8
				c33.9-14.1,49-55.8,33.5-92.9L4700.3,2766.6z"/>
		</g>
		<g>
			<rect x="4471.4" y="2779.9" class="st4" width="172.3" height="266.8"/>
			<path class="st1" d="M4643.7,2774.9h-172.3c-2.8,0-5,2.2-5,5v266.8c0,2.8,2.2,5,5,5h172.3c2.8,0,5-2.2,5-5v-266.8
				C4648.7,2777.1,4646.5,2774.9,4643.7,2774.9z M4638.7,3041.7h-162.3v-256.8h162.3V3041.7z"/>
		</g>
		<g>
			<path class="st4" d="M4622.1,2891.4h-40.9l-9.3,6.3l4.8,66.3l70,4.8l2.5-58.1l-9.7-11.3
				C4635.2,2894.4,4628.8,2891.4,4622.1,2891.4z"/>
			<path class="st1" d="M4643.4,2896.2c-5.3-6.2-13.1-9.8-21.3-9.8h-40.9c-1,0-2,0.3-2.8,0.9l-9.3,6.3c-1.5,1-2.3,2.7-2.2,4.5
				l4.8,66.3c0.2,2.5,2.2,4.5,4.6,4.6l70,4.8c0.1,0,0.2,0,0.3,0c2.6,0,4.8-2,5-4.7c0.2-2.8-1.9-5.1-4.6-5.3l-65.7-4.5l-4.3-59.1
				l5.6-3.8h39.4c5.3,0,10.3,2.3,13.7,6.3l9.7,11.3c1.8,2.1,5,2.3,7,0.5c2.1-1.8,2.3-5,0.5-7.1L4643.4,2896.2z"/>
		</g>
		<g>
			<g>
				<path class="st4" d="M4512.3,2900.7c0,5.1,4.1,9.3,9.3,9.3h60l21.7-18.5h-81.7C4516.4,2891.4,4512.3,2895.6,4512.3,2900.7z"/>
				<path class="st1" d="M4603.2,2886.4h-81.7c-7.9,0-14.3,6.4-14.3,14.3s6.4,14.3,14.3,14.3h60c2.8,0,5-2.2,5-5s-2.2-5-5-5h-60
					c-2.4,0-4.3-1.9-4.3-4.3s1.9-4.3,4.3-4.3h81.7c2.8,0,5-2.2,5-5S4606,2886.4,4603.2,2886.4z"/>
			</g>
			<g>
				<path class="st4" d="M4512.3,2937.7L4512.3,2937.7c0,5.1,4.1,9.3,9.3,9.3h73.4v-18.5h-73.4
					C4516.4,2928.5,4512.3,2932.6,4512.3,2937.7z"/>
				<path class="st1" d="M4521.5,2933.5h73.4c2.8,0,5-2.2,5-5s-2.2-5-5-5h-73.4c-7.9,0-14.3,6.4-14.3,14.3s6.4,14.3,14.3,14.3h73.4
					c2.8,0,5-2.2,5-5s-2.2-5-5-5h-73.4c-2.4,0-4.3-1.9-4.3-4.3S4519.2,2933.5,4521.5,2933.5z"/>
			</g>
			<g>
				<path class="st4" d="M4547.4,2947c-5.1,0-9.3,4.1-9.3,9.3s4.1,9.3,9.3,9.3h73.4l-25.9-18.5H4547.4z"/>
				<path class="st1" d="M4620.8,2960.5h-73.4c-2.4,0-4.3-1.9-4.3-4.3s1.9-4.3,4.3-4.3h47.5c2.8,0,5-2.2,5-5s-2.2-5-5-5h-47.5
					c-7.9,0-14.3,6.4-14.3,14.3s6.4,14.3,14.3,14.3h73.4c2.8,0,5-2.2,5-5S4623.6,2960.5,4620.8,2960.5z"/>
			</g>
			<g>
				<path class="st4" d="M4501.3,2919.2c0,5.1,4.1,9.3,9.3,9.3h84.3v-18.5h-84.3C4505.5,2909.9,4501.3,2914.1,4501.3,2919.2z"/>
				<path class="st1" d="M4510.6,2914.9h84.3c2.8,0,5-2.2,5-5s-2.2-5-5-5h-84.3c-7.9,0-14.3,6.4-14.3,14.3s6.4,14.3,14.3,14.3h84.3
					c2.8,0,5-2.2,5-5s-2.2-5-5-5h-84.3c-2.4,0-4.3-1.9-4.3-4.3S4508.2,2914.9,4510.6,2914.9z"/>
			</g>
		</g>
		<g>
			
				<rect x="4642.1" y="2930" transform="matrix(0.7925 -0.6099 0.6099 0.7925 -859.285 3478.9397)" class="st2" width="80.9" height="144.2"/>
			<path class="st1" d="M4674.5,2917.3c-0.8-1.1-2-1.7-3.3-1.9c-1.3-0.2-2.6,0.2-3.7,1l-64.1,49.3c-2.2,1.7-2.6,4.8-0.9,7l88,114.3
				c1,1.3,2.5,2,4,2c1.1,0,2.1-0.3,3-1c2.2-1.7,2.6-4.8,0.9-7l-84.9-110.3l56.2-43.2l84.9,110.3c1.7,2.2,4.8,2.6,7,0.9
				c2.2-1.7,2.6-4.8,0.9-7L4674.5,2917.3z"/>
		</g>
		<g>
			<polygon class="st2" points="4327.1,3034.6 4391.2,3084 4444.8,2998.2 4380.7,2948.9 			"/>
			<path class="st1" d="M4447.8,2994.3l-64.1-49.3c-1.1-0.9-2.5-1.2-3.9-1c-1.4,0.2-2.6,1.1-3.4,2.3l-53.6,85.7
				c-1.5,2.3-0.8,5.4,1.6,6.9c2.3,1.5,5.4,0.7,6.9-1.6l50.6-81.1l56.1,43.2l-51.2,81.9c-1.5,2.3-0.8,5.4,1.6,6.9
				c0.8,0.5,1.7,0.8,2.6,0.8c1.7,0,3.3-0.8,4.2-2.4l53.6-85.7C4450.4,2998.7,4449.8,2995.8,4447.8,2994.3z"/>
		</g>
		<g>
			<g>
				<path class="st4" d="M4632.4,2541.2h-25c-1.1,0-1.9,0.9-1.9,2l-4.9,62.3c0,1.1,0.9,2,1.9,2h25c10,0,16.5-7.8,18-18.6l4.9-29.2
					C4651.9,2549.3,4642.4,2541.2,4632.4,2541.2z"/>
				<path class="st1" d="M4632.4,2536.2h-25c-3.7,0-6.8,3-6.9,6.8l-4.8,62.2c0,0.1,0,0.3,0,0.4c0,3.9,3.1,7,6.9,7h25
					c11.9,0,20.9-9,23-22.8l4.8-29.1c0-0.1,0-0.1,0-0.2c0.8-5.9-1-11.6-5-16.1C4646,2539.2,4639.3,2536.2,4632.4,2536.2z
					 M4645.5,2559.1l-4.8,29.1c0,0,0,0.1,0,0.1c-0.5,3.4-2.9,14.3-13.1,14.3h-21.6l4.4-56.3h22.1c3.9,0,8,1.8,10.5,4.7
					C4644.4,2552.6,4646,2555.3,4645.5,2559.1z"/>
			</g>
			<g>
				<path class="st4" d="M4478.2,2541.2h-25c-10,0-19.4,8.1-18,18.6l4.9,29.2c1.6,10.8,8.1,18.6,18,18.6h25c1.1,0,1.9-0.9,1.9-2
					l-4.9-62.3C4480.1,2542.1,4479.2,2541.2,4478.2,2541.2z"/>
				<path class="st1" d="M4485.1,2543c-0.1-3.7-3.2-6.8-6.9-6.8h-25c-6.8,0-13.6,3-18,8.1c-4,4.6-5.8,10.3-5,16.1c0,0.1,0,0.1,0,0.2
					l4.8,29.1c2,13.9,11,22.8,23,22.8h25c3.8,0,6.9-3.1,6.9-7c0-0.1,0-0.3,0-0.4L4485.1,2543z M4458.1,2602.5
					c-10.2,0-12.6-11-13.1-14.3c0,0,0-0.1,0-0.1l-4.8-29.1c-0.5-3.8,1.1-6.5,2.6-8.2c2.5-2.9,6.5-4.7,10.5-4.7h22.1l4.4,56.3H4458.1
					z"/>
			</g>
		</g>
		<g>
			<path class="st4" d="M4587.8,2470.6h-33.6h-56.3c-21.1,0-38.2,17.1-38.2,38.2l0,0v86.9c0,50.8,36.7,96.8,81.5,96.8h3.3
				c44.8,0,81.5-46,81.5-96.8v-86.9C4626,2487.7,4608.9,2470.6,4587.8,2470.6z"/>
			<path class="st1" d="M4587.8,2465.6h-89.9c-23.8,0-43.2,19.4-43.2,43.2v86.9c0,25.6,9.1,51.3,25.1,70.6
				c16.6,20.1,38.5,31.2,61.4,31.2h3.3c23,0,44.8-11.1,61.4-31.2c15.9-19.3,25.1-45,25.1-70.6v-86.9
				C4631,2485,4611.6,2465.6,4587.8,2465.6z M4621,2595.7c0,23.3-8.3,46.7-22.8,64.2c-14.7,17.8-33.8,27.5-53.7,27.5h-3.3
				c-19.9,0-39-9.8-53.7-27.5c-14.5-17.5-22.8-40.9-22.8-64.2v-86.9c0-18.3,14.9-33.2,33.2-33.2h89.9c18.3,0,33.2,14.9,33.2,33.2
				V2595.7z"/>
		</g>
		<g>
			<path class="st0" d="M4494.2,2419.3c-21.4,0-50.5,19.2-50.2,51v39l15.7-0.4c0-14.6,20.6-38.2,50.1-38.2h44.5
				c43,0,39.1-51.4,39.1-51.4H4494.2z"/>
			<path class="st1" d="M4593.3,2414.3h-99.1c-13.6,0-28.6,6.7-39.3,17.4c-7.3,7.4-16,20.1-15.9,38.5v39c0,2.8,2.2,5,5,5s5-2.2,5-5
				v-39c-0.1-15.1,7-25.4,13-31.4c8.7-8.8,21.4-14.5,32.2-14.5h94.2c-0.2,7.5-1.7,22.5-10.7,32.2c-5.6,6.1-13.5,9.1-23.4,9.1h-44.5
				c-14.4,0-28.4,5.3-39.4,14.9c-9.7,8.5-15.7,19.3-15.7,28.4c0,2.8,2.2,5,5,5s5-2.2,5-5c0-11.4,17.6-33.2,45.1-33.2h44.5
				c12.8,0,23.2-4.2,30.8-12.3c15.2-16.5,13.4-43.3,13.3-44.4C4598.1,2416.3,4596,2414.3,4593.3,2414.3z"/>
		</g>
		<g>
			<path class="st1" d="M4625.9,2764.6c-2.8,0-5,2.2-5,5v18.9c0,2.8,2.2,5,5,5s5-2.2,5-5v-18.9
				C4630.9,2766.9,4628.7,2764.6,4625.9,2764.6z"/>
			<path class="st1" d="M4603.2,2764.6c-2.8,0-5,2.2-5,5v18.9c0,2.8,2.2,5,5,5s5-2.2,5-5v-18.9
				C4608.2,2766.9,4605.9,2764.6,4603.2,2764.6z"/>
			<path class="st1" d="M4580.4,2764.6c-2.8,0-5,2.2-5,5v18.9c0,2.8,2.2,5,5,5s5-2.2,5-5v-18.9
				C4585.4,2766.9,4583.1,2764.6,4580.4,2764.6z"/>
			<path class="st1" d="M4557.6,2764.6c-2.8,0-5,2.2-5,5v18.9c0,2.8,2.2,5,5,5s5-2.2,5-5v-18.9
				C4562.6,2766.9,4560.3,2764.6,4557.6,2764.6z"/>
			<path class="st1" d="M4534.8,2764.6c-2.8,0-5,2.2-5,5v18.9c0,2.8,2.2,5,5,5s5-2.2,5-5v-18.9
				C4539.8,2766.9,4537.5,2764.6,4534.8,2764.6z"/>
			<path class="st1" d="M4512,2764.6c-2.8,0-5,2.2-5,5v18.9c0,2.8,2.2,5,5,5s5-2.2,5-5v-18.9C4517,2766.9,4514.8,2764.6,4512,2764.6
				z"/>
			<path class="st1" d="M4489.2,2764.6c-2.8,0-5,2.2-5,5v18.9c0,2.8,2.2,5,5,5s5-2.2,5-5v-18.9
				C4494.2,2766.9,4492,2764.6,4489.2,2764.6z"/>
		</g>
	</g>
</g>
<g>
	<path class="st3" d="M3514.2,967.4H1886c-126.1,0-229.4,103.2-229.4,229.4v76.5h1173.1v-76.5c0-126.1,694.9-229.4,821-229.4h-107.3
		H3514.2z"/>
	<path class="st1" d="M3650.8,962.4H1886c-62.3,0-121.1,24.4-165.5,68.8c-44.4,44.4-68.8,103.2-68.8,165.5v76.5c0,2.8,2.2,5,5,5
		h1173.1c2.8,0,5-2.2,5-5v-76.5c0-26.5,37.2-55.7,107.4-84.4c61.1-25,145.9-49.4,251.8-72.7c189.9-41.7,394-67.3,456.8-67.3
		c2.8,0,5-2.2,5-5C3655.8,964.6,3653.6,962.4,3650.8,962.4z M3191.9,1029.8c-106.5,23.4-191.8,48-253.5,73.2
		c-35.4,14.5-62.9,29.2-81.6,43.7c-21.3,16.5-32,33.3-32,50v71.5H1661.7v-71.5c0-59.7,23.4-115.9,65.9-158.4
		c42.5-42.5,98.8-65.9,158.4-65.9h1644.8C3438.3,983.5,3312.2,1003.4,3191.9,1029.8z"/>
</g>
<g>
	<path class="st5" d="M4031.4,3636.8l-0.4-3.7V1196.7c0-125.9-102-228.7-227.9-228.7H1886c22.8,0,44.9,3.2,65.8,9.5
		c95.5,28.5,159.9,116.3,162.2,215.9l-1,3.4v2436.4c0,125.9,104.8,229.9,230.7,229.9h1917.1c-22.8,0-44.9-3.8-65.8-10.1
		C4099.5,3824.4,4033.7,3736.4,4031.4,3636.8z"/>
	<path class="st1" d="M4260.8,3858c-20.8,0-42.4-3.3-64.4-9.9c-45.7-13.6-85.2-41.2-114.2-79.6c-28.9-38.3-44.7-83.9-45.8-131.9
		c0-0.2,0-0.3,0-0.5l-0.4-3.4V1196.7c0-128.9-104.5-233.7-232.9-233.7H1886c-2.8,0-5,2.2-5,5s2.2,5,5,5c22.1,0,43.7,3.1,64.4,9.3
		c92.4,27.6,156,112.1,158.6,210.4l-0.8,2.6c-0.1,0.5-0.2,0.9-0.2,1.4v2436.4c0,62.2,24.7,121,69.6,165.7
		c44.8,44.6,103.8,69.2,166.1,69.2h1917.1c2.8,0,5-2.2,5-5S4263.5,3858,4260.8,3858z M2343.7,3858c-59.6,0-116.1-23.5-159-66.3
		c-43-42.8-66.7-99.1-66.7-158.6V1197.4l0.8-2.7c0.1-0.5,0.2-1,0.2-1.5c-2.3-102.7-68.5-191-164.7-220.2h1848.8
		c122.9,0,222.9,100.4,222.9,223.7v2436.4c0,0.2,0,0.4,0,0.6l0.4,3.4c1.2,50,17.7,97.5,47.8,137.4c30.3,40.2,71.6,68.9,119.3,83.2
		c0.3,0.1,0.6,0.2,0.9,0.3H2343.7z"/>
</g>
<g>
	<path class="st4" d="M2571,3633.1c0,126.1-101.1,230.9-227.3,230.9h1917.1c126.1,0,227.2-104.7,227.2-230.9V3558H2571V3633.1z"/>
	<path class="st1" d="M4488,3553H2571c-2.8,0-5,2.2-5,5v75.1c0,124.6-99.7,225.9-222.3,225.9c-2.8,0-5,2.2-5,5s2.2,5,5,5h1917.1
		c128,0,232.2-105.8,232.2-235.9V3558C4493,3555.2,4490.8,3553,4488,3553z M4483,3633.1c0,124.6-99.7,225.9-222.2,225.9H2410.7
		c95.5-29.3,165.3-119.5,165.3-225.9V3563h1907V3633.1z"/>
</g>
<g>
	<polygon class="st3" points="1614,2943 2003,3863 2049.1,3863 1660.1,2943 	"/>
	<path class="st1" d="M1664.8,2941.1c-0.8-1.9-2.6-3.1-4.6-3.1H1614c-1.7,0-3.2,0.8-4.2,2.2s-1.1,3.2-0.4,4.7l388.9,920
		c0.8,1.9,2.6,3.1,4.6,3.1h46.1c1.7,0,3.2-0.8,4.2-2.2s1.1-3.2,0.4-4.7L1664.8,2941.1z M2006.3,3858l-384.7-910h35.2l384.7,910
		H2006.3z"/>
</g>
<g>
	<polygon class="st4" points="1222.7,3864 1268.8,3864 1657.8,2944 1611.6,2944 	"/>
	<path class="st1" d="M1657.8,2939h-46.1c-2,0-3.8,1.2-4.6,3.1l-388.9,920c-0.7,1.5-0.5,3.3,0.4,4.7s2.5,2.2,4.2,2.2h46.1
		c2,0,3.8-1.2,4.6-3.1l388.9-920c0.7-1.5,0.5-3.3-0.4-4.7S1659.4,2939,1657.8,2939z M1265.5,3859h-35.2l384.7-910h35.2L1265.5,3859z
		"/>
</g>
<g>
	<path class="st1" d="M1928,2937.1h-271.1c-2.8,0-5,2.2-5,5s2.2,5,5,5H1928c2.8,0,5-2.2,5-5S1930.7,2937.1,1928,2937.1z"/>
	<path class="st1" d="M1984,3068.8H1713c-2.8,0-5,2.2-5,5s2.2,5,5,5H1984c2.8,0,5-2.2,5-5S1986.8,3068.8,1984,3068.8z"/>
	<path class="st1" d="M2208.2,3595.4h-271.1c-2.8,0-5,2.2-5,5s2.2,5,5,5h271.1c2.8,0,5-2.2,5-5S2211,3595.4,2208.2,3595.4z"/>
	<path class="st1" d="M2040.1,3200.4H1769c-2.8,0-5,2.2-5,5s2.2,5,5,5h271.1c2.8,0,5-2.2,5-5S2042.8,3200.4,2040.1,3200.4z"/>
	<path class="st1" d="M2264.2,3727.1h-271.1c-2.8,0-5,2.2-5,5s2.2,5,5,5h271.1c2.8,0,5-2.2,5-5S2267,3727.1,2264.2,3727.1z"/>
	<path class="st1" d="M2096.1,3332.1H1825c-2.8,0-5,2.2-5,5s2.2,5,5,5h271.1c2.8,0,5-2.2,5-5S2098.9,3332.1,2096.1,3332.1z"/>
	<path class="st1" d="M2152.2,3463.8h-271.1c-2.8,0-5,2.2-5,5s2.2,5,5,5h271.1c2.8,0,5-2.2,5-5S2154.9,3463.8,2152.2,3463.8z"/>
</g>
<g>
	<path class="st1" d="M1928,2937.1h-210.1c-2.8,0-5,2.2-5,5s2.2,5,5,5H1928c2.8,0,5-2.2,5-5S1930.7,2937.1,1928,2937.1z"/>
	<path class="st1" d="M1871.9,3068.8h-287.2c-2.8,0-5,2.2-5,5s2.2,5,5,5h287.2c2.8,0,5-2.2,5-5S1874.7,3068.8,1871.9,3068.8z"/>
	<path class="st1" d="M1647.8,3595.4h-287.2c-2.8,0-5,2.2-5,5s2.2,5,5,5h287.2c2.8,0,5-2.2,5-5S1650.5,3595.4,1647.8,3595.4z"/>
	<path class="st1" d="M1815.9,3200.4h-287.2c-2.8,0-5,2.2-5,5s2.2,5,5,5h287.2c2.8,0,5-2.2,5-5S1818.7,3200.4,1815.9,3200.4z"/>
	<path class="st1" d="M1759.9,3332.1h-287.2c-2.8,0-5,2.2-5,5s2.2,5,5,5h287.2c2.8,0,5-2.2,5-5S1762.6,3332.1,1759.9,3332.1z"/>
	<path class="st1" d="M1703.8,3463.8h-287.2c-2.8,0-5,2.2-5,5s2.2,5,5,5h287.2c2.8,0,5-2.2,5-5S1706.6,3463.8,1703.8,3463.8z"/>
</g>
<g>
	<rect x="1574.2" y="2892.5" class="st4" width="484.5" height="49.6"/>
	<path class="st1" d="M2058.8,2887.5h-484.5c-2.8,0-5,2.2-5,5v49.7c0,2.8,2.2,5,5,5h484.5c2.8,0,5-2.2,5-5v-49.7
		C2063.8,2889.7,2061.5,2887.5,2058.8,2887.5z M2053.8,2937.1h-474.5v-39.7h474.5V2937.1z"/>
</g>
<g>
	<polygon class="st3" points="1907.8,2943 2296.8,3863 2342.9,3863 1953.9,2943 	"/>
	<path class="st1" d="M1958.5,2941.1c-0.8-1.9-2.6-3.1-4.6-3.1h-46.1c-1.7,0-3.2,0.8-4.2,2.2s-1.1,3.2-0.4,4.7l388.9,920
		c0.8,1.9,2.6,3.1,4.6,3.1h46.1c1.7,0,3.2-0.8,4.2-2.2s1.1-3.2,0.4-4.7L1958.5,2941.1z M2300.1,3858l-384.7-910h35.2l384.7,910
		H2300.1z"/>
</g>
<g>
	<polygon class="st4" points="1526.4,3864 1572.5,3864 1961.4,2944 1915.3,2944 	"/>
	<path class="st1" d="M1961.4,2939h-46.1c-2,0-3.8,1.2-4.6,3.1l-388.9,920c-0.7,1.5-0.5,3.3,0.4,4.7s2.5,2.2,4.2,2.2h46.1
		c2,0,3.8-1.2,4.6-3.1l388.9-920c0.7-1.5,0.5-3.3-0.4-4.7S1963.1,2939,1961.4,2939z M1569.2,3859H1534l384.7-910h35.2L1569.2,3859z"
		/>
</g>
<g>
	<g>
		<g>
			<path class="st0" d="M1738.6,2826.7l15.8-38.6h-90.9l-31.3,73.8c-1.3,7.6,3.7,13.7,11.3,13.7h107.7c13.6,0,20.2-16.4,12-25.2
				L1738.6,2826.7z"/>
			<path class="st1" d="M1766.8,2846.8l-22.2-21.4l14.5-35.4c0.6-1.5,0.5-3.3-0.5-4.7c-0.9-1.4-2.5-2.2-4.2-2.2h-90.9
				c-2,0-3.8,1.2-4.6,3l-31.3,73.8c-0.1,0.3-0.3,0.7-0.3,1.1c-0.9,5.1,0.4,10.2,3.5,13.9c3.1,3.7,7.6,5.7,12.8,5.7h107.7
				c8.2,0,15.4-4.7,18.8-12.4c3.2-7.3,2-15.7-3.1-21.2C1766.9,2846.9,1766.9,2846.8,1766.8,2846.8z M1760.9,2864.2
				c-1.8,4-5.4,6.4-9.6,6.4h-107.7c-2.1,0-3.9-0.8-5.1-2.2c-1.1-1.3-1.6-3.2-1.4-5.2l29.8-70.1h80.1l-13,31.7
				c-0.8,1.9-0.3,4.1,1.2,5.5l24.6,23.6C1762.6,2857,1762.2,2861.3,1760.9,2864.2z"/>
		</g>
		<g>
			<path class="st0" d="M1971,2850.4l-28.9-23.7l0.5-38.6H1842v73.8c0,7.6,6.2,13.7,13.7,13.7h107.7
				C1977,2875.6,1980.7,2859.2,1971,2850.4z"/>
			<path class="st1" d="M1974.4,2846.7c-0.1-0.1-0.1-0.1-0.2-0.2l-27-22.2l0.5-36.2c0-1.3-0.5-2.6-1.4-3.6c-0.9-1-2.2-1.5-3.6-1.5
				H1842c-2.8,0-5,2.2-5,5v73.8c0,10.3,8.4,18.7,18.7,18.7h107.7c7.8,0,14.1-4.2,16.7-11.1
				C1983.2,2861.7,1980.8,2852.6,1974.4,2846.7z M1970.8,2865.9c-0.7,1.8-2.6,4.7-7.4,4.7h-107.7c-4.8,0-8.7-3.9-8.7-8.7v-68.8h90.6
				l-0.5,33.5c0,1.5,0.7,3,1.8,3.9l28.8,23.6C1971.6,2857.8,1972.1,2862.6,1970.8,2865.9z"/>
		</g>
		<g>
			<path class="st4" d="M2261.5,1937.7l-65.1,92l32.1,25.7c0,0,51-23.7,77.5-50.2c18.5-18.5-10.2-82.6-21.7-97
				C2269.2,1888.9,2261.5,1937.7,2261.5,1937.7z"/>
			<path class="st1" d="M2274.9,1899c-11.5,3-16.6,27.5-18.2,36.8l-64.4,91.1c-1.5,2.2-1.1,5.1,1,6.8l32.1,25.7
				c0.9,0.7,2,1.1,3.1,1.1c0.7,0,1.4-0.2,2.1-0.5c2.1-1,52.1-24.4,79-51.2c21.6-21.6-9.5-88.7-21.3-103.7
				C2283.2,1898.5,2278.2,1898.1,2274.9,1899z M2302.6,2001.7c-22.1,22.1-62.4,42.6-73.3,47.9l-26-20.8l62.4-88.2
				c0.4-0.6,0.7-1.4,0.9-2.1c0-0.1,1.3-8,3.7-16c3.5-11.2,6.6-13.8,7.3-13.8c0.2,0,1.3,0.4,3,2.6c5.6,7.1,15.3,26.4,21.2,45.4
				C2308.7,1978.9,2309,1995.3,2302.6,2001.7z"/>
		</g>
		<g>
			<path class="st0" d="M2281,1837.7h-234.2l-34.8,170l233.8-4.2l15.1-25l27.1-132.2C2288.9,1841.8,2285.6,1837.7,2281,1837.7z"/>
			<path class="st1" d="M2281,1832.7h-234.2c-2.4,0-4.4,1.7-4.9,4l-34.8,170c-0.3,1.5,0.1,3,1.1,4.2c1,1.1,2.4,1.8,3.8,1.8
				c0,0,0.1,0,0.1,0l233.8-4.2c1.7,0,3.3-0.9,4.2-2.4l15.1-25c0.3-0.5,0.5-1,0.6-1.6l27.1-132.2c0.7-3.6-0.2-7.3-2.5-10.1
				C2288.1,1834.3,2284.7,1832.7,2281,1832.7z M2283.1,1845.2l-26.9,131.4l-13.2,21.9l-224.8,4.1l32.7-159.8H2281
				c0.9,0,1.4,0.5,1.7,0.8C2282.9,1843.7,2283.3,1844.4,2283.1,1845.2z"/>
		</g>
		<g>
			<path class="st3" d="M2026.1,1847.7l-29.3,143.3c-1.8,8.6,4.8,16.6,13.5,16.6h226.1l34.8-170h-232.7
				C2032.4,1837.7,2027.3,1841.9,2026.1,1847.7z"/>
			<path class="st1" d="M2271.1,1832.7h-232.7c-8.3,0-15.6,5.9-17.2,14l-29.3,143.3c-1.1,5.6,0.3,11.3,3.9,15.7
				c3.6,4.4,8.9,6.9,14.6,6.9h226.1c2.4,0,4.4-1.7,4.9-4l34.8-170c0.3-1.5-0.1-3-1-4.2C2274,1833.3,2272.6,1832.7,2271.1,1832.7z
				 M2232.2,2002.6h-222c-2.7,0-5.1-1.2-6.8-3.2c-1.7-2.1-2.3-4.7-1.8-7.3l29.3-143.3c0.7-3.5,3.8-6.1,7.4-6.1H2265L2232.2,2002.6z"
				/>
		</g>
		<polygon class="st0" points="2022.3,1989.4 2220.1,1989.4 2247.8,1854.3 2050,1854.3 		"/>
		<g>
			<g>
				<path class="st4" d="M1795.4,1612.1l-26.4,66.6c0,0,0,125.8,0,136.3l90.9-3.5l-17.5-132.8L1795.4,1612.1z"/>
				<path class="st1" d="M1847.4,1678.1c-0.1-0.8-0.4-1.6-0.9-2.2l-47-66.6c-1.1-1.5-2.9-2.3-4.7-2.1c-1.8,0.2-3.4,1.4-4.1,3.1
					l-26.4,66.6c-0.2,0.6-0.4,1.2-0.4,1.8v136.3c0,1.4,0.6,2.7,1.5,3.6c0.9,0.9,2.2,1.4,3.5,1.4c0.1,0,0.1,0,0.2,0l90.9-3.5
					c1.4-0.1,2.7-0.7,3.6-1.8c0.9-1.1,1.3-2.5,1.1-3.9L1847.4,1678.1z M1774,1809.9v-130.2l22.6-57.1l41,58.1l16.6,126.2
					L1774,1809.9z"/>
			</g>
			<g>
				<path class="st4" d="M1910.1,1635.9l-3.7-37.4c-2.6-25.9-25.2-45.2-51.3-43.6l-75.8,4.6l55.2,163.7l40.8,6.8
					c22.6,3.8,42.7-15,40.4-37.8l-3-30h6.9c3.5,0,5.6-3.9,3.6-6.9L1910.1,1635.9z"/>
				<path class="st1" d="M1914.9,1634.1l-3.6-36.1c-2.9-28.7-27.7-49.9-56.5-48.1l-75.8,4.6c-2.8,0.2-4.9,2.5-4.7,5.3
					c0.2,2.8,2.5,4.8,5.3,4.7l75.8-4.6c23.4-1.4,43.6,15.8,46,39.1l3.7,37.4c0.1,0.8,0.4,1.6,0.8,2.3l12.5,18.5h-5.7
					c-1.4,0-2.8,0.6-3.7,1.6c-0.9,1-1.4,2.4-1.3,3.9l3,30c0.9,9.3-2.5,18.3-9.3,24.7c-6.8,6.4-16.1,9.2-25.3,7.7l-40.8-6.8
					c-2.7-0.5-5.3,1.4-5.8,4.1c-0.5,2.7,1.4,5.3,4.1,5.8l40.8,6.8c2.2,0.4,4.5,0.6,6.7,0.6c10,0,19.6-3.8,27.1-10.8
					c9.1-8.5,13.6-20.6,12.4-33l-2.4-24.5h1.4c3.5,0,6.7-1.9,8.3-5c1.6-3.1,1.4-6.8-0.5-9.7L1914.9,1634.1z"/>
			</g>
			<g>
				<path class="st0" d="M1887.1,1513.4c-50.1,4.3-120.9-36.6-161.1,29.7c-49.1,80.9,43.1,168.5,43.1,168.5c0.6-0.3,49,2,65.8-13.4
					c15.7-14.4,13.7-41.8,16.1-51.8c5.2-21.5,18.5-54.6,31.3-67.1c21.5-20.8,43.7-25.4,41.8-45.4
					C1922.4,1517,1908.2,1511.6,1887.1,1513.4z"/>
				<path class="st1" d="M1886.6,1508.4l0.4,5L1886.6,1508.4c-14,1.2-29.8-1.3-46.5-3.9c-41.4-6.5-88.2-13.9-118.5,36
					c-21,34.7-20,76,3,119.5c17.1,32.4,39.9,54.3,40.9,55.2c1,0.9,2.2,1.4,3.4,1.4c0.2,0,0.4,0,0.6,0c0.2,0,0.4,0,0.7,0
					c0.4,0,0.9,0,1.5,0c33.4,0,55.7-4.9,66.4-14.7c13.3-12.2,15.2-32,16.4-45.1c0.4-3.8,0.7-7.2,1.2-9.2c5.4-22.4,18.7-53.8,30-64.7
					c7.1-6.8,14.3-11.9,20.7-16.4c13-9.1,24.2-17,22.6-33.1C1927.8,1520.5,1919.4,1505.6,1886.6,1508.4z M1771.5,1716
					C1771.5,1716,1771.5,1716,1771.5,1716S1771.5,1716,1771.5,1716z M1771.5,1716C1771.5,1716,1771.5,1716,1771.5,1716
					C1771.5,1716,1771.5,1716,1771.5,1716z M1771.5,1716C1771.5,1716,1771.5,1716,1771.5,1716C1771.5,1716,1771.5,1716,1771.5,1716z
					 M1900.6,1558.3c-6.7,4.7-14.2,10-21.9,17.4c-14.4,14-27.8,49.1-32.7,69.5c-0.7,2.8-1,6.4-1.4,10.6
					c-1.1,12.3-2.7,29.1-13.2,38.7c-6,5.5-21.2,12.1-59.6,12.1c-0.3,0-0.6,0-0.8,0c-5.2-5.3-23.6-24.8-37.5-51.2
					c-21.5-40.8-22.6-77.7-3.3-109.7c26.8-44.2,68.3-37.6,108.4-31.3c17.3,2.7,33.7,5.3,48.9,4h0c12.8-1.1,30-0.6,31.6,16
					C1920,1544.2,1913.7,1549.1,1900.6,1558.3z"/>
			</g>
			<g>
				<path class="st4" d="M1840.4,1646.9c3.1,16.1,13.1,22.9,24.7,22.9l7.2-40.5c-4.6-3.6-10.1-5.9-15.2-5.9
					C1845.5,1623.4,1838.2,1635.5,1840.4,1646.9z"/>
				<path class="st1" d="M1875.4,1625.4c-5.7-4.4-12.3-6.9-18.3-6.9c-6.3,0-12.1,2.8-16.3,7.8c-4.8,5.8-6.8,13.9-5.3,21.6
					c3.2,16.9,14.3,26.9,29.6,26.9c2.8,0,5-2.2,5-5s-2.2-5-5-5c-10.6,0-17.4-6.5-19.8-18.8c-0.9-4.7,0.3-9.9,3.2-13.4
					c1.6-1.9,4.3-4.2,8.6-4.2c3.8,0,8.2,1.8,12.1,4.8c2.2,1.7,5.3,1.3,7-0.9C1877.9,1630.2,1877.5,1627.1,1875.4,1625.4z"/>
			</g>
		</g>
		<g>
			<g>
				<polygon class="st5" points="1695.4,2475.3 1643.9,2812.1 1763.5,2812.1 1802.6,2477.6 1809.1,2292.1 1824,2284.6 1871,2176.3 
					1695.4,2176.3 				"/>
				<path class="st1" d="M1871,2171.3h-175.6c-2.8,0-5,2.2-5,5v298.6l-51.4,336.4c-0.2,1.4,0.2,2.9,1.1,4c1,1.1,2.3,1.7,3.8,1.7
					h119.6c2.5,0,4.7-1.9,5-4.4l39.1-334.4c0-0.1,0-0.3,0-0.4l6.4-182.6l12.2-6.1c2.5-1.2,3.5-4.2,2.2-6.7c-1.2-2.5-4.2-3.5-6.7-2.2
					l-14.9,7.4c-1.6,0.8-2.7,2.5-2.8,4.3l-6.5,185.3l-38.6,329.8h-109.3l50.6-331c0-0.2,0.1-0.5,0.1-0.8v-294H1871c2.8,0,5-2.2,5-5
					S1873.8,2171.3,1871,2171.3z"/>
			</g>
			<g>
				<path class="st5" d="M1780.9,2274.3c21,29.8,61.1,35.8,61.1,35.8l-9.8,501.9h120.3l8.9-635.7H1842L1780.9,2274.3z"/>
				<path class="st1" d="M1961.4,2171.3H1842c-2.8,0-5,2.2-5,5s2.2,5,5,5h114.4l-8.8,625.7h-110.3l9.7-496.8c0-2.5-1.8-4.7-4.3-5
					c-0.4-0.1-38.2-6-57.7-33.8c-1.6-2.3-4.7-2.8-7-1.2c-2.3,1.6-2.8,4.7-1.2,7c18,25.6,48.7,34.6,60.1,37.1l-9.7,497.7
					c0,1.3,0.5,2.6,1.4,3.6s2.2,1.5,3.6,1.5h120.3c2.7,0,5-2.2,5-4.9l8.9-635.7c0-1.3-0.5-2.6-1.4-3.6
					C1964,2171.9,1962.7,2171.3,1961.4,2171.3z"/>
			</g>
		</g>
		<g>
			<path class="st4" d="M1927.7,1783.8h-233c-25,0-44.2,22.1-40.8,46.8l7.7,313.5c2.6,18.4,18.3,32.1,36.9,32.1h262.9l27.4-348.1
				C1990.7,1804.3,1951.7,1783.8,1927.7,1783.8z"/>
			<path class="st1" d="M1927.7,1778.8h-233c-13.4,0-26.1,5.8-34.8,15.9c-8.7,10-12.7,23.2-10.9,36.4l7.7,313.3c0,0.2,0,0.4,0,0.6
				c2.9,20.8,20.9,36.5,41.9,36.5h262.9c2.6,0,4.8-2,5-4.6l27.4-348.1c0.7-8.5-2.8-17.1-10.1-25
				C1970.9,1789.7,1946.2,1778.8,1927.7,1778.8z M1983.9,1827.8l-27.1,343.5h-258.2c-15.9,0-29.6-11.8-31.9-27.6l-7.7-313.2
				c0-0.2,0-0.4,0-0.6c-1.4-10.4,1.7-20.8,8.5-28.7c6.9-7.9,16.8-12.4,27.3-12.4h233c15.9,0,37.7,9.7,48.7,21.6
				C1981.8,1816.3,1984.3,1822.1,1983.9,1827.8z"/>
		</g>
		<circle class="st2" cx="2119" cy="1916.3" r="19"/>
		<path class="st2" d="M2205.8,1885.7l-88.3,25.2c-3,0.8-4.7,3.9-3.8,6.9c0.7,2.5,2.9,4,5.4,4c0.5,0,1-0.1,1.5-0.2l88.3-25.2
			c3-0.8,4.7-3.9,3.8-6.9C2211.8,1886.6,2208.7,1884.9,2205.8,1885.7z"/>
		<g>
			<path class="st4" d="M2070.5,1867.3c-3.5-1.8-9.6-6.2-19.5-4.4l-72.7,5.6l7.6,27.7c0,0,72.5,45.3,80.8,33.3
				c8.6-12.5-24.5-26.2-13.1-39c10.2-11.5,55.4,33.1,65.3,22.9C2130.6,1901.4,2085.7,1875.4,2070.5,1867.3z"/>
			<path class="st1" d="M2102.6,1881.1c-12.4-8.8-25.9-16.1-29.8-18.2c-0.3-0.2-0.7-0.4-1.1-0.6c-3.8-2.1-10.9-6.1-21.3-4.3
				l-72.5,5.6c-1.5,0.1-2.8,0.9-3.7,2.1c-0.9,1.2-1.1,2.8-0.7,4.2l7.6,27.7c0.3,1.2,1.1,2.2,2.2,2.9c0.2,0.1,18.5,11.5,37.6,21.4
				c15.4,7.9,30.4,14.7,40.4,14.7c4.2,0,7.5-1.2,9.5-4.1c6.4-9.2-1.5-18.2-7.3-24.8c-7.3-8.3-8.5-11-6.1-13.7
				c0.2-0.3,2.2-0.8,7.8,1.6c5.7,2.4,12.7,6.7,19.5,10.9c16.2,9.9,30.2,18.5,37.8,10.6c2.7-2.8,3.8-6.3,3.1-10.1
				C2124.5,1899.8,2117,1891.3,2102.6,1881.1z M2115.4,1910.1c-0.3,0.1-2.3,0.5-8.4-2.4c-5-2.4-11.1-6.1-17.1-9.7
				c-16.5-10.1-32-19.6-40-10.6c-8.9,10,0.1,20.2,6.1,27c5.7,6.4,8.1,9.8,6.8,12.2c-1.2,0.4-8.9,1.3-39.9-14.9
				c-14.5-7.6-28.1-15.8-32.7-18.6l-5.5-20l66.7-5.2c0.2,0,0.3,0,0.5-0.1c7-1.3,11.5,1.3,14.9,3.1c0.5,0.3,0.9,0.5,1.4,0.7
				c29.6,15.6,46.7,30.6,47.7,36.8C2115.9,1909.2,2115.8,1909.6,2115.4,1910.1z"/>
		</g>
		<g>
			<path class="st4" d="M2246.5,1929.9c-13.3,3.6-5.4,48.8-9,57.3c-3.6,8.4-23.5,18.7-23.5,18.7l16.9,42.2l11.5,2.4l27.7-72.3
				C2270,1978.1,2259.7,1926.3,2246.5,1929.9z"/>
			<path class="st1" d="M2253.6,1926.4c-2.7-1.7-5.6-2.1-8.4-1.4c-12.4,3.4-12.1,24.6-11.7,43.4c0.1,6.2,0.2,14.8-0.6,16.7
				c-2,4.7-13.6,12.3-21.2,16.2c-2.3,1.2-3.3,3.9-2.4,6.3l16.9,42.2c0.6,1.6,2,2.7,3.6,3l11.5,2.4c0.3,0.1,0.7,0.1,1,0.1
				c2.3,0,4.4-1.6,4.9-4c0.6-2.7-1.2-5.4-3.9-5.9l-8.8-1.9l-14.2-35.6c6.7-3.8,18.6-11.4,21.8-19c1.6-3.7,1.6-10,1.4-20.8
				c-0.1-7.8-0.3-16.7,0.6-23.6c1.2-9,3.5-9.9,3.7-10c0,0,4.7,1.2,11.2,21c3.8,11.6,6.1,23.2,6.1,23.3c0.5,2.7,3.2,4.5,5.9,3.9
				c2.7-0.5,4.5-3.2,3.9-5.9C2273.5,1970,2265.8,1934,2253.6,1926.4z"/>
		</g>
		<g>
			<path class="st4" d="M2186.8,1973.5l-111.9,39.9l-78.1-192.8c-12.5-30.8-39.3-36.8-75.4-36.8l-17.4,136.6l71.4,168.3
				c13.6,33.5,45.8,54,80.1,54c9.5,0,19.1-1.6,28.5-4.8l142.5-50.6c31.4-10.9,25-36.3,14.1-67.8
				C2229.6,1988.1,2218.2,1962.5,2186.8,1973.5z"/>
			<path class="st1" d="M2225,1977.2c-10.4-11.5-23.4-14.2-39.9-8.5l-107.4,38.3l-76.3-188.3c-13.4-33.2-41.7-40-80.1-40
				c-2.8,0-5,2.2-5,5c0,2.8,2.2,5,5,5c35.3,0,59.4,5.6,70.8,33.7l78.1,192.8c1,2.5,3.8,3.7,6.3,2.8l111.9-39.9
				c12.6-4.4,21.6-2.6,29.2,5.8c7.8,8.6,13.2,23.1,18.2,37.2c4.9,13.9,9.5,28.4,8.6,39.5c-0.9,10.7-6.9,17.5-19.6,21.9l-142.5,50.6
				c-8.7,3-17.7,4.6-26.8,4.6c-33.3,0-62.9-20-75.5-51l-71.4-168.3c-1.1-2.5-4-3.7-6.6-2.6c-2.5,1.1-3.7,4-2.7,6.6l71.4,168.2
				c14.1,34.7,47.3,57.2,84.7,57.2c10.2,0,20.4-1.7,30.2-5.1l142.5-50.6c16.5-5.7,25-15.7,26.3-30.5c1.1-13-3.9-28.7-9.1-43.6
				C2240,2002.8,2234.1,1987.2,2225,1977.2z"/>
		</g>
		<path class="st2" d="M2229.1,2042.7l-148.6,49.3c-6.5,2.3-13.2,3.4-20,3.4c-24.9,0-47-14.9-56.4-38.1l-54.8-129.2
			c-1.2-2.8-4.5-4.2-7.3-3c-2.8,1.2-4.2,4.5-3,7.3l54.8,129.1c11.1,27.3,37.2,45,66.7,45c8.1,0,16-1.4,23.6-4l148.5-49.2
			c2.9-1,4.5-4.1,3.5-7C2235.1,2043.3,2232,2041.7,2229.1,2042.7z"/>
		<path class="st2" d="M2207.3,1881.5c-5.3,0-9.6,4.3-9.6,9.6c0,5.3,4.3,9.6,9.6,9.6s9.6-4.3,9.6-9.6
			C2216.9,1885.8,2212.6,1881.5,2207.3,1881.5z"/>
	</g>
</g>
<g>
	<rect x="2413" y="1326.5" class="st4" width="1305.5" height="1791.7"/>
	<path class="st1" d="M3718.6,1320.7H2413c-2.8,0-5,2.6-5,5.7v1791.7c0,3.2,2.2,5.7,5,5.7h1305.5c2.8,0,5-2.6,5-5.7V1326.5
		C3723.6,1323.3,3721.3,1320.7,3718.6,1320.7z M3713.6,3112.4H2418V1332.2h1295.5V3112.4z"/>
</g>
<g>
	<g>
		<path class="st1" d="M3686.7,3184.9H2381.2c-2.8,0-5,2.2-5,5s2.2,5,5,5h1305.5c2.8,0,5-2.2,5-5S3689.5,3184.9,3686.7,3184.9z"/>
		<path class="st1" d="M3686.7,3249.5H2381.2c-2.8,0-5,2.2-5,5s2.2,5,5,5h1305.5c2.8,0,5-2.2,5-5S3689.5,3249.5,3686.7,3249.5z"/>
	</g>
	<g>
		<path class="st1" d="M3686.7,3314.2H2381.2c-2.8,0-5,2.2-5,5s2.2,5,5,5h1305.5c2.8,0,5-2.2,5-5S3689.5,3314.2,3686.7,3314.2z"/>
	</g>
	<g>
		<path class="st1" d="M2850.5,3378.8h-469.3c-2.8,0-5,2.2-5,5s2.2,5,5,5h469.3c2.8,0,5-2.2,5-5S2853.3,3378.8,2850.5,3378.8z"/>
	</g>
</g>
<g>
	<g>
		<path class="st0" d="M3492.1,4003l-102.7,45.7c-9.6,8.9-5.8,25.3,7.8,25.2l177.6-1.5c7.6-0.1,13.7-6.3,13.6-13.9l-2.6-56.3
			L3492.1,4003z"/>
		<path class="st1" d="M3590.8,4002c-0.1-2.7-2.3-4.8-5-4.8c0,0,0,0,0,0l-93.7,0.8c-0.7,0-1.4,0.2-2,0.4l-102.7,45.7
			c-0.5,0.2-1,0.5-1.4,0.9c-6.4,5.9-8.7,15.1-5.6,22.8c2.7,6.9,9,11,16.7,11c0.1,0,0.1,0,0.2,0l177.6-1.5
			c10.3-0.1,18.7-8.6,18.6-18.9c0-0.1,0-0.1,0-0.2L3590.8,4002z M3397.2,4073.9L3397.2,4073.9L3397.2,4073.9z M3574.7,4067.5
			l-177.6,1.5c0,0-0.1,0-0.1,0c-4.8,0-6.7-2.9-7.4-4.7c-1.2-3.1-0.9-7.7,2.6-11.3l100.9-44.9l87.9-0.7l2.4,51.4
			C3583.4,4063.5,3579.5,4067.4,3574.7,4067.5z"/>
	</g>
	<g>
		<path class="st0" d="M3664.2,4001.6l-96.6,45.7c-9.6,8.9-5.8,25.3,7.8,25.2l171.5-1.4c7.6-0.1,13.7-6.3,13.6-13.9l-2.6-56.3
			L3664.2,4001.6z"/>
		<path class="st1" d="M3762.9,4000.6c-0.1-2.7-2.3-4.8-5-4.8c0,0,0,0,0,0l-93.7,0.8c-0.7,0-1.4,0.2-2.1,0.5l-96.6,45.7
			c-0.5,0.2-0.9,0.5-1.3,0.9c-6.4,5.9-8.7,15.1-5.6,22.8c2.7,6.9,8.9,11,16.7,11c0.1,0,0.1,0,0.2,0l171.5-1.4c5,0,9.7-2,13.2-5.6
			c3.5-3.6,5.4-8.3,5.4-13.3c0-0.1,0-0.1,0-0.2L3762.9,4000.6z M3753.1,4063.4c-1.6,1.7-3.8,2.6-6.2,2.6l-171.5,1.4
			c-4.9,0-6.8-2.9-7.5-4.7c-1.2-3.1-0.9-7.7,2.6-11.3l94.8-44.9l87.8-0.7l2.4,51.4C3755.6,4059.6,3754.7,4061.8,3753.1,4063.4z"/>
	</g>
	<g>
		<g>
			<path class="st0" d="M3567.8,3532.8c-38.6,0.3-70.4,30.6-72.6,69.2l-26.1,408.9l129.7-1.1l32-353.3l201-1.6
				c42.4-0.3,76.5-35,76.2-77.4l-0.4-47.4L3567.8,3532.8z"/>
			<path class="st1" d="M3911.2,3526.4c-0.9-0.9-2.3-1.5-3.5-1.4l-339.9,2.8c-41.2,0.3-75.2,32.8-77.5,73.9l-26.1,408.9
				c-0.1,1.4,0.4,2.7,1.4,3.8c0.9,1,2.3,1.6,3.6,1.6c0,0,0,0,0,0l129.7-1.1c2.6,0,4.7-2,4.9-4.5l31.6-348.8l196.5-1.6
				c45.1-0.4,81.5-37.4,81.1-82.5l-0.4-47.4C3912.7,3528.6,3912.2,3527.3,3911.2,3526.4z M3831.9,3649.8l-201,1.6
				c-2.6,0-4.7,2-4.9,4.5l-31.6,348.8l-119.8,1l25.7-403.6c2-35.9,31.7-64.2,67.6-64.5l334.9-2.7l0.3,42.4
				C3903.4,3617,3871.5,3649.5,3831.9,3649.8z"/>
		</g>
		<g>
			<g>
				<path class="st4" d="M4137.8,2585.6c0.6,11.9,5,58.8,5,58.8l23.3,6.8c0,0-8.3-55.6-10.3-66.6S4137.3,2576.1,4137.8,2585.6z"/>
				<path class="st1" d="M4160.6,2583.7c-1.4-7.5-7.8-12.1-15.6-11.2c-7.5,0.9-12.6,6.5-12.3,13.4c0.6,11.9,4.8,57.1,5,59
					c0.3,2.8,2.7,4.8,5.4,4.5c2.8-0.3,4.8-2.7,4.5-5.4c0-0.5-4.3-46.9-4.9-58.6c-0.1-2.5,3.3-2.9,3.5-2.9c1.2-0.1,4-0.1,4.6,3.1
					c2,10.8,10.2,65.9,10.3,66.4c0.4,2.5,2.5,4.3,4.9,4.3c0.2,0,0.5,0,0.7-0.1c2.7-0.4,4.6-3,4.2-5.7
					C4170.6,2648.1,4162.6,2594.6,4160.6,2583.7z"/>
			</g>
			<g>
				<path class="st4" d="M4168.2,2595.8c0.6,11.9,5,58.8,5,58.8l23.3,6.8c0,0-8.3-55.6-10.3-66.6S4167.8,2586.3,4168.2,2595.8z"/>
				<path class="st1" d="M4191.1,2593.9c-1.4-7.5-7.8-12.1-15.6-11.2c-7.5,0.9-12.6,6.5-12.3,13.4c0.6,11.9,4.8,57.1,5,59
					c0.3,2.8,2.7,4.8,5.4,4.5c2.8-0.3,4.8-2.7,4.5-5.4c0-0.5-4.3-46.9-4.9-58.6c-0.1-2.5,3.3-2.9,3.5-2.9c1.2-0.1,4-0.1,4.6,3.1
					c2,10.8,10.2,65.9,10.3,66.4c0.4,2.5,2.5,4.3,4.9,4.3c0.2,0,0.5,0,0.7-0.1c2.7-0.4,4.6-3,4.2-5.7
					C4201.1,2658.3,4193.1,2604.8,4191.1,2593.9z"/>
			</g>
			<g>
				<path class="st4" d="M4177.9,2633.8c-6.7,0-15.7,0.8-24.5,1.9c-4,0.5-8,1.1-11.7,1.6c-10.3,1.5-18.2,3-18.2,3
					s-21.3-36.5-27.2-45.9c-6-9.4-20.3-0.9-16.2,7.7c5.1,10.8,26.7,52.6,26.7,52.6l11.7,44.7l75.1,28.7l4.1-64
					C4197.7,2664,4196.2,2633.9,4177.9,2633.8z"/>
				<path class="st1" d="M4177.9,2628.8c-6.1,0-14.5,0.6-25.1,1.9c-3.7,0.5-7.7,1-11.8,1.6c-6.2,0.9-11.6,1.8-15,2.4
					c-5.2-9-20.6-35.2-25.6-43.1c-4.1-6.4-11.8-8.3-18.6-4.5c-6.6,3.6-9.3,10.8-6.4,17c4.8,10.3,24,47.3,26.6,52.3l11.6,44.2
					c0.7,2.7,3.4,4.3,6.1,3.6c2.7-0.7,4.3-3.4,3.6-6.1l-11.7-44.7c-0.1-0.4-0.2-0.7-0.4-1c-0.2-0.4-21.7-41.8-26.6-52.4
					c-1-2.2,2-3.9,2.1-4c1-0.6,3.7-1.6,5.4,1.1c5.8,9.2,26.9,45.4,27.1,45.8c1.1,1.8,3.1,2.8,5.2,2.4c0.1,0,8-1.4,18.1-2.9
					c4-0.6,7.9-1.1,11.6-1.6c10.2-1.3,18.2-1.9,23.8-1.9c12.5,0.1,14.6,22.6,14.8,25.2l-4.1,63.7c-0.2,2.8,1.9,5.1,4.7,5.3
					c0.1,0,0.2,0,0.3,0c2.6,0,4.8-2,5-4.7l4.1-64c0-0.2,0-0.4,0-0.6c0-0.3-0.4-8.3-3.3-16.5
					C4194,2632.1,4184.8,2628.8,4177.9,2628.8z"/>
			</g>
			<g>
				<path class="st4" d="M4108.9,2588c1.9,11.8,11,58,11,58l18.6-11.3c0,0-8.8-38.8-11.9-49.5
					C4123.5,2574.5,4107.4,2578.7,4108.9,2588z"/>
				<path class="st1" d="M4131.4,2583.8c-2.1-7.3-9-11.3-16.6-9.6c-7.3,1.6-11.9,7.8-10.8,14.6c1.8,11.8,10.7,56.3,11,58.2
					c0.5,2.4,2.6,4,4.9,4c0.3,0,0.6,0,1-0.1c2.7-0.5,4.5-3.2,3.9-5.9c-0.1-0.5-9.1-46.2-11-57.8c-0.4-2.4,3-3.2,3.1-3.3
					c1.2-0.3,4-0.5,4.9,2.6c3,10.4,11.7,48.9,11.8,49.2c0.6,2.7,3.3,4.4,6,3.8c2.7-0.6,4.4-3.3,3.8-6
					C4143,2632.1,4134.5,2594.5,4131.4,2583.8z"/>
			</g>
			<g>
				<path class="st4" d="M4096.3,2594.3c-6-9.4-20.3-0.9-16.2,7.7c5.1,10.8,26.7,52.6,26.7,52.6l11.7,44.7l23.3-62
					c-10.3,1.5-18.2,3-18.2,3S4102.3,2603.8,4096.3,2594.3z"/>
				<path class="st1" d="M4141.1,2632.4c-6.2,0.9-11.6,1.8-15,2.4c-5.2-9-20.6-35.2-25.6-43.1c-4.1-6.4-11.8-8.3-18.6-4.5
					c-6.6,3.6-9.3,10.8-6.4,17c4.8,10.3,24,47.3,26.6,52.3l11.6,44.2c0.6,2.2,2.6,3.7,4.8,3.7c0.4,0,0.8-0.1,1.3-0.2
					c2.7-0.7,4.3-3.4,3.6-6.1l-11.7-44.7c-0.1-0.4-0.2-0.7-0.4-1c-0.2-0.4-21.7-41.8-26.6-52.4c-1-2.2,2-3.9,2.1-4
					c1-0.6,3.7-1.6,5.4,1.1c5.8,9.2,26.9,45.4,27.1,45.8c1.1,1.8,3.1,2.8,5.2,2.4c0.1,0,8-1.4,18.1-2.9c2.7-0.4,4.6-2.9,4.2-5.7
					C4146.3,2633.9,4143.8,2632,4141.1,2632.4z"/>
			</g>
			<g>
				<path class="st4" d="M4126.9,2684l-11.7-2.2l-20.1-16.3c-3.7-1.3-7.8-0.2-10.3,2.7c-2.3,2.6-3,6.2-1.9,9.5
					c3.1,8.9,9.9,26.5,17.9,34.2c10.7,10.3,29.5,14.6,29.5,14.6l6.8-35.3C4135.1,2687.6,4131.5,2684.8,4126.9,2684z"/>
				<path class="st1" d="M4127.8,2679l-10.4-1.9l-19.1-15.5c-0.5-0.4-1-0.7-1.5-0.8c-5.6-1.9-11.8-0.3-15.7,4.2
					c-3.5,3.9-4.6,9.5-2.8,14.4c3.4,9.9,10.5,27.8,19.2,36.2c11.5,11.1,31,15.7,31.9,15.9c0.4,0.1,0.8,0.1,1.1,0.1
					c2.3,0,4.3-1.6,4.9-3.9c0.6-2.7-1.1-5.4-3.8-6c-0.2,0-17.6-4.1-27.1-13.4c-5.2-5.1-11.3-16.8-16.7-32.2
					c-0.5-1.6-0.2-3.3,0.9-4.5c1.1-1.2,2.7-1.8,4.2-1.5l19.3,15.7c0.6,0.5,1.4,0.9,2.2,1l11.7,2.2c2.9,0.5,5.4,2.3,6.8,4.8
					c1.4,2.4,4.4,3.2,6.8,1.8c2.4-1.4,3.2-4.4,1.8-6.8C4138.6,2683.6,4133.6,2680.1,4127.8,2679z"/>
			</g>
		</g>
		<g>
			<path class="st4" d="M3736,3105.3c-0.2,0.6-100.1,290.3-134.8,306.9c-11.6,5.6-16,19.8-9.6,31l32.9,57.4
				c5.4,9.4,35.4,17.8,45.6,13.9c38.2-14.4,179-358.7,191.1-382.7l-68.8-49.9L3736,3105.3z"/>
			<path class="st1" d="M3864.1,3127.7l-68.8-49.9c-1.4-1-3.2-1.2-4.9-0.6l-56.4,23.4c-1.3,0.5-2.3,1.6-2.8,3c0,0,0,0.1,0,0.1
				c-2.7,7.7-26.9,77.5-55.2,149.3c-16.8,42.7-31.7,77.3-44.1,103c-19.7,40.7-29.1,49.9-32.9,51.7c-6.8,3.2-11.9,9.2-14.2,16.4
				c-2.2,7.2-1.4,15,2.4,21.6l32.9,57.4c5.5,9.6,28.5,17.3,43.3,17.3c3.3,0,6.2-0.4,8.4-1.2c9.4-3.5,28.3-21.8,83.9-138.4
				c33.7-70.6,69.1-152.9,90.3-202c10.1-23.3,17.3-40.2,19.6-44.7C3866.8,3131.8,3866.1,3129.1,3864.1,3127.7z M3836.8,3174.8
				c-21.2,49.1-56.6,131.2-90.2,201.7c-52.5,110.1-71.7,130.8-78.4,133.4c-8.3,3.1-35.6-5-39.5-11.7l-32.9-57.4
				c-2.4-4.2-2.9-9-1.5-13.6c1.4-4.6,4.6-8.3,8.9-10.3c5.8-2.8,15.9-11.6,37.6-56.4c12.5-25.9,27.5-60.8,44.4-103.7
				c26.6-67.6,49.7-133.4,54.6-147.6l51.8-21.5l63.1,45.8C3851.6,3140.6,3845.4,3154.9,3836.8,3174.8z"/>
		</g>
		<g>
			<g>
				<g>
					<path class="st4" d="M3934.7,2876.4l-43,69.3l-9.6,133.6l90.9-1.9c-0.6-10.5-8-136.1-8-136.1L3934.7,2876.4z"/>
					<path class="st1" d="M3969.5,2939.2l-30.3-64.9c-0.8-1.7-2.4-2.8-4.2-2.9c-1.8-0.1-3.6,0.8-4.5,2.4l-43,69.3
						c-0.4,0.7-0.7,1.5-0.7,2.3l-9.6,133.6c-0.1,1.4,0.4,2.8,1.4,3.8c0.9,1,2.3,1.6,3.6,1.6c0,0,0.1,0,0.1,0l90.9-1.9
						c1.4,0,2.6-0.6,3.6-1.6c0.9-1,1.4-2.3,1.3-3.7l-8-136.1C3969.9,2940.4,3969.8,2939.8,3969.5,2939.2z M3887.5,3074.2l9.1-126.9
						l37.5-60.4l26,55.7l7.7,130L3887.5,3074.2z"/>
				</g>
				<g>
					<g>
						<path class="st4" d="M3991.1,2884.2c-5.1,0.3-10.5,2.9-14.8,6.8l9.5,40c11.6-0.7,21.2-8.1,23.3-24.3
							C4010.7,2895.1,4002.7,2883.5,3991.1,2884.2z"/>
						<path class="st1" d="M3990.8,2879.2c-6,0.4-12.5,3.3-17.8,8c-2.1,1.8-2.3,5-0.5,7.1c1.8,2.1,5,2.3,7.1,0.5
							c3.7-3.3,8.1-5.3,11.8-5.5c4.2-0.3,7.1,1.9,8.8,3.7c3.1,3.3,4.6,8.4,4,13.2c-1.6,12.4-8.1,19.3-18.7,19.9
							c-2.8,0.2-4.9,2.5-4.7,5.3c0.2,2.7,2.4,4.7,5,4.7c0.1,0,0.2,0,0.3,0c15.3-0.9,25.8-11.6,28-28.6c1-7.8-1.4-15.7-6.6-21.3
							C4003.1,2881.2,3997.1,2878.8,3990.8,2879.2z"/>
					</g>
					<g>
						<path class="st4" d="M3831.7,2908c3.2,16,13.3,22.8,24.9,22.7l6.9-40.5c-4.6-3.5-10.1-5.8-15.3-5.8
							C3836.6,2884.5,3829.4,2896.6,3831.7,2908z"/>
						<path class="st1" d="M3866.5,2886.2c-5.6-4.3-12.2-6.8-18.2-6.8c-0.1,0-0.1,0-0.2,0c-6.3,0-12.1,2.9-16.2,7.9
							c-4.8,5.9-6.7,14-5.2,21.7c3.3,16.7,14.4,26.7,29.6,26.7c0.1,0,0.2,0,0.3,0c2.8,0,5-2.3,5-5c0-2.7-2.3-5-5-5
							c-0.1,0-0.2,0-0.2,0c-10.5,0-17.3-6.5-19.8-18.7c-0.9-4.7,0.2-9.9,3.1-13.4c1.6-1.9,4.3-4.2,8.5-4.2c0,0,0.1,0,0.1,0
							c3.8,0,8.2,1.7,12.1,4.7c2.2,1.7,5.3,1.3,7-0.9C3869.1,2891,3868.7,2887.9,3866.5,2886.2z"/>
					</g>
					<g>
						<path class="st4" d="M3981.8,2802.5l-126.7,11.7l-4.8,148.2c-0.8,25.6,19.5,46.6,44.2,45.6l53.2-2.2
							c23.4-1,41.6-21.4,40.6-45.7L3981.8,2802.5z"/>
						<path class="st1" d="M3986.8,2802.3c-0.1-1.4-0.7-2.7-1.7-3.6c-1-0.9-2.4-1.3-3.8-1.2l-126.7,11.7c-2.5,0.2-4.5,2.3-4.5,4.8
							l-4.8,148.2c-0.4,13.9,4.9,27.4,14.6,37.1c8.9,8.9,20.5,13.7,32.8,13.7c0.6,0,1.3,0,2,0l53.2-2.2c12.7-0.5,24.4-6.1,33-15.8
							c8.5-9.6,12.9-22.1,12.4-35.1L3986.8,2802.3z M3973.4,2988.4c-6.8,7.6-16,12-25.9,12.4l0.2,5l-0.2-5l-53.2,2.2
							c-10.2,0.4-19.9-3.4-27.3-10.7c-7.8-7.7-12-18.5-11.7-29.7l4.6-143.8l117.1-10.8l6.3,152.3
							C3983.7,2970.7,3980.2,2980.7,3973.4,2988.4z"/>
					</g>
					<g>
						<polygon class="st0" points="3981.8,2802.5 3986.3,2911 3986.3,2911 						"/>
						<path class="st0" d="M3986.3,2911c0.7,16.7-17.7,31.1-41.1,32l-53.2,2.2c-18.3,0.8-34-6.9-40.5-18l-1.1,35.2
							c-0.8,25.6,19.5,46.6,44.2,45.6l53.2-2.2c23.4-1,41.6-21.4,40.6-45.7L3986.3,2911z"/>
						<path class="st1" d="M3991.3,2910.9c0,0,0-0.1,0-0.1l-4.5-108.5c-0.1-2.8-2.4-4.9-5.2-4.8c-2.8,0.1-4.9,2.4-4.8,5.2l4.5,108.6
							c0.5,13.9-15.8,25.9-36.4,26.7l-53.2,2.2c-15.8,0.7-30.2-5.6-36-15.5c-1.1-1.9-3.4-2.9-5.5-2.3c-2.2,0.5-3.7,2.5-3.8,4.7
							l-1.1,35.2c-0.4,13.9,4.9,27.4,14.6,37.1c8.9,8.9,20.5,13.7,32.8,13.7c0.6,0,1.3,0,1.9,0l53.2-2.2c12.7-0.5,24.4-6.1,33-15.8
							c8.5-9.6,12.9-22.1,12.4-35.1L3991.3,2910.9z M3973.4,2988.4c-6.8,7.6-16,12-25.9,12.4l-53.2,2.2
							c-10.2,0.4-19.9-3.4-27.3-10.7c-7.8-7.7-12-18.5-11.7-29.7l0.7-22.8c9.1,7.1,22.1,11,36.1,10.4l53.2-2.2
							c15.2-0.6,28.5-6.5,36.8-15.2l1.1,27.4C3983.7,2970.7,3980.2,2980.7,3973.4,2988.4z"/>
					</g>
					<g>
						<path class="st0" d="M3840.5,2802.5c-19.7,29.3,11.8,88.6,11.8,88.6s14.8-65,38.6-70.7c18.4-4.4-1.2-29.9-1.2-29.9
							S3860.2,2773.2,3840.5,2802.5z"/>
						<path class="st1" d="M3892.2,2786.2c-11.6-6.8-38.2-12.7-55.8,13.5c-21.1,31.4,10.2,91.2,11.5,93.7c0.9,1.6,2.6,2.7,4.4,2.7
							c0.2,0,0.4,0,0.7,0c2.1-0.3,3.8-1.8,4.2-3.8c5.5-24,19.8-63.4,34.9-66.9c7-1.7,9.8-5.8,10.9-8.9c3.9-11-7.1-26-9.3-28.9
							C3893.2,2786.9,3892.7,2786.5,3892.2,2786.2z M3893.5,2813c-0.2,0.5-0.6,1.8-3.8,2.5c-19.5,4.7-32.7,40.4-38.7,60.9
							c-2.3-5.6-5-12.6-7.2-20.2c-4.6-15.8-8.2-37.4,0.9-50.9c7.9-11.7,17.5-14.8,25.5-14.8c7.6,0,13.9,2.8,16.1,3.9
							C3890.3,2799.8,3894.9,2808.9,3893.5,2813z"/>
					</g>
					<g>
						<path class="st0" d="M3952.5,2756.9c-40.2-5.4-62.9,33.6-62.9,33.6l-4.6,31.9c0,0,33.7-9.8,68.9,17.5
							c28.9,22.4,32.2,71.4,32.2,71.4s38.7-48.1,27.8-102C4007.1,2775,3978.9,2760.4,3952.5,2756.9z"/>
						<path class="st1" d="M3993.6,2767.5c-10.9-8.1-24.8-13.5-40.4-15.6c-43-5.8-66.9,34.4-67.9,36.1c-0.3,0.6-0.5,1.2-0.6,1.8
							l-4.6,31.9c-0.2,1.7,0.4,3.4,1.7,4.5c1.3,1.1,3,1.5,4.7,1c1.3-0.4,31.8-8.7,64.4,16.7c26.7,20.8,30.3,67.4,30.3,67.8
							c0.1,2.1,1.5,3.8,3.5,4.4c0.5,0.2,1,0.2,1.5,0.2c1.5,0,2.9-0.7,3.9-1.9c1.6-2,40-50.6,28.8-106.1
							C4015.5,2791.3,4007,2777.5,3993.6,2767.5z M3989.4,2897.8c-0.8-4.4-2-9.6-3.7-15.2c-6.2-21-15.9-36.7-28.7-46.7
							c-21.6-16.8-42.6-20.3-56.5-20.3c-3.7,0-6.9,0.2-9.5,0.6l3.4-24c3.4-5.4,23.7-35,57.4-30.4c14.7,2,49.7,10.7,57.3,48.5
							C4016.5,2846.9,3999.6,2881.3,3989.4,2897.8z"/>
					</g>
				</g>
			</g>
			<g>
				<polygon class="st4" points="3853.8,3043.2 3832.5,3109.4 4039.9,3102.4 4001.8,3033.8 				"/>
				<path class="st1" d="M4006.2,3031.4c-0.9-1.7-2.8-2.7-4.7-2.6l-148,9.4c-2,0.1-3.8,1.5-4.4,3.5l-21.4,66.2
					c-0.5,1.5-0.2,3.2,0.8,4.5c0.9,1.3,2.4,2,4,2c0.1,0,0.1,0,0.2,0l207.5-7c1.7-0.1,3.3-1,4.2-2.5c0.9-1.5,0.9-3.4,0-4.9
					L4006.2,3031.4z M3839.4,3104.2l18.1-56.2l141.5-9l32.6,58.7L3839.4,3104.2z"/>
			</g>
		</g>
		<g>
			<path class="st4" d="M4064.1,3063.1l-281.3,17.6c-15.3,0.9-35.8,10.9-46.8,24.6l34.8,67.1l19.9,331.5c3.3,17.4,19.4,28.6,37,26.8
				l247.5-2c28.5-0.2,29.7-37.8,30.5-54.7l14-350.1C4124.8,3090.4,4097.7,3061,4064.1,3063.1z"/>
			<path class="st1" d="M4063.8,3058.1l-281.3,17.6c-17.5,1.1-39.1,12.5-50.4,26.5c-1.7,2.2-1.4,5.3,0.8,7c2.2,1.7,5.3,1.4,7-0.8
				c9.5-11.9,28.4-21.9,43.2-22.8l281.3-17.6c14.5-0.9,28.5,4.8,38.4,15.5c9.8,10.7,14.3,25.1,12.2,39.5c0,0.2,0,0.3,0,0.5l-14,350
				l-0.1,1.1c-1.2,25.3-5.1,48.7-25.5,48.9l-247.5,2c-0.2,0-0.3,0-0.5,0c-15.1,1.5-28.6-8.1-31.6-22.5l-19.9-331.1
				c-0.2-2.8-2.6-4.8-5.3-4.7c-2.8,0.2-4.9,2.5-4.7,5.3l19.9,331.5c0,0.2,0,0.4,0.1,0.6c3.5,18.3,19.6,31.1,38.3,31.1
				c1.3,0,2.6-0.1,4-0.2l247.3-2c32.7-0.3,34.6-41,35.4-58.4l0.1-1.1l14-349.8c2.5-17.3-2.9-34.6-14.7-47.5
				C4098.2,3063.8,4081.3,3057,4063.8,3058.1z"/>
		</g>
		<g>
			<path class="st4" d="M4280.6,2931.5c-17.6-76.8-46.6-167.6-62.8-216.2c-5.5-16.6-23.5-25.6-40.2-20l-40,13.4
				c-16.6,5.6-25.6,23.5-20,40c15.6,46.8,43.6,134.5,60,206.4c1.6,6.7-10,31.5-76.9,78.5c-10.5,7.4-46.9,26.4-57.2,32.8l56.4,100.1
				c13-7.9,47.8-31.2,61.2-40.6c86.7-60.6,127.5-121.1,121.7-180C4282.4,2941.1,4281.7,2936.3,4280.6,2931.5z"/>
			<path class="st1" d="M4285.4,2930.4c-17.7-77.3-47-168.9-62.9-216.7c-3.1-9.3-9.6-16.8-18.4-21.2c-8.8-4.4-18.8-5.1-28.1-2
				l-40,13.4c-19.2,6.4-29.6,27.2-23.2,46.4c15.3,46,43.5,134,59.9,205.9c0,0.1,0.5,5.8-12.3,20.4c-12.9,14.8-34.6,33.1-62.7,52.9
				c-6.1,4.3-21.7,12.9-35.5,20.5c-9.3,5.1-17.3,9.6-21.5,12.1c-2.3,1.5-3.1,4.5-1.6,6.9c1.5,2.3,4.5,3.1,6.9,1.6
				c4-2.5,12.3-7,21.1-11.9c14-7.7,29.8-16.5,36.4-21.1c29.6-20.8,51.5-39.4,65.1-55.2c10.6-12.3,15.4-22.2,13.9-28.5
				c-16.6-72.3-44.8-160.6-60.2-206.8c-4.6-13.9,2.9-29.1,16.9-33.7l40-13.4c6.8-2.3,14-1.8,20.4,1.4c6.4,3.2,11.1,8.7,13.4,15.4
				c15.8,47.6,45,138.8,62.7,215.7c1,4.5,1.8,9.2,2.3,13.8c5.6,57-34.6,116-119.6,175.4c-13.7,9.6-48.4,32.7-61,40.4
				c-2.4,1.4-3.1,4.5-1.7,6.9c0.9,1.5,2.6,2.4,4.3,2.4c0.9,0,1.8-0.2,2.6-0.7c12.7-7.8,47.7-31.1,61.5-40.8
				c88.2-61.6,129.8-123.7,123.8-184.6C4287.4,2940.4,4286.6,2935.3,4285.4,2930.4z"/>
		</g>
		<g>
			<path class="st3" d="M3735.6,3531.4c-38.6,0.3-70.4,30.6-72.6,69.2l-22.8,408.9l124.2-1l34.1-353.3l201-1.6
				c42.4-0.3,76.5-35,76.2-77.4l-0.4-47.4L3735.6,3531.4z"/>
			<path class="st1" d="M4079,3525c-0.9-0.9-2.2-1.4-3.5-1.4l-339.9,2.8c-41.2,0.3-75.2,32.8-77.5,73.9l-22.8,408.9
				c-0.1,1.4,0.4,2.7,1.4,3.7c0.9,1,2.3,1.5,3.6,1.5c0,0,0,0,0,0l124.2-1c2.6,0,4.7-2,4.9-4.5l33.7-348.9l196.5-1.6
				c45.1-0.4,81.5-37.4,81.1-82.5l-0.4-47.4C4080.5,3527.2,4080,3526,4079,3525z M3999.7,3648.4l-201,1.6c-2.6,0-4.7,2-4.9,4.5
				l-33.7,348.9l-114.4,0.9l22.5-403.6c2-35.9,31.7-64.2,67.6-64.5l334.9-2.7l0.3,42.4C4071.2,3615.6,4039.3,3648.1,3999.7,3648.4z"
				/>
		</g>
		<g>
			<g>
				<polygon class="st3" points="3262.5,3322.4 3384.5,3507 3690.7,3504.5 3568.7,3319.8 				"/>
				<path class="st1" d="M3572.9,3317.1c-0.9-1.4-2.5-2.3-4.2-2.2l-306.3,2.5c-1.8,0-3.5,1-4.4,2.6c-0.9,1.6-0.8,3.6,0.2,5.1
					l122,184.7c0.9,1.4,2.5,2.2,4.2,2.2c0,0,0,0,0,0l306.3-2.5c1.8,0,3.5-1,4.4-2.6c0.9-1.6,0.8-3.6-0.2-5.1L3572.9,3317.1z
					 M3387.2,3502l-115.4-174.7l294.3-2.4l115.4,174.7L3387.2,3502z"/>
			</g>
			<g>
				<path class="st3" d="M3865.6,3503.1l-174.9,1.4l0.2,27.2l174.9-1.4c7.5-0.1,13.6-6.2,13.5-13.7
					C3879.3,3509.1,3873.2,3503,3865.6,3503.1z"/>
				<path class="st1" d="M3865.7,3498.1c-0.1,0-0.1,0-0.2,0l-174.9,1.4c-2.8,0-5,2.3-5,5l0.2,27.2c0,1.3,0.5,2.6,1.5,3.5
					c0.9,0.9,2.2,1.4,3.5,1.4c0,0,0,0,0,0l174.9-1.4c5,0,9.6-2,13.1-5.6s5.4-8.2,5.3-13.2c0-5-2-9.6-5.6-13.1
					C3875.3,3500,3870.7,3498.1,3865.7,3498.1z M3871.9,3522.7c-1.6,1.6-3.8,2.6-6.1,2.6l-169.9,1.4l-0.1-17.2l169.9-1.4
					c2.3,0,4.5,0.9,6.1,2.5c1.6,1.6,2.6,3.8,2.6,6.1S3873.5,3521.1,3871.9,3522.7z"/>
			</g>
			<g>
				
					<rect x="3384.6" y="3505.8" transform="matrix(1 -8.195242e-03 8.195242e-03 1 -28.7234 29.1107)" class="st3" width="306.3" height="27.2"/>
				<path class="st1" d="M3694.3,3500.9c-0.9-0.9-2.2-1.5-3.5-1.4l-306.3,2.5c-1.3,0-2.6,0.5-3.5,1.5s-1.4,2.2-1.4,3.5l0.2,27.2
					c0,2.7,2.3,5,5,5c0,0,0,0,0,0l306.3-2.5c2.8,0,5-2.3,5-5l-0.2-27.2C3695.7,3503.1,3695.2,3501.9,3694.3,3500.9z M3389.7,3529.2
					l-0.1-17.2l296.3-2.4l0.1,17.2L3389.7,3529.2z"/>
			</g>
		</g>
	</g>
</g>
</svg>
