<?xml version="1.0" encoding="utf-8"?>
<!-- Generator: Adobe Illustrator 24.1.3, SVG Export Plug-In . SVG Version: 6.00 Build 0)  -->
<svg version="1.1" id="Layer_1" xmlns="http://www.w3.org/2000/svg" xmlns:xlink="http://www.w3.org/1999/xlink" x="0px" y="0px"
	 viewBox="0 0 6000 5000" style="enable-background:new 0 0 6000 5000;" xml:space="preserve">
<style type="text/css">
	.st0{fill:#E0F4FC;}
	.st1{fill:#0868AF;}
	.st2{fill:#C5EDF9;}
	.st3{fill:#6EBDFF;}
	.st4{fill:#A2DFFF;}
	.st5{fill:#FFFFFF;}
</style>
<g>
	<g>
		<g>
			<rect x="3937.7" y="2691.9" class="st0" width="203.3" height="1172"/>
			<path class="st1" d="M4141.1,2686.9h-203.3c-2.8,0-5,2.2-5,5v1172c0,2.8,2.2,5,5,5h203.3c2.8,0,5-2.2,5-5v-1172
				C4146.1,2689.1,4143.8,2686.9,4141.1,2686.9z M4136.1,3858.9h-193.3v-1162h193.3V3858.9z"/>
		</g>
		<g>
			<rect x="4141.1" y="2691.9" class="st2" width="649.4" height="1172"/>
			<path class="st1" d="M4790.4,2686.9h-649.4c-2.8,0-5,2.2-5,5v1172c0,2.8,2.2,5,5,5h649.4c2.8,0,5-2.2,5-5v-1172
				C4795.4,2689.1,4793.2,2686.9,4790.4,2686.9z M4785.4,3858.9h-639.4v-1162h639.4V3858.9z"/>
		</g>
	</g>
	<g>
		<g>
			<g>
				<path class="st3" d="M4231,2667.7c-9.6,6.6-5.7,24.2,5.3,24.2h145c8.7,0,15.7-8.5,15.7-19v-47.9h-68.5L4231,2667.7z"/>
				<path class="st1" d="M4397.1,2619.9h-68.5c-0.7,0-1.4,0.1-2,0.4l-97.6,42.8c-0.3,0.1-0.6,0.3-0.8,0.5
					c-6.5,4.4-9.2,13.3-6.6,21.5c2.3,7.3,7.9,11.8,14.8,11.8h145c11.4,0,20.7-10.8,20.7-24v-47.9
					C4402.1,2622.2,4399.8,2619.9,4397.1,2619.9z M4392.1,2672.9c0,7.7-4.8,14-10.7,14h-145c-3.5,0-4.9-3.7-5.2-4.8
					c-1-3.2-0.6-7.6,2.4-10l96.1-42.1h62.4V2672.9z"/>
			</g>
			<g>
				<polygon class="st2" points="4494.3,2624.9 4580.2,2624.9 4580.2,2023.7 4452.5,2023.7 				"/>
				<path class="st1" d="M4580.2,2018.7h-127.6c-1.4,0-2.7,0.6-3.7,1.6c-0.9,1-1.4,2.4-1.3,3.8l41.7,601.3c0.2,2.6,2.4,4.7,5,4.7
					h85.9c2.8,0,5-2.2,5-5v-601.3C4585.2,2020.9,4582.9,2018.7,4580.2,2018.7z M4575.2,2619.9h-76.2l-41.1-591.3h117.3V2619.9z"/>
			</g>
			<g>
				<g>
					<polygon class="st4" points="4291.8,2624.9 4397.1,2624.9 4438.8,2023.7 4311.2,2023.7 					"/>
					<path class="st1" d="M4438.8,2018.7h-127.6c-2.7,0-4.9,2.1-5,4.8l-19.4,601.3c0,1.4,0.5,2.7,1.4,3.6c0.9,1,2.2,1.5,3.6,1.5
						h105.3c2.6,0,4.8-2,5-4.7l41.7-601.3c0.1-1.4-0.4-2.7-1.3-3.8C4441.5,2019.2,4440.2,2018.7,4438.8,2018.7z M4392.4,2619.9
						h-95.5l19.1-591.3h117.4L4392.4,2619.9z"/>
				</g>
			</g>
			<g>
				<polygon class="st4" points="4401.3,2097.4 4457.7,2097.4 4475,2624.9 4580.2,2624.9 4580.2,2023.7 4311.2,2023.7 				"/>
				<path class="st1" d="M4580.2,2018.7h-269c-2.8,0-5,2.2-5,5s2.2,5,5,5h264v591.3h-95.3l-17.2-522.7c-0.1-2.7-2.3-4.8-5-4.8h-56.3
					c-2.8,0-5,2.2-5,5s2.2,5,5,5h51.5l17.2,522.7c0.1,2.7,2.3,4.8,5,4.8h105.2c2.8,0,5-2.2,5-5v-601.3
					C4585.2,2020.9,4582.9,2018.7,4580.2,2018.7z"/>
			</g>
			<g>
				<path class="st3" d="M4419.7,2667.7c-9.2,6.6-5.5,24.2,5.1,24.2h140.1c8.4,0,15.2-8.5,15.2-19v-47.9H4514L4419.7,2667.7z"/>
				<path class="st1" d="M4580.2,2619.9H4514c-0.7,0-1.4,0.2-2.1,0.4l-94.3,42.8c-0.3,0.1-0.6,0.3-0.8,0.5c-6.4,4.5-9,13.5-6.3,21.7
					c2.3,7.1,7.8,11.5,14.4,11.5h140.1c11.1,0,20.2-10.8,20.2-24v-47.9C4585.2,2622.2,4582.9,2619.9,4580.2,2619.9z M4575.2,2672.9
					c0,7.6-4.7,14-10.2,14h-140.1c-3.1,0-4.5-3.5-4.8-4.6c-1.1-3.4-0.6-7.9,2.3-10.3l92.8-42.1h60.1V2672.9z"/>
			</g>
		</g>
		<g>
			<g>
				<path class="st3" d="M4499.3,1268.8h-120.1c-21.4,0-38.8,17.4-38.8,38.8v120.8h197.7v-120.8
					C4538.1,1286.2,4520.8,1268.8,4499.3,1268.8z"/>
				<path class="st1" d="M4499.3,1263.8h-120.1c-24.2,0-43.8,19.6-43.8,43.8v120.8c0,2.8,2.2,5,5,5h197.7c2.8,0,5-2.2,5-5v-120.8
					C4543.1,1283.5,4523.5,1263.8,4499.3,1263.8z M4533.1,1423.4h-187.7v-115.8c0-18.6,15.2-33.8,33.8-33.8h120.1
					c18.6,0,33.8,15.2,33.8,33.8V1423.4z"/>
			</g>
			<g>
				<path class="st5" d="M4479.1,1540.2v-50.9h-39.6h-39.6v50.9c0,20.7-19.9,37.5-44.5,37.5h84.1h84.1
					C4499,1577.7,4479.1,1560.9,4479.1,1540.2z"/>
				<path class="st1" d="M4523.6,1572.7c-21.8,0-39.5-14.6-39.5-32.5v-50.9c0-2.8-2.2-5-5-5h-79.3c-2.8,0-5,2.2-5,5v50.9
					c0,17.9-17.7,32.5-39.5,32.5c-2.8,0-5,2.2-5,5s2.2,5,5,5h168.3c2.8,0,5-2.2,5-5S4526.3,1572.7,4523.6,1572.7z M4387.2,1572.7
					c10.8-7.8,17.6-19.5,17.6-32.5v-45.9h69.3v45.9c0,13,6.9,24.7,17.6,32.5H4387.2z"/>
			</g>
			<g>
				<path class="st2" d="M4522.6,1559.5h-166.3c-42.1,0-76.2,34.1-76.2,76.2v388H4436h162.8v-388
					C4598.8,1593.6,4564.7,1559.5,4522.6,1559.5z"/>
				<path class="st1" d="M4522.6,1554.5h-166.3c-44.8,0-81.2,36.4-81.2,81.2v388c0,2.8,2.2,5,5,5h318.7c2.8,0,5-2.2,5-5v-388
					C4603.8,1590.9,4567.4,1554.5,4522.6,1554.5z M4593.8,2018.7h-308.7v-383c0-39.3,32-71.2,71.2-71.2h166.3
					c39.3,0,71.2,32,71.2,71.2V2018.7z"/>
			</g>
			<g>
				<path class="st2" d="M4179.4,1862.6c-14.4,34.6-0.6,73.3,30.8,86.4l0,0c31.4,13.1,68.6-4.3,83-38.9l-6.9-304.2L4179.4,1862.6z"
					/>
				<path class="st1" d="M4295.2,1905.4c-2.5-1.1-5.5,0.1-6.5,2.7c-6.5,15.6-18.1,27.9-32.6,34.7c-14.4,6.7-30,7.3-43.9,1.5
					c-13.9-5.8-24.5-17.2-29.8-32.2c-5.4-15.1-4.8-32.1,1.7-47.6l107-256.7c1.1-2.5-0.1-5.5-2.7-6.5c-2.5-1.1-5.5,0.1-6.5,2.7
					l-107,256.7c-7.5,17.9-8.1,37.4-1.9,54.9c6.3,17.7,18.9,31.2,35.4,38.1c7.6,3.2,15.7,4.8,23.8,4.8c9.5,0,19-2.1,28.1-6.4
					c16.8-7.9,30.2-22.1,37.6-40C4299,1909.4,4297.8,1906.5,4295.2,1905.4z"/>
			</g>
			<g>
				<g>
					
						<rect x="4333.9" y="1663.7" transform="matrix(0.9647 -0.2633 0.2633 0.9647 -302.4564 1204.1323)" class="st3" width="14.2" height="133.4"/>
					<path class="st1" d="M4335.1,1662.9c-0.7-2.7-3.5-4.2-6.1-3.5l-13.7,3.7c-1.3,0.3-2.4,1.2-3,2.3c-0.7,1.2-0.8,2.5-0.5,3.8
						l35.1,128.7c0.3,1.3,1.2,2.4,2.3,3c0.8,0.4,1.6,0.7,2.5,0.7c0.4,0,0.9-0.1,1.3-0.2l13.7-3.7c2.7-0.7,4.2-3.5,3.5-6.1
						L4335.1,1662.9z M4355.3,1790.5l-32.5-119l4-1.1l32.5,119L4355.3,1790.5z"/>
				</g>
				<g>
					<path class="st5" d="M4369.1,1749.6h-40.9c-6.7,0-13.1,2.9-17.5,8.1l-9.7,11.3l-38.8,46.9l55.6,22.8l11.7-15h50.6l-1.6-67.8
						L4369.1,1749.6z"/>
					<path class="st1" d="M4381.1,1751.8l-9.3-6.3c-0.8-0.6-1.8-0.9-2.8-0.9h-40.9c-8.2,0-16,3.6-21.3,9.8l-9.8,11.4l-38.8,46.9
						c-1.8,2.1-1.5,5.3,0.7,7c2.1,1.8,5.3,1.5,7-0.7l38.8-46.9l9.7-11.3c3.4-4,8.4-6.3,13.7-6.3h39.4l5.9,4l1.5,60.1h-45.4
						c-1.5,0-3,0.7-3.9,1.9l-11.7,15c-1.7,2.2-1.3,5.3,0.9,7c0.9,0.7,2,1.1,3.1,1.1c1.5,0,3-0.7,3.9-1.9l10.2-13.1h48.1
						c1.3,0,2.6-0.5,3.6-1.5c0.9-1,1.5-2.3,1.4-3.6l-1.6-67.8C4383.3,1754.2,4382.5,1752.7,4381.1,1751.8z"/>
				</g>
				<g>
					<g>
						<path class="st5" d="M4385,1749.6h-38l21.7,18.5h16.3c5.1,0,9.3-4.1,9.3-9.3C4394.2,1753.8,4390.1,1749.6,4385,1749.6z"/>
						<path class="st1" d="M4385,1744.6h-38c-2.8,0-5,2.2-5,5s2.2,5,5,5h38c2.4,0,4.3,1.9,4.3,4.3s-1.9,4.3-4.3,4.3h-16.3
							c-2.8,0-5,2.2-5,5s2.2,5,5,5h16.3c7.9,0,14.3-6.4,14.3-14.3S4392.8,1744.6,4385,1744.6z"/>
					</g>
					<g>
						<path class="st5" d="M4385,1786.7h-29.6v18.5h29.6c5.1,0,9.3-4.1,9.3-9.3l0,0C4394.2,1790.8,4390.1,1786.7,4385,1786.7z"/>
						<path class="st1" d="M4385,1781.7h-29.6c-2.8,0-5,2.2-5,5s2.2,5,5,5h29.6c2.4,0,4.3,1.9,4.3,4.3s-1.9,4.3-4.3,4.3h-29.6
							c-2.8,0-5,2.2-5,5s2.2,5,5,5h29.6c7.9,0,14.3-6.4,14.3-14.3S4392.8,1781.7,4385,1781.7z"/>
					</g>
					<g>
						<path class="st5" d="M4380,1805.2h-24.6l-25.9,18.5h50.6c5.1,0,9.3-4.1,9.3-9.3C4389.2,1809.4,4385.1,1805.2,4380,1805.2z"/>
						<path class="st1" d="M4380,1800.2h-24.6c-2.8,0-5,2.2-5,5s2.2,5,5,5h24.6c2.4,0,4.3,1.9,4.3,4.3s-1.9,4.3-4.3,4.3h-50.6
							c-2.8,0-5,2.2-5,5s2.2,5,5,5h50.6c7.9,0,14.3-6.4,14.3-14.3S4387.8,1800.2,4380,1800.2z"/>
					</g>
					<g>
						<path class="st5" d="M4389.6,1768.2h-34.3v18.5h34.3c4.3,0,7.8-4.1,7.8-9.3S4393.9,1768.2,4389.6,1768.2z"/>
						<path class="st1" d="M4389.6,1763.2h-34.3c-2.8,0-5,2.2-5,5s2.2,5,5,5h34.3c1.3,0,2.8,1.8,2.8,4.3c0,2.5-1.5,4.3-2.8,4.3
							h-34.3c-2.8,0-5,2.2-5,5s2.2,5,5,5h34.3c7.1,0,12.8-6.4,12.8-14.3C4402.4,1769.6,4396.7,1763.2,4389.6,1763.2z"/>
					</g>
				</g>
			</g>
			<g>
				<path class="st5" d="M4539.8,1719.9c-16-15.1-33-23.3-33-23.3l-3,55.6l58.5,41.9l3.7-25.2
					C4566.1,1768.8,4561.3,1740.3,4539.8,1719.9z"/>
				<path class="st1" d="M4543.3,1716.3c-16.3-15.5-33.5-23.9-34.2-24.2c-1.5-0.7-3.3-0.7-4.7,0.2c-1.4,0.9-2.4,2.4-2.4,4l-3,55.6
					c-0.1,1.7,0.7,3.3,2.1,4.3l58.5,41.9c0.9,0.6,1.9,0.9,2.9,0.9c0.7,0,1.3-0.1,2-0.4c1.6-0.7,2.7-2.1,3-3.9l3.7-25.2
					c0.1-0.5,0.1-1,0-1.6C4570.8,1766.8,4565.7,1737.6,4543.3,1716.3z M4558.7,1785.2l-49.7-35.5l2.4-44.9
					c6.2,3.7,15.8,10.1,25,18.7c18.1,17.2,23.8,41,24.7,45.4L4558.7,1785.2z"/>
			</g>
			<g>
				<path class="st2" d="M4592.2,1605.9l-6.9,304.2c14.4,34.6,51.6,52,83,38.9l0,0c31.4-13.1,45.2-51.8,30.8-86.4L4592.2,1605.9z"/>
				<path class="st1" d="M4596.8,1604c-1.1-2.5-4-3.8-6.5-2.7c-2.5,1.1-3.8,4-2.7,6.5l107,256.7c6.5,15.6,7.1,32.5,1.7,47.6
					c-5.3,15-15.9,26.4-29.8,32.2c-13.9,5.8-29.5,5.3-43.9-1.5c-14.6-6.8-26.1-19.2-32.6-34.7c-1.1-2.5-4-3.8-6.5-2.7
					c-2.5,1.1-3.8,4-2.7,6.5c7.5,17.9,20.8,32.1,37.6,40c9.1,4.3,18.7,6.4,28.1,6.4c8.1,0,16.2-1.6,23.8-4.8
					c33.9-14.1,49-55.8,33.5-92.9L4596.8,1604z"/>
			</g>
			<g>
				<rect x="4367.9" y="1617.3" class="st5" width="172.3" height="266.8"/>
				<path class="st1" d="M4540.2,1612.3h-172.3c-2.8,0-5,2.2-5,5v266.8c0,2.8,2.2,5,5,5h172.3c2.8,0,5-2.2,5-5v-266.8
					C4545.2,1614.5,4543,1612.3,4540.2,1612.3z M4535.2,1879.1h-162.3v-256.8h162.3V1879.1z"/>
			</g>
			<g>
				<path class="st5" d="M4518.6,1728.8h-40.9l-9.3,6.3l4.8,66.3l70,4.8l2.5-58.1l-9.7-11.3
					C4531.7,1731.7,4525.3,1728.8,4518.6,1728.8z"/>
				<path class="st1" d="M4539.9,1733.6c-5.3-6.2-13.1-9.8-21.3-9.8h-40.9c-1,0-2,0.3-2.8,0.9l-9.3,6.3c-1.5,1-2.3,2.7-2.2,4.5
					l4.8,66.3c0.2,2.5,2.2,4.5,4.6,4.6l70,4.8c0.1,0,0.2,0,0.3,0c2.6,0,4.8-2,5-4.7c0.2-2.8-1.9-5.1-4.6-5.3l-65.7-4.5l-4.3-59.1
					l5.6-3.8h39.4c5.3,0,10.3,2.3,13.7,6.3l9.7,11.3c1.8,2.1,5,2.3,7,0.5c2.1-1.8,2.3-5,0.5-7.1L4539.9,1733.6z"/>
			</g>
			<g>
				<g>
					<path class="st5" d="M4408.7,1738.1c0,5.1,4.1,9.3,9.3,9.3h60l21.7-18.5H4418C4412.9,1728.8,4408.7,1732.9,4408.7,1738.1z"/>
					<path class="st1" d="M4499.7,1723.8H4418c-7.9,0-14.3,6.4-14.3,14.3s6.4,14.3,14.3,14.3h60c2.8,0,5-2.2,5-5s-2.2-5-5-5h-60
						c-2.4,0-4.3-1.9-4.3-4.3s1.9-4.3,4.3-4.3h81.7c2.8,0,5-2.2,5-5S4502.5,1723.8,4499.7,1723.8z"/>
				</g>
				<g>
					<path class="st5" d="M4408.7,1775.1L4408.7,1775.1c0,5.1,4.1,9.3,9.3,9.3h73.4v-18.5H4418
						C4412.9,1765.9,4408.7,1770,4408.7,1775.1z"/>
					<path class="st1" d="M4418,1770.9h73.4c2.8,0,5-2.2,5-5s-2.2-5-5-5H4418c-7.9,0-14.3,6.4-14.3,14.3s6.4,14.3,14.3,14.3h73.4
						c2.8,0,5-2.2,5-5s-2.2-5-5-5H4418c-2.4,0-4.3-1.9-4.3-4.3S4415.7,1770.9,4418,1770.9z"/>
				</g>
				<g>
					<path class="st5" d="M4443.9,1784.4c-5.1,0-9.3,4.1-9.3,9.3s4.1,9.3,9.3,9.3h73.4l-25.9-18.5H4443.9z"/>
					<path class="st1" d="M4517.3,1797.9h-73.4c-2.4,0-4.3-1.9-4.3-4.3s1.9-4.3,4.3-4.3h47.5c2.8,0,5-2.2,5-5s-2.2-5-5-5h-47.5
						c-7.9,0-14.3,6.4-14.3,14.3s6.4,14.3,14.3,14.3h73.4c2.8,0,5-2.2,5-5S4520.1,1797.9,4517.3,1797.9z"/>
				</g>
				<g>
					<path class="st5" d="M4397.8,1756.6c0,5.1,4.1,9.3,9.3,9.3h84.3v-18.5H4407C4401.9,1747.3,4397.8,1751.5,4397.8,1756.6z"/>
					<path class="st1" d="M4407,1752.3h84.3c2.8,0,5-2.2,5-5s-2.2-5-5-5H4407c-7.9,0-14.3,6.4-14.3,14.3s6.4,14.3,14.3,14.3h84.3
						c2.8,0,5-2.2,5-5s-2.2-5-5-5H4407c-2.4,0-4.3-1.9-4.3-4.3S4404.7,1752.3,4407,1752.3z"/>
				</g>
			</g>
			<g>
				
					<rect x="4538.6" y="1767.4" transform="matrix(0.7925 -0.6099 0.6099 0.7925 -171.6789 3174.5256)" class="st2" width="80.9" height="144.2"/>
				<path class="st1" d="M4571,1754.7c-0.8-1.1-2-1.7-3.3-1.9c-1.3-0.2-2.6,0.2-3.7,1l-64.1,49.3c-2.2,1.7-2.6,4.8-0.9,7l88,114.3
					c1,1.3,2.5,2,4,2c1.1,0,2.1-0.3,3-1c2.2-1.7,2.6-4.8,0.9-7L4510,1808l56.2-43.2l84.9,110.3c1.7,2.2,4.8,2.6,7,0.9
					c2.2-1.7,2.6-4.8,0.9-7L4571,1754.7z"/>
			</g>
			<g>
				<polygon class="st2" points="4223.6,1872 4287.7,1921.3 4341.2,1835.6 4277.2,1786.3 				"/>
				<path class="st1" d="M4344.3,1831.6l-64.1-49.3c-1.1-0.9-2.5-1.2-3.9-1c-1.4,0.2-2.6,1.1-3.4,2.3l-53.6,85.7
					c-1.5,2.3-0.8,5.4,1.6,6.9c2.3,1.5,5.4,0.7,6.9-1.6l50.6-81.1l56.1,43.2l-51.2,81.9c-1.5,2.3-0.8,5.4,1.6,6.9
					c0.8,0.5,1.7,0.8,2.6,0.8c1.7,0,3.3-0.8,4.2-2.4l53.6-85.7C4346.8,1836.1,4346.3,1833.2,4344.3,1831.6z"/>
			</g>
			<g>
				<g>
					<path class="st5" d="M4528.9,1378.6h-25c-1.1,0-1.9,0.9-1.9,2l-4.9,62.3c0,1.1,0.9,2,1.9,2h25c10,0,16.5-7.8,18-18.6l4.9-29.2
						C4548.3,1386.7,4538.9,1378.6,4528.9,1378.6z"/>
					<path class="st1" d="M4528.9,1373.6h-25c-3.7,0-6.8,3-6.9,6.8l-4.8,62.2c0,0.1,0,0.3,0,0.4c0,3.9,3.1,7,6.9,7h25
						c11.9,0,20.9-9,23-22.8l4.8-29.1c0-0.1,0-0.1,0-0.2c0.8-5.9-1-11.6-5-16.1C4542.5,1376.6,4535.8,1373.6,4528.9,1373.6z
						 M4542,1396.5l-4.8,29.1c0,0,0,0.1,0,0.1c-0.5,3.4-2.9,14.3-13.1,14.3h-21.6l4.4-56.3h22.1c3.9,0,8,1.8,10.5,4.7
						C4540.9,1389.9,4542.5,1392.7,4542,1396.5z"/>
				</g>
				<g>
					<path class="st5" d="M4374.6,1378.6h-25c-10,0-19.4,8.1-18,18.6l4.9,29.2c1.6,10.8,8.1,18.6,18,18.6h25c1.1,0,1.9-0.9,1.9-2
						l-4.9-62.3C4376.6,1379.5,4375.7,1378.6,4374.6,1378.6z"/>
					<path class="st1" d="M4381.6,1380.4c-0.1-3.7-3.2-6.8-6.9-6.8h-25c-6.8,0-13.6,3-18,8.1c-4,4.6-5.8,10.3-5,16.1
						c0,0.1,0,0.1,0,0.2l4.8,29.1c2,13.9,11,22.8,23,22.8h25c3.8,0,6.9-3.1,6.9-7c0-0.1,0-0.3,0-0.4L4381.6,1380.4z M4354.5,1439.9
						c-10.2,0-12.6-11-13.1-14.3c0,0,0-0.1,0-0.1l-4.8-29.1c-0.5-3.8,1.1-6.5,2.6-8.2c2.5-2.9,6.5-4.7,10.5-4.7h22.1l4.4,56.3
						H4354.5z"/>
				</g>
			</g>
			<g>
				<path class="st5" d="M4484.2,1308h-33.6h-56.3c-21.1,0-38.2,17.1-38.2,38.2v0v86.9c0,50.8,36.7,96.8,81.5,96.8h3.3
					c44.8,0,81.5-46,81.5-96.8v-86.9C4522.5,1325.1,4505.4,1308,4484.2,1308z"/>
				<path class="st1" d="M4484.2,1303h-89.9c-23.8,0-43.2,19.4-43.2,43.2v86.9c0,25.6,9.1,51.3,25.1,70.6
					c16.6,20.1,38.5,31.2,61.4,31.2h3.3c23,0,44.8-11.1,61.4-31.2c15.9-19.3,25.1-45,25.1-70.6v-86.9
					C4527.5,1322.4,4508.1,1303,4484.2,1303z M4517.5,1433.1c0,23.3-8.3,46.7-22.8,64.2c-14.7,17.8-33.8,27.5-53.7,27.5h-3.3
					c-19.9,0-39-9.8-53.7-27.5c-14.5-17.5-22.8-40.9-22.8-64.2v-86.9c0-18.3,14.9-33.2,33.2-33.2h89.9c18.3,0,33.2,14.9,33.2,33.2
					V1433.1z"/>
			</g>
			<g>
				<path class="st3" d="M4390.7,1256.7c-21.4,0-50.5,19.2-50.2,51v39l15.7-0.4c0-14.6,20.6-38.2,50.1-38.2h44.5
					c43,0,39.1-51.4,39.1-51.4H4390.7z"/>
				<path class="st1" d="M4489.8,1251.7h-99.1c-13.6,0-28.6,6.7-39.3,17.4c-7.3,7.4-16,20.1-15.9,38.5v39c0,2.8,2.2,5,5,5s5-2.2,5-5
					v-39c-0.1-15.1,7-25.4,13-31.4c8.7-8.8,21.4-14.5,32.2-14.5h94.2c-0.2,7.5-1.7,22.5-10.7,32.2c-5.6,6.1-13.5,9.1-23.4,9.1h-44.5
					c-14.4,0-28.4,5.3-39.4,14.9c-9.7,8.5-15.7,19.3-15.7,28.4c0,2.8,2.2,5,5,5s5-2.2,5-5c0-11.4,17.6-33.2,45.1-33.2h44.5
					c12.8,0,23.2-4.2,30.8-12.3c15.2-16.5,13.4-43.3,13.3-44.4C4494.6,1253.7,4492.4,1251.7,4489.8,1251.7z"/>
			</g>
			<g>
				<path class="st1" d="M4522.4,1602c-2.8,0-5,2.2-5,5v18.9c0,2.8,2.2,5,5,5s5-2.2,5-5V1607C4527.4,1604.2,4525.2,1602,4522.4,1602
					z"/>
				<path class="st1" d="M4499.6,1602c-2.8,0-5,2.2-5,5v18.9c0,2.8,2.2,5,5,5s5-2.2,5-5V1607C4504.6,1604.2,4502.4,1602,4499.6,1602
					z"/>
				<path class="st1" d="M4476.8,1602c-2.8,0-5,2.2-5,5v18.9c0,2.8,2.2,5,5,5s5-2.2,5-5V1607C4481.8,1604.2,4479.6,1602,4476.8,1602
					z"/>
				<path class="st1" d="M4454.1,1602c-2.8,0-5,2.2-5,5v18.9c0,2.8,2.2,5,5,5s5-2.2,5-5V1607C4459.1,1604.2,4456.8,1602,4454.1,1602
					z"/>
				<path class="st1" d="M4431.3,1602c-2.8,0-5,2.2-5,5v18.9c0,2.8,2.2,5,5,5s5-2.2,5-5V1607C4436.3,1604.2,4434,1602,4431.3,1602z"
					/>
				<path class="st1" d="M4408.5,1602c-2.8,0-5,2.2-5,5v18.9c0,2.8,2.2,5,5,5s5-2.2,5-5V1607C4413.5,1604.2,4411.2,1602,4408.5,1602
					z"/>
				<path class="st1" d="M4385.7,1602c-2.8,0-5,2.2-5,5v18.9c0,2.8,2.2,5,5,5s5-2.2,5-5V1607C4390.7,1604.2,4388.5,1602,4385.7,1602
					z"/>
			</g>
		</g>
	</g>
</g>
<path class="st1" d="M5654.1,3858H345.9c-2.8,0-5,2.2-5,5s2.2,5,5,5h5308.1c2.8,0,5-2.2,5-5S5656.8,3858,5654.1,3858z"/>
<g>
	<path class="st4" d="M3514.2,967.4H1886c-126.1,0-229.4,103.2-229.4,229.4v76.5h1173.1v-76.5c0-126.1,694.9-229.4,821-229.4h-107.3
		H3514.2z"/>
	<path class="st1" d="M3650.8,962.4H1886c-62.3,0-121.1,24.4-165.5,68.8c-44.4,44.4-68.8,103.2-68.8,165.5v76.5c0,2.8,2.2,5,5,5
		h1173.1c2.8,0,5-2.2,5-5v-76.5c0-26.5,37.2-55.7,107.4-84.4c61.1-25,145.9-49.4,251.8-72.7c189.9-41.7,394-67.3,456.8-67.3
		c2.8,0,5-2.2,5-5C3655.8,964.6,3653.6,962.4,3650.8,962.4z M3191.9,1029.8c-106.5,23.4-191.8,48-253.5,73.2
		c-35.4,14.5-62.9,29.2-81.6,43.7c-21.3,16.5-32,33.3-32,50v71.5H1661.7v-71.5c0-59.7,23.4-115.9,65.9-158.4
		c42.5-42.5,98.8-65.9,158.4-65.9h1644.8C3438.3,983.5,3312.2,1003.4,3191.9,1029.8z"/>
</g>
<g>
	<path class="st0" d="M4031.4,3636.8l-0.4-3.7V1196.7c0-125.9-102-228.7-227.9-228.7H1886c22.8,0,44.9,3.2,65.8,9.5
		c95.5,28.5,159.9,116.3,162.2,215.9l-1,3.4v2436.4c0,125.9,104.8,229.9,230.7,229.9h1917.1c-22.8,0-44.9-3.8-65.8-10.1
		C4099.5,3824.4,4033.7,3736.4,4031.4,3636.8z"/>
	<path class="st1" d="M4260.8,3858c-20.8,0-42.4-3.3-64.4-9.9c-45.7-13.6-85.2-41.2-114.2-79.6c-28.9-38.3-44.7-83.9-45.8-131.9
		c0-0.2,0-0.3,0-0.5l-0.4-3.4V1196.7c0-128.9-104.5-233.7-232.9-233.7H1886c-2.8,0-5,2.2-5,5s2.2,5,5,5c22.1,0,43.7,3.1,64.4,9.3
		c92.4,27.6,156,112.1,158.6,210.4l-0.8,2.6c-0.1,0.5-0.2,0.9-0.2,1.4v2436.4c0,62.2,24.7,121,69.6,165.7
		c44.8,44.6,103.8,69.2,166.1,69.2h1917.1c2.8,0,5-2.2,5-5S4263.5,3858,4260.8,3858z M2343.7,3858c-59.6,0-116.1-23.5-159-66.3
		c-43-42.8-66.7-99.1-66.7-158.6V1197.4l0.8-2.7c0.1-0.5,0.2-1,0.2-1.5c-2.3-102.7-68.5-191-164.7-220.2h1848.8
		c122.9,0,222.9,100.4,222.9,223.7v2436.4c0,0.2,0,0.4,0,0.6l0.4,3.4c1.2,50,17.7,97.5,47.8,137.4c30.3,40.2,71.6,68.9,119.3,83.2
		c0.3,0.1,0.6,0.2,0.9,0.3H2343.7z"/>
</g>
<g>
	<path class="st5" d="M2571,3633.1c0,126.1-101.1,230.9-227.3,230.9h1917.1c126.1,0,227.2-104.7,227.2-230.9V3558H2571V3633.1z"/>
	<path class="st1" d="M4488,3553H2571c-2.8,0-5,2.2-5,5v75.1c0,124.6-99.7,225.9-222.3,225.9c-2.8,0-5,2.2-5,5s2.2,5,5,5h1917.1
		c128,0,232.2-105.8,232.2-235.9V3558C4493,3555.2,4490.8,3553,4488,3553z M4483,3633.1c0,124.6-99.7,225.9-222.2,225.9H2410.7
		c95.5-29.3,165.3-119.5,165.3-225.9V3563h1907V3633.1z"/>
</g>
<g>
	<g>
		<g>
			<g>
				<g>
					<path class="st5" d="M4778.4,2692.9l-17.5,132.8l90.9,3.5c0-10.5,0-136.3,0-136.3l-26.4-66.6L4778.4,2692.9z"/>
					<path class="st1" d="M4830,2624.4c-0.7-1.7-2.2-2.9-4.1-3.1c-1.8-0.2-3.6,0.6-4.7,2.1l-47,66.6c-0.5,0.7-0.8,1.4-0.9,2.2
						l-17.5,132.8c-0.2,1.4,0.2,2.8,1.1,3.9c0.9,1.1,2.2,1.7,3.6,1.8l90.9,3.5c0.1,0,0.1,0,0.2,0c1.3,0,2.5-0.5,3.5-1.4
						c1-0.9,1.5-2.2,1.5-3.6v-136.3c0-0.6-0.1-1.3-0.4-1.8L4830,2624.4z M4846.8,2824l-80.2-3.1l16.6-126.2l41-58.1l22.7,57.1V2824z
						"/>
				</g>
				<g>
					<path class="st5" d="M4714.4,2612.6l-3.7,37.3l-13.2,19.4c-2,2.9,0.1,6.7,3.6,6.7h6.9l-3,30.2c-2.3,22.8,17.7,41.8,40.4,38
						l56.8-9.5l39.2-161.1l-75.8-4.6C4739.6,2567.4,4717,2586.7,4714.4,2612.6z"/>
					<path class="st1" d="M4841.7,2568.6l-75.8-4.6c-28.8-1.7-53.7,19.4-56.5,48.1l-3.6,36.1l-12.5,18.3c-1.9,2.9-2.1,6.5-0.5,9.5
						c1.6,3.1,4.8,5,8.3,5h1.4l-2.5,24.7c-1.2,12.5,3.3,24.6,12.5,33.2c7.5,7,17.1,10.8,27.1,10.8c2.2,0,4.4-0.2,6.6-0.5l56.8-9.5
						c2.7-0.5,4.6-3,4.1-5.8c-0.5-2.7-3-4.6-5.8-4.1l-56.8,9.5c-9.2,1.5-18.4-1.3-25.2-7.7c-6.9-6.5-10.3-15.5-9.4-24.9l3-30.2
						c0.1-1.4-0.3-2.8-1.3-3.9c-0.9-1-2.3-1.6-3.7-1.6h-5.6l12.4-18.2c0.5-0.7,0.8-1.5,0.8-2.3l3.7-37.3c2.3-23.4,22.5-40.6,46-39.1
						l75.8,4.6c2.8,0.2,5.1-1.9,5.3-4.7C4846.6,2571.2,4844.5,2568.8,4841.7,2568.6z"/>
				</g>
				<g>
					<path class="st2" d="M4719.1,2529.9c-13.7,11.5-15,49,7,55c14.1,3.8,46.5,10.7,60.8,21.9c11.2,8.8,18.8,21.2,21.7,35.1
						l11.4,55.1c1.3,6.1,5,11.5,10.2,14.9l19.4,12.5c0.8,0.5,1.5,1,2.1,1.3c0,0,103.2-90.5,53.4-170.9
						C4867.1,2493.4,4751.1,2502.9,4719.1,2529.9z"/>
					<path class="st1" d="M4830.1,2506.3c-42.8-6.8-93,1.9-114.2,19.8c-9.5,8-14,25.6-10.6,40.9c2.6,12,9.6,20,19.6,22.8
						c2.2,0.6,4.9,1.3,7.9,2c14.9,3.8,39.9,10.2,51.1,18.9c10.2,8,17.3,19.4,19.9,32.2l11.4,55.1c1.5,7.4,6.1,14,12.4,18.1
						l19.3,12.5c0.9,0.6,1.7,1.1,2.4,1.5c0.8,0.4,1.6,0.7,2.5,0.7c1.2,0,2.4-0.4,3.3-1.2c1.1-0.9,26.6-23.5,46.4-56.5
						c26.6-44.5,29.4-86.2,8-120.8C4890.5,2521.7,4855.8,2510.4,4830.1,2506.3z M4892.9,2667.8c-15.3,25.5-34.7,45-41.8,51.8
						l-18.2-11.7c-4.1-2.7-7-6.9-8-11.7l-11.4-55.1c-3.1-15.1-11.5-28.6-23.5-38.1c-12.9-10.1-38.1-16.5-54.8-20.8
						c-3-0.8-5.6-1.4-7.7-2c-8-2.2-11.2-9.5-12.4-15.3c-2.5-11.4,0.8-25.6,7.3-31.1c12.9-10.9,43.4-19.8,77.2-19.8
						c9.5,0,19.2,0.7,29,2.2c42.8,6.8,63,26.2,72.3,41.3C4920.4,2589.1,4917.8,2626.2,4892.9,2667.8z"/>
				</g>
				<g>
					<path class="st5" d="M4816.9,2636.8c-5.1,0-10.6,2.3-15.2,5.9l7.2,40.5c11.6,0,21.6-6.8,24.7-22.9
						C4835.8,2648.9,4828.5,2636.8,4816.9,2636.8z"/>
					<path class="st1" d="M4816.9,2631.8c-6,0-12.6,2.5-18.3,6.9c-2.2,1.7-2.6,4.8-0.9,7c1.7,2.2,4.8,2.6,7,0.9
						c3.9-3.1,8.4-4.8,12.1-4.8c4.2,0,7,2.3,8.6,4.2c2.9,3.5,4.1,8.6,3.2,13.4c-2.4,12.3-9.2,18.8-19.8,18.8c-2.8,0-5,2.2-5,5
						s2.2,5,5,5c15.3,0,26.4-10.1,29.6-26.9c1.5-7.7-0.5-15.8-5.3-21.6C4829,2634.6,4823.3,2631.8,4816.9,2631.8z"/>
				</g>
			</g>
		</g>
	</g>
	<g>
		<g>
			<path class="st5" d="M4352.3,2904.1c-16.6-4.5-39.7,13-49.1,30.6c-3.2,6,2.1,13,8.8,11.8l15.7-2.9l76.8,0.3l-18.6-32.4
				L4352.3,2904.1z"/>
			<path class="st1" d="M4390.4,2909.2c-0.7-1.2-1.9-2.1-3.2-2.4l-33.6-7.5c-9-2.4-20.1,0.4-31.2,7.7c-9.7,6.4-18.5,15.9-23.5,25.4
				c-2.4,4.4-2,9.7,1,13.8c2.6,3.5,6.5,5.5,10.7,5.5c0.8,0,1.6-0.1,2.4-0.2l15.3-2.8l76.3,0.3c0,0,0,0,0,0c1.8,0,3.4-0.9,4.3-2.5
				c0.9-1.5,0.9-3.5,0-5L4390.4,2909.2z M4327.8,2938.7c-0.3,0-0.6,0-0.9,0.1l-15.7,2.9c-1.9,0.3-3-0.9-3.3-1.3
				c-0.3-0.5-1.1-1.7-0.3-3.2c7.6-14.2,25.6-28.7,39.1-28.7c1.5,0,2.9,0.2,4.3,0.5c0.1,0,0.1,0,0.2,0.1l31.6,7.1l13.1,22.9
				L4327.8,2938.7z"/>
		</g>
		<g>
			<path class="st5" d="M4386,2911.7l-8.6,14.8l-32.5-7.6c-4.7-1.1-9.5,1.8-10.6,6.6l0,0c-1.1,4.7,1.8,9.5,6.5,10.6l51.3,12
				c7.1,1.7,13.2-2,19.1-5.5c1.9-1.2,32.3,22,35.9,20.1c4.9-2.7-17.1-39.1-17.1-39.1L4386,2911.7z"/>
			<path class="st1" d="M4434.2,2921c-0.7-1.1-1.7-1.9-3-2.2l-43.9-11.9c-2.7-0.7-5.4,0.9-6.1,3.5c-0.7,2.7,0.9,5.4,3.5,6.1l42,11.4
				c5.6,9.4,11.3,20.1,14.1,26.9c-4.1-2.5-9.4-5.9-13.1-8.3c-13.3-8.7-15.7-10.3-19.2-8.1c-5.2,3.2-10.1,6.1-15.3,4.9l-51.3-12
				c-1-0.2-1.8-0.8-2.3-1.7c-0.5-0.9-0.7-1.9-0.5-2.9c0.5-2.1,2.5-3.3,4.6-2.9l32.5,7.6c2.7,0.6,5.4-1,6-3.7c0.6-2.7-1-5.4-3.7-6
				l-32.5-7.6c-7.4-1.7-14.9,2.9-16.6,10.3c-0.9,3.6-0.2,7.3,1.7,10.5c1.9,3.1,5,5.3,8.6,6.2l51.3,12c8.2,1.9,15-1.5,20.7-4.9
				c2.5,1.4,7,4.4,10.6,6.7c14.2,9.3,20.3,13,24.3,13c1.1,0,2-0.3,2.9-0.7c1.5-0.8,2.6-2.2,3.1-3.9c0.8-2.8,0.8-7.2-8.6-25
				C4439.2,2929.2,4434.4,2921.3,4434.2,2921z"/>
		</g>
		<g>
			<polygon class="st2" points="4392.4,2942.5 4462.4,2930.4 4400.5,2913.7 			"/>
			<path class="st1" d="M4463.7,2925.6l-61.9-16.7c-2.6-0.7-5.4,0.8-6.1,3.5l-8.1,28.7c-0.8,2.7,0.8,5.4,3.4,6.2
				c0.5,0.1,0.9,0.2,1.4,0.2c2.2,0,4.2-1.4,4.8-3.6l6.8-24l57.1,15.4c2.7,0.7,5.4-0.9,6.1-3.5
				C4468,2929,4466.4,2926.3,4463.7,2925.6z"/>
		</g>
		<g>
			<path class="st2" d="M4580.3,2962.2l-179.7-48.5l-15.3,53.9l183.8,80c18.5,8,40,3.3,53.5-11.7l125.8-140.2l-70.1-79.1
				L4580.3,2962.2z"/>
			<path class="st1" d="M4744.6,2892.4l-125.8,140.2c-12,13.4-31.2,17.6-47.8,10.4l-179.8-78.3l12.7-45l175,47.2
				c2.1,0.6,4.3-0.3,5.5-2l98-145.6c1.5-2.3,0.9-5.4-1.4-6.9c-2.3-1.5-5.4-0.9-6.9,1.4l-96,142.6l-176.3-47.6
				c-2.6-0.7-5.4,0.8-6.1,3.5l-15.3,53.9c-0.7,2.4,0.5,4.9,2.8,5.9l183.8,80c6.7,2.9,13.7,4.3,20.7,4.3c14.4,0,28.5-6,38.5-17.2
				l125.8-140.2c1.8-2.1,1.7-5.2-0.4-7.1S4746.5,2890.3,4744.6,2892.4z"/>
		</g>
		<g>
			<g>
				<path class="st4" d="M4590.8,3840.8c-9.1,6.3-5.4,23.1,5.1,23.1h138.2c8.3,0,15-8.1,15-18.1v-45.7h-65.3L4590.8,3840.8z"/>
				<path class="st1" d="M4749.1,3795.1h-65.3c-0.7,0-1.4,0.1-2,0.4l-93,40.8c-0.3,0.1-0.6,0.3-0.8,0.5c-6.2,4.3-8.9,12.8-6.4,20.7
					c2.2,7.1,7.7,11.5,14.3,11.5h138.2c11,0,20-10.4,20-23.1v-45.7C4754.1,3797.3,4751.8,3795.1,4749.1,3795.1z M4744.1,3845.8
					c0,7.2-4.5,13.1-10,13.1h-138.2c-3.1,0-4.4-3.4-4.8-4.4c-0.9-3-0.6-7.1,2.2-9.3l91.6-40.1h59.2V3845.8z"/>
			</g>
			<g>
				<polygon class="st2" points="4841.7,3800.1 4923.6,3800.1 4923.6,3226.9 4801.9,3226.9 				"/>
				<path class="st1" d="M4923.6,3221.9h-121.7c-1.4,0-2.7,0.6-3.7,1.6c-0.9,1-1.4,2.4-1.3,3.8l39.8,573.2c0.2,2.6,2.4,4.7,5,4.7
					h81.9c2.8,0,5-2.2,5-5v-573.2C4928.6,3224.1,4926.3,3221.9,4923.6,3221.9z M4918.6,3795.1h-72.2l-39.1-563.2h111.3V3795.1z"/>
			</g>
			<g>
				<g>
					<polygon class="st3" points="4669.9,3800.1 4749.1,3800.1 4788.9,3226.9 4667.2,3226.9 					"/>
					<path class="st1" d="M4788.9,3221.9h-121.7c-1.3,0-2.6,0.5-3.5,1.5s-1.5,2.2-1.5,3.6l2.7,573.2c0,2.8,2.2,5,5,5h79.2
						c2.6,0,4.8-2,5-4.7l39.8-573.2c0.1-1.4-0.4-2.7-1.3-3.8C4791.6,3222.5,4790.2,3221.9,4788.9,3221.9z M4744.4,3795.1h-69.5
						l-2.6-563.2h111.3L4744.4,3795.1z"/>
				</g>
			</g>
			<g>
				<polygon class="st3" points="4753.1,3297.2 4806.8,3297.2 4841.7,3800.1 4923.6,3800.1 4923.6,3226.9 4667.2,3226.9 				"/>
				<path class="st1" d="M4923.6,3221.9h-256.4c-2.8,0-5,2.2-5,5s2.2,5,5,5h251.4v563.2h-72.2l-34.6-498.2c-0.2-2.6-2.4-4.7-5-4.7
					h-53.7c-2.8,0-5,2.2-5,5s2.2,5,5,5h49l34.6,498.2c0.2,2.6,2.4,4.7,5,4.7h81.9c2.8,0,5-2.2,5-5v-573.2
					C4928.6,3224.1,4926.3,3221.9,4923.6,3221.9z"/>
			</g>
			<g>
				<path class="st4" d="M4770.6,3840.8c-8.8,6.3-5.2,23.1,4.9,23.1h133.6c8,0,14.5-8.1,14.5-18.1v-45.7h-63.1L4770.6,3840.8z"/>
				<path class="st1" d="M4923.6,3795.1h-63.1c-0.7,0-1.4,0.2-2.1,0.4l-89.9,40.8c-0.3,0.1-0.6,0.3-0.8,0.5c-6.2,4.4-8.7,13-6.1,21
					c2.2,6.9,7.5,11.2,13.9,11.2h133.6c10.8,0,19.5-10.4,19.5-23.1v-45.7C4928.6,3797.3,4926.3,3795.1,4923.6,3795.1z
					 M4918.6,3845.8c0,7.1-4.3,13.1-9.5,13.1h-133.6c-2.8,0-4.1-3.2-4.4-4.2c-1-3.1-0.6-7.3,2.1-9.5l88.4-40.1h57V3845.8z"/>
			</g>
		</g>
		<g>
			<path class="st2" d="M4868.7,2784.4h-136.5c-40.1,0-66.5,32.5-66.5,72.7l1.5,369.8h119h155.2v-369.8
				C4941.4,2816.9,4908.8,2784.4,4868.7,2784.4z"/>
			<path class="st1" d="M4868.7,2779.4h-136.5c-20.5,0-39,8.2-52,23c-12.5,14.2-19.5,33.6-19.5,54.7l1.5,369.8c0,2.8,2.2,5,5,5
				h274.2c2.8,0,5-2.2,5-5v-369.8C4946.4,2814.2,4911.5,2779.4,4868.7,2779.4z M4936.4,3221.9h-264.2l-1.5-364.8
				c0-39.2,25.9-67.7,61.5-67.7h136.5c37.3,0,67.7,30.4,67.7,67.7V3221.9z"/>
		</g>
		<g>
			<path class="st5" d="M4530.9,3123.3l-26.8,6.8c-3.6,17.8,31.5,41.1,53,35.9l61.5-16l-10.8-25.1L4530.9,3123.3z"/>
			<path class="st1" d="M4612.3,3122.9c-0.8-1.8-2.5-3-4.5-3l-76.8-1.7c-0.4,0-0.9,0-1.3,0.2l-26.8,6.8c-1.9,0.5-3.3,2-3.7,3.9
				c-1.6,7.9,2.2,16.8,10.7,24.9c9.7,9.4,26.1,17.7,40.7,17.7c2.7,0,5.3-0.3,7.7-0.9l61.5-16c1.4-0.4,2.6-1.3,3.2-2.6
				s0.7-2.8,0.1-4.2L4612.3,3122.9z M4555.9,3161.2c-10.8,2.6-28-3.7-39.1-14.3c-4.6-4.5-7.4-9-7.9-12.8l22.5-5.7l72.9,1.6l7.3,16.8
				L4555.9,3161.2z"/>
		</g>
		<g>
			<g>
				<rect x="4449.3" y="2943.4" class="st3" width="139.5" height="193.1"/>
				<path class="st1" d="M4588.8,2938.4h-139.5c-2.8,0-5,2.2-5,5v193.1c0,2.8,2.2,5,5,5h139.5c2.8,0,5-2.2,5-5v-193.1
					C4593.8,2940.6,4591.6,2938.4,4588.8,2938.4z M4583.8,3131.5h-129.5v-183.1h129.5V3131.5z"/>
			</g>
			<g>
				<rect x="4309.8" y="2943.4" class="st4" width="139.5" height="193.1"/>
				<path class="st1" d="M4449.3,2938.4h-139.5c-2.8,0-5,2.2-5,5v193.1c0,2.8,2.2,5,5,5h139.5c2.8,0,5-2.2,5-5v-193.1
					C4454.3,2940.6,4452.1,2938.4,4449.3,2938.4z M4444.3,3131.5h-129.5v-183.1h129.5V3131.5z"/>
			</g>
		</g>
		<g>
			<path class="st5" d="M4653.7,3119.8c-3.5-2-37.6,7.9-39.5,6.7c-5.8-3.7-11.8-7.5-18.9-6l-51.6,10.7c-4.8,1-7.8,5.7-6.8,10.4l0,0
				c1,4.8,5.7,7.8,10.4,6.9l32.7-6.8l8.2,15.1l51,6.8l2.7-15.1l0.6-8.7C4642.6,3139.7,4658.5,3122.6,4653.7,3119.8z"/>
			<path class="st1" d="M4656.2,3115.5c-3.3-1.9-8.5-1-27.7,3.4c-4.5,1-10.4,2.4-12.8,2.7c-5.8-3.7-12.8-7.7-21.4-5.9l-51.6,10.7
				c-3.6,0.7-6.7,2.9-8.7,5.9c-2,3.1-2.7,6.8-2,10.4c1.6,7.5,8.9,12.3,16.3,10.7l32.7-6.8c2.7-0.6,4.4-3.2,3.9-5.9
				c-0.6-2.7-3.2-4.4-5.9-3.9l-32.7,6.8c-2.1,0.4-4.1-0.9-4.5-3c-0.2-1,0-2,0.5-2.9c0.6-0.8,1.4-1.4,2.4-1.6l51.6-10.7
				c5.2-1.1,10.1,2,15.2,5.3c2.4,1.6,4.5,1.2,19.3-2.2c5-1.1,12.3-2.8,17.1-3.6c-2,3.1-5.4,7.5-8.9,11.4c-0.8,0.8-1.2,1.9-1.3,3.1
				l-0.6,8.5l-1.8,10.1l-46.3-6.2c-2.7-0.4-5.3,1.6-5.6,4.3c-0.4,2.7,1.6,5.3,4.3,5.6l51,6.8c0.2,0,0.4,0,0.7,0
				c2.4,0,4.5-1.7,4.9-4.1l2.7-15.1c0-0.2,0.1-0.4,0.1-0.6l0.5-7c6.2-6.9,12.9-15.8,12-21.4
				C4659.2,3118.3,4658,3116.5,4656.2,3115.5z"/>
		</g>
		<g>
			<path class="st2" d="M4889.5,2785.1l-28.8-0.2l4.7,126.8l-67.8,161.4l-181.8,38.7l-3.4,64.9l197.5-24.4
				c18.7,1.8,38.3-6.8,48.7-25.8l95-190.5c9.8-19.6,15.2-41.1,15.4-62.9C4969.2,2834.5,4956.9,2783.3,4889.5,2785.1z"/>
			<path class="st1" d="M4889.4,2780.1l-28.7-0.2c0,0,0,0,0,0c-2.7,0-5,2.2-5,5c0,2.8,2.2,5,5,5l28.8,0.2c0.1,0,0.1,0,0.2,0
				c23-0.6,40.8,5.2,53.1,17.2c9.8,9.6,21.4,28.8,21.2,65.7c-0.1,20.6-5.3,41.6-14.8,60.7l-94.9,190.4c-8.8,16-25.5,24.9-43.8,23.1
				c-0.4,0-0.7,0-1.1,0l-191.6,23.7l2.9-55.1l178.1-37.9c1.6-0.3,2.9-1.4,3.6-3l67.8-161.4c1.1-2.5-0.1-5.5-2.7-6.5
				c-2.5-1.1-5.5,0.1-6.5,2.7l-66.8,159l-179.3,38.1c-2.2,0.5-3.8,2.4-4,4.6l-3.4,64.9c-0.1,1.5,0.5,2.9,1.6,3.9
				c0.9,0.9,2.2,1.3,3.4,1.3c0.2,0,0.4,0,0.6,0l197-24.3c22.1,1.9,42.4-9,53-28.4c0-0.1,0.1-0.1,0.1-0.2l95-190.5
				c10.2-20.5,15.7-43,15.9-65.1c0.2-32-8.1-57.2-24.2-72.9C4935.5,2786.2,4915.2,2779.4,4889.4,2780.1z"/>
		</g>
	</g>
</g>
<g>
	<g>
		<g>
			<path class="st3" d="M1551.3,3834.9l17.5-40.8h-100.5l-34.6,78c-1.5,8,4.1,14.5,12.5,14.5h119.1c15.1,0,22.3-17.3,13.3-26.7
				L1551.3,3834.9z"/>
			<path class="st1" d="M1582.4,3856.1l-24.6-22.6l16-37.5c0.7-1.6,0.5-3.5-0.5-5c-1-1.5-2.7-2.3-4.6-2.3h-100.5
				c-2.2,0-4.2,1.3-5.1,3.2l-34.6,78c-0.2,0.4-0.3,0.8-0.4,1.1c-1,5.4,0.4,10.8,3.8,14.7c3.4,3.9,8.5,6.1,14.1,6.1h119.1
				c9.1,0,17.1-5,20.8-13.1c3.6-7.8,2.2-16.6-3.4-22.4C1582.6,3856.3,1582.5,3856.2,1582.4,3856.1z M1576,3874.6
				c-1.9,4.2-5.9,6.8-10.7,6.8h-119.1c-2.4,0-4.4-0.8-5.7-2.3c-1.2-1.4-1.8-3.4-1.5-5.5l32.9-74.2h88.6l-14.4,33.5
				c-0.9,2-0.3,4.3,1.3,5.8l27.2,25C1577.8,3867,1577.4,3871.5,1576,3874.6z"/>
		</g>
		<g>
			<path class="st3" d="M1808.2,3859.9l-31.9-25.1l0.6-40.8h-111.3v78c0,8,6.8,14.5,15.2,14.5h119.1
				C1814.9,3886.6,1818.9,3869.3,1808.2,3859.9z"/>
			<path class="st1" d="M1811.9,3856c-0.1-0.1-0.1-0.1-0.2-0.2l-29.9-23.5l0.6-38.3c0-1.4-0.6-2.8-1.6-3.8c-1-1-2.5-1.6-3.9-1.6
				h-111.3c-3.1,0-5.5,2.4-5.5,5.3v78c0,10.9,9.3,19.8,20.7,19.8h119.1c8.6,0,15.5-4.4,18.5-11.7
				C1821.6,3872,1819.1,3862.3,1811.9,3856z M1808,3876.3c-0.8,1.9-2.8,5-8.2,5h-119.1c-5.3,0-9.7-4.2-9.7-9.3v-72.7h100.2
				l-0.5,35.5c0,1.6,0.7,3.1,2,4.2l31.8,25C1808.9,3867.8,1809.4,3872.9,1808,3876.3z"/>
		</g>
		<g>
			<path class="st5" d="M2129.4,2894.5l-72,97.3l35.5,27.2c0,0,56.4-25.1,85.7-53.1c20.5-19.6-11.3-87.3-24-102.6
				C2137.8,2842.9,2129.4,2894.5,2129.4,2894.5z"/>
			<path class="st1" d="M2144.2,2853.6c-12.7,3.2-18.4,29.1-20.1,38.9l-71.2,96.3c-1.7,2.3-1.2,5.4,1.1,7.2l35.5,27.2
				c1,0.8,2.2,1.2,3.5,1.2c0.8,0,1.6-0.2,2.3-0.5c2.3-1,57.6-25.8,87.3-54.2c23.8-22.8-10.5-93.9-23.6-109.7
				C2153.3,2853,2147.8,2852.7,2144.2,2853.6z M2174.8,2962.2c-24.4,23.4-69,45-81.1,50.7l-28.8-22l68.9-93.3
				c0.5-0.7,0.8-1.4,0.9-2.2c0-0.1,1.4-8.5,4.1-16.9c3.8-11.9,7.3-14.6,8.1-14.6c0.2,0,1.4,0.5,3.3,2.8c6.2,7.5,16.9,27.9,23.5,48
				C2181.5,2938.1,2181.9,2955.4,2174.8,2962.2z"/>
		</g>
		<g>
			<path class="st3" d="M2150.9,2788.7H1892l-38.5,179.8l258.5-4.5l16.7-26.4l29.9-139.9C2159.7,2793.1,2155.9,2788.7,2150.9,2788.7
				z"/>
			<path class="st1" d="M2150.9,2783.4H1892c-2.6,0-4.9,1.8-5.4,4.2l-38.5,179.8c-0.3,1.6,0.1,3.2,1.2,4.4c1.1,1.2,2.6,1.9,4.3,1.9
				c0,0,0.1,0,0.1,0l258.5-4.5c1.9,0,3.6-1,4.6-2.6l16.7-26.4c0.3-0.5,0.6-1.1,0.7-1.7l29.9-139.9c0.8-3.8-0.2-7.7-2.7-10.7
				C2158.8,2785.1,2155,2783.4,2150.9,2783.4z M2153.3,2796.7l-29.7,139l-14.6,23.1l-248.6,4.3l36.2-169.1h254.4
				c1,0,1.6,0.5,1.8,0.8C2153,2795.1,2153.4,2795.8,2153.3,2796.7z"/>
		</g>
		<g>
			<path class="st4" d="M1869.1,2799.3l-32.4,151.6c-1.9,9.1,5.3,17.5,14.9,17.5h249.9l38.5-179.8h-257.2
				C1876.1,2788.7,1870.4,2793.1,1869.1,2799.3z"/>
			<path class="st1" d="M2140,2783.4h-257.2c-9.2,0-17.2,6.2-19,14.9l-32.4,151.6c-1.3,5.9,0.3,11.9,4.3,16.6
				c4,4.6,9.8,7.3,16.1,7.3h249.9c2.6,0,4.9-1.8,5.4-4.2l38.5-179.8c0.3-1.6-0.1-3.2-1.1-4.4
				C2143.2,2784.1,2141.6,2783.4,2140,2783.4z M2097,2963.2h-245.4c-2.9,0-5.7-1.2-7.5-3.4c-1.9-2.2-2.6-5-2-7.7l32.4-151.6
				c0.8-3.7,4.2-6.4,8.2-6.4h250.5L2097,2963.2z"/>
		</g>
		<polygon class="st3" points="1864.9,2949.2 2083.6,2949.2 2114.2,2806.3 1895.5,2806.3 		"/>
		<g>
			<g>
				<path class="st5" d="M1614.1,2550.1l-29.2,70.5c0,0,0,133.1,0,144.2l100.5-3.7l-19.3-140.5L1614.1,2550.1z"/>
				<path class="st1" d="M1671.5,2619.9c-0.1-0.8-0.4-1.7-1-2.4l-52-70.5c-1.2-1.6-3.2-2.4-5.2-2.2c-2,0.2-3.7,1.5-4.5,3.3
					l-29.2,70.5c-0.3,0.6-0.4,1.3-0.4,1.9v144.2c0,1.4,0.6,2.8,1.7,3.8c1,1,2.4,1.5,3.8,1.5c0.1,0,0.1,0,0.2,0l100.5-3.7
					c1.6-0.1,3-0.7,4-1.9c1-1.1,1.5-2.6,1.3-4.1L1671.5,2619.9z M1590.4,2759.3v-137.7l25-60.4l45.3,61.4l18.4,133.5L1590.4,2759.3z
					"/>
			</g>
			<g>
				<path class="st5" d="M1740.9,2575.2l-4.1-39.5c-2.9-27.4-27.9-47.8-56.7-46.2l-83.8,4.9l61,173.2l45.1,7.2
					c25,4,47.2-15.9,44.6-40l-3.3-31.7h7.6c3.9,0,6.2-4.2,4-7.3L1740.9,2575.2z"/>
				<path class="st1" d="M1746.2,2573.4l-4-38.2c-3.2-30.4-30.7-52.8-62.5-50.9l-83.8,4.9c-3,0.2-5.4,2.7-5.2,5.6
					c0.2,2.9,2.8,5.1,5.9,5l83.8-4.9c25.9-1.5,48.2,16.7,50.8,41.4l4.1,39.5c0.1,0.9,0.4,1.7,0.9,2.4l13.8,19.6h-6.4
					c-1.6,0-3.1,0.6-4.1,1.7c-1,1.1-1.6,2.6-1.4,4.1l3.3,31.7c1,9.9-2.7,19.4-10.3,26.2c-7.6,6.8-17.7,9.7-28,8.1l-45.1-7.2
					c-3-0.5-5.9,1.5-6.4,4.3c-0.5,2.9,1.5,5.6,4.5,6.1l45.1,7.2c2.5,0.4,4.9,0.6,7.4,0.6c11.1,0,21.7-4,30-11.4
					c10.1-9,15.1-21.8,13.7-34.9l-2.7-25.9h1.5c3.9,0,7.4-2,9.2-5.3c1.8-3.3,1.6-7.2-0.6-10.2L1746.2,2573.4z"/>
			</g>
			<g>
				<path class="st3" d="M1715.4,2445.7c-55.4,4.5-133.7-38.7-178.1,31.5c-54.2,85.6,47.6,178.2,47.6,178.2
					c0.7-0.4,54.2,2.1,72.8-14.2c17.3-15.2,15.1-44.2,17.8-54.8c5.7-22.7,20.4-57.8,34.6-71c23.8-22,48.3-26.9,46.2-48
					C1754.5,2449.5,1738.7,2443.8,1715.4,2445.7z"/>
				<path class="st1" d="M1714.9,2440.4l0.5,5.3L1714.9,2440.4c-15.4,1.3-32.9-1.4-51.4-4.1c-45.7-6.9-97.6-14.7-131,38.1
					c-23.2,36.7-22.1,80.4,3.3,126.4c18.9,34.2,44.1,57.4,45.2,58.4c1.1,1,2.4,1.5,3.8,1.5c0.2,0,0.4,0,0.7,0c0.2,0,0.5,0,0.8,0
					c0.4,0,1,0,1.6,0c36.9,0,61.6-5.2,73.4-15.5c14.7-12.9,16.8-33.8,18.1-47.7c0.4-4.1,0.7-7.6,1.3-9.8c6-23.7,20.7-56.9,33.1-68.4
					c7.8-7.2,15.8-12.6,22.8-17.3c14.3-9.6,26.7-18,25-35C1760.4,2453.2,1751.2,2437.5,1714.9,2440.4z M1587.6,2660
					C1587.6,2660,1587.6,2660,1587.6,2660S1587.6,2660,1587.6,2660z M1587.6,2660C1587.6,2660,1587.6,2660,1587.6,2660
					C1587.6,2660,1587.6,2660,1587.6,2660z M1587.6,2660C1587.6,2660,1587.7,2660,1587.6,2660C1587.7,2660,1587.6,2660,1587.6,2660z
					 M1730.4,2493.2c-7.4,5-15.7,10.6-24.2,18.4c-15.9,14.8-30.7,51.9-36.2,73.5c-0.7,2.9-1.1,6.8-1.6,11.3
					c-1.3,13-3,30.8-14.6,40.9c-6.7,5.8-23.5,12.8-65.9,12.8c-0.3,0-0.6,0-0.9,0c-5.8-5.6-26.1-26.2-41.5-54.2
					c-23.8-43.2-25-82.2-3.6-116c29.6-46.7,75.5-39.8,119.8-33.2c19.2,2.9,37.3,5.6,54,4.2h0c14.1-1.2,33.1-0.7,34.9,16.9
					C1751.8,2478.3,1744.9,2483.5,1730.4,2493.2z"/>
			</g>
			<g>
				<path class="st5" d="M1663.8,2586.9c3.4,17,14.5,24.2,27.3,24.2l7.9-42.8c-5.1-3.8-11.2-6.2-16.8-6.2
					C1669.4,2562.1,1661.4,2574.9,1663.8,2586.9z"/>
				<path class="st1" d="M1702.5,2564.1c-6.2-4.7-13.6-7.3-20.2-7.3c-7,0-13.4,2.9-18,8.3c-5.3,6.2-7.5,14.7-5.9,22.9
					c3.6,17.8,15.8,28.5,32.8,28.5c3.1,0,5.5-2.4,5.5-5.3s-2.5-5.3-5.5-5.3c-11.7,0-19.3-6.9-21.9-19.9c-1-5,0.4-10.4,3.6-14.1
					c1.7-2,4.8-4.4,9.5-4.4c4.2,0,9.1,1.9,13.4,5.1c2.4,1.8,5.9,1.4,7.8-0.9C1705.3,2569.2,1704.9,2565.9,1702.5,2564.1z"/>
			</g>
		</g>
		<g>
			<g>
				<polygon class="st0" points="1503.5,3463.2 1446.6,3819.4 1578.8,3819.4 1622,3465.7 1629.2,3269.4 1645.7,3261.5 1697.7,3147 
					1503.5,3147 				"/>
				<path class="st1" d="M1697.7,3141.7h-194.2c-3.1,0-5.5,2.4-5.5,5.3v315.8l-56.8,355.8c-0.2,1.5,0.2,3.1,1.3,4.2
					c1.1,1.2,2.6,1.8,4.2,1.8h132.2c2.8,0,5.2-2,5.5-4.7l43.2-353.8c0-0.1,0-0.3,0-0.4l7.1-193.1l13.5-6.5c2.7-1.3,3.8-4.5,2.5-7.1
					c-1.4-2.6-4.7-3.7-7.4-2.4l-16.5,7.9c-1.8,0.9-3,2.6-3.1,4.5l-7.2,196.1l-42.6,348.9H1453L1509,3464c0-0.3,0.1-0.5,0.1-0.8
					v-310.9h188.6c3.1,0,5.5-2.4,5.5-5.3C1703.2,3144,1700.7,3141.7,1697.7,3141.7z"/>
			</g>
			<g>
				<path class="st0" d="M1598,3250.6c23.2,31.6,67.5,37.9,67.5,37.9l-10.9,530.9h133l9.9-672.5h-132L1598,3250.6z"/>
				<path class="st1" d="M1797.6,3141.7h-132c-3.1,0-5.5,2.4-5.5,5.3c0,2.9,2.5,5.3,5.5,5.3H1792l-9.7,661.9h-121.9l10.7-525.5
					c0.1-2.7-2-4.9-4.7-5.3c-0.4-0.1-42.2-6.4-63.8-35.7c-1.8-2.4-5.2-3-7.7-1.3c-2.5,1.7-3.1,5-1.3,7.4
					c19.9,27.1,53.9,36.6,66.4,39.2l-10.8,526.5c0,1.4,0.5,2.8,1.6,3.8c1,1,2.5,1.6,3.9,1.6h133c3,0,5.5-2.3,5.5-5.2l9.9-672.5
					c0-1.4-0.6-2.8-1.6-3.8C1800.5,3142.2,1799.1,3141.7,1797.6,3141.7z"/>
			</g>
		</g>
		<g>
			<path class="st5" d="M1760.3,2731.7h-257.6c-27.6,0-48.9,23.4-45.1,49.6l8.6,331.7c2.8,19.5,20.3,34,40.8,34h290.6l30.3-368.2
				C1830,2753.4,1786.8,2731.7,1760.3,2731.7z"/>
			<path class="st1" d="M1760.3,2726.5h-257.6c-14.8,0-28.8,6.1-38.5,16.8c-9.6,10.6-14,24.6-12.1,38.5l8.6,331.4
				c0,0.2,0,0.4,0.1,0.6c3.2,22,23.1,38.6,46.3,38.6h290.6c2.9,0,5.3-2.1,5.5-4.9l30.3-368.2c0.7-9-3.1-18.1-11.2-26.5
				C1808,2738,1780.8,2726.5,1760.3,2726.5z M1822.4,2778.3l-29.9,363.4H1507c-17.6,0-32.7-12.5-35.3-29.2l-8.6-331.4
				c0-0.2,0-0.4-0.1-0.6c-1.6-11,1.8-22,9.4-30.4c7.6-8.4,18.6-13.1,30.2-13.1h257.6c17.5,0,41.7,10.2,53.8,22.8
				C1820.1,2766.1,1822.9,2772.3,1822.4,2778.3z"/>
		</g>
		<ellipse class="st2" cx="1971.8" cy="2871.9" rx="21" ry="20.1"/>
		<path class="st2" d="M2067.7,2839.5l-97.6,26.7c-3.3,0.9-5.2,4.2-4.2,7.3c0.8,2.6,3.2,4.3,5.9,4.3c0.6,0,1.1-0.1,1.7-0.2
			l97.6-26.7c3.3-0.9,5.2-4.2,4.2-7.3C2074.4,2840.5,2071,2838.7,2067.7,2839.5z"/>
		<g>
			<path class="st5" d="M1918.2,2820.1c-3.8-1.9-10.6-6.5-21.5-4.6l-80.4,6l8.4,29.3c0,0,80.1,47.9,89.3,35.3
				c9.5-13.2-27.1-27.7-14.4-41.2c11.3-12.1,61.3,35.1,72.2,24.2C1984.6,2856.2,1935,2828.6,1918.2,2820.1z"/>
			<path class="st1" d="M1953.7,2834.6c-13.7-9.3-28.7-17.1-33-19.2c-0.4-0.2-0.8-0.4-1.3-0.7c-4.2-2.3-12.1-6.5-23.5-4.5l-80.1,5.9
				c-1.6,0.1-3.1,0.9-4.1,2.2c-0.9,1.3-1.2,2.9-0.8,4.4l8.4,29.3c0.4,1.3,1.2,2.4,2.4,3.1c0.2,0.1,20.5,12.2,41.6,22.6
				c17,8.4,33.6,15.6,44.6,15.6c4.7,0,8.3-1.3,10.5-4.4c7.1-9.7-1.7-19.3-8.1-26.2c-8.1-8.8-9.4-11.7-6.8-14.5
				c0.3-0.3,2.5-0.8,8.7,1.7c6.3,2.5,14,7.1,21.6,11.5c17.9,10.5,33.4,19.5,41.8,11.2c3-2.9,4.2-6.6,3.5-10.7
				C1977.9,2854.4,1969.5,2845.4,1953.7,2834.6z M1967.8,2865.3c-0.3,0.1-2.5,0.5-9.3-2.5c-5.6-2.5-12.3-6.4-18.8-10.3
				c-18.2-10.6-35.4-20.7-44.2-11.2c-9.8,10.5,0.1,21.4,6.7,28.6c6.3,6.8,8.9,10.4,7.5,12.9c-1.3,0.4-9.9,1.4-44.1-15.7
				c-16-8-31-16.7-36.1-19.7l-6.1-21.1l73.7-5.5c0.2,0,0.4,0,0.6-0.1c7.7-1.4,12.8,1.3,16.4,3.3c0.5,0.3,1,0.6,1.5,0.8
				c32.7,16.5,51.6,32.4,52.7,38.9C1968.4,2864.4,1968.3,2864.8,1967.8,2865.3z"/>
		</g>
		<g>
			<path class="st5" d="M2112.7,2886.2c-14.7,3.8-6,51.6-10,60.6c-4,8.9-26,19.8-26,19.8l18.7,44.6l12.7,2.6l30.6-76.5
				C2138.7,2937.2,2127.4,2882.4,2112.7,2886.2z"/>
			<path class="st1" d="M2120.6,2882.6c-3-1.8-6.2-2.3-9.3-1.4c-13.7,3.6-13.3,26.1-13,45.9c0.1,6.6,0.3,15.6-0.6,17.7
				c-2.2,4.9-15,13-23.4,17.1c-2.5,1.2-3.7,4.1-2.6,6.7l18.7,44.6c0.7,1.6,2.2,2.8,4,3.2l12.7,2.5c0.4,0.1,0.8,0.1,1.1,0.1
				c2.6,0,4.9-1.7,5.4-4.2c0.6-2.9-1.3-5.7-4.3-6.3l-9.8-2l-15.7-37.6c7.4-4,20.5-12.1,24.1-20.1c1.8-3.9,1.7-10.6,1.5-22
				c-0.1-8.3-0.3-17.6,0.7-25c1.3-9.5,3.8-10.4,4.1-10.5c0,0,5.2,1.3,12.3,22.3c4.2,12.2,6.7,24.5,6.8,24.7c0.6,2.9,3.5,4.7,6.5,4.2
				c3-0.6,4.9-3.3,4.4-6.2C2142.6,2928.7,2134.1,2890.6,2120.6,2882.6z"/>
		</g>
		<g>
			<path class="st5" d="M2046.8,2932.3l-123.7,42.2l-86.3-203.9c-13.8-32.6-43.4-39-83.4-39l-19.2,144.5l78.9,178
				c15,35.5,50.7,57.2,88.6,57.2c10.5,0,21.1-1.7,31.5-5.1l157.6-53.5c34.7-11.6,27.6-38.4,15.5-71.7
				C2094,2947.8,2081.5,2920.8,2046.8,2932.3z"/>
			<path class="st1" d="M2089,2936.3c-11.5-12.1-25.9-15.1-44.1-9l-118.7,40.5l-84.4-199.2c-14.9-35.1-46.1-42.3-88.5-42.3
				c-3.1,0-5.5,2.4-5.5,5.3c0,2.9,2.5,5.3,5.5,5.3c39,0,65.7,6,78.3,35.7l86.3,203.9c1.1,2.6,4.2,3.9,7,3l123.7-42.2
				c13.9-4.6,23.9-2.8,32.3,6.1c8.6,9.1,14.6,24.4,20.1,39.4c5.4,14.7,10.5,30.1,9.5,41.8c-1,11.3-7.6,18.5-21.7,23.2l-157.5,53.5
				c-9.6,3.2-19.6,4.8-29.7,4.8c-36.8,0-69.6-21.1-83.5-53.9l-78.9-178c-1.2-2.7-4.4-3.9-7.2-2.8c-2.8,1.1-4.1,4.2-2.9,6.9
				l78.9,177.9c15.6,36.7,52.3,60.5,93.7,60.5c11.3,0,22.5-1.8,33.3-5.4l157.5-53.5c18.2-6.1,27.7-16.6,29-32.3
				c1.2-13.8-4.3-30.3-10.1-46.1C2105.5,2963.4,2099,2946.9,2089,2936.3z"/>
		</g>
		<path class="st2" d="M2093.5,3005.6l-164.3,52.1c-7.2,2.4-14.6,3.6-22.2,3.6c-27.5,0-51.9-15.8-62.3-40.3l-60.6-136.6
			c-1.3-3-4.9-4.4-8.1-3.1c-3.1,1.3-4.6,4.7-3.3,7.7l60.5,136.6c12.2,28.9,41.2,47.6,73.7,47.6c8.9,0,17.7-1.4,26.1-4.2l164.2-52.1
			c3.2-1,5-4.4,3.9-7.5C2100.2,3006.2,2096.7,3004.6,2093.5,3005.6z"/>
		<path class="st2" d="M2069.4,2835c-5.9,0-10.7,4.6-10.7,10.2c0,5.6,4.8,10.2,10.7,10.2c5.9,0,10.7-4.6,10.7-10.2
			C2080.1,2839.6,2075.3,2835,2069.4,2835z"/>
	</g>
</g>
<g>
	<rect x="2413.6" y="1366.8" class="st5" width="1305.5" height="1791.7"/>
	<path class="st1" d="M3719.1,1361H2413.6c-2.8,0-5,2.6-5,5.7v1791.7c0,3.2,2.2,5.7,5,5.7h1305.5c2.8,0,5-2.6,5-5.7V1366.8
		C3724.1,1363.6,3721.9,1361,3719.1,1361z M3714.1,3152.7H2418.6V1372.5h1295.5V3152.7z"/>
</g>
<g>
	<g>
		<path class="st1" d="M3719.1,3225.2H2413.6c-2.8,0-5,2.2-5,5s2.2,5,5,5h1305.5c2.8,0,5-2.2,5-5S3721.9,3225.2,3719.1,3225.2z"/>
		<path class="st1" d="M3719.1,3289.8H2413.6c-2.8,0-5,2.2-5,5s2.2,5,5,5h1305.5c2.8,0,5-2.2,5-5S3721.9,3289.8,3719.1,3289.8z"/>
	</g>
	<g>
		<path class="st1" d="M3719.1,3354.4H2413.6c-2.8,0-5,2.2-5,5s2.2,5,5,5h1305.5c2.8,0,5-2.2,5-5S3721.9,3354.4,3719.1,3354.4z"/>
	</g>
	<g>
		<path class="st1" d="M2882.9,3419.1h-469.3c-2.8,0-5,2.2-5,5s2.2,5,5,5h469.3c2.8,0,5-2.2,5-5S2885.7,3419.1,2882.9,3419.1z"/>
	</g>
</g>
</svg>
