<?xml version="1.0" encoding="utf-8"?>
<!-- Generator: Adobe Illustrator 24.1.3, SVG Export Plug-In . SVG Version: 6.00 Build 0)  -->
<svg version="1.1" id="Layer_1" xmlns="http://www.w3.org/2000/svg" xmlns:xlink="http://www.w3.org/1999/xlink" x="0px" y="0px"
	 viewBox="0 0 6000 5000" style="enable-background:new 0 0 6000 5000;" xml:space="preserve">
<style type="text/css">
	.st0{fill:#A2DFFF;}
	.st1{fill:#0868AF;}
	.st2{fill:#E0F4FC;}
	.st3{fill:#FFFFFF;}
	.st4{fill:#6EBDFF;}
	.st5{fill:#C5EDF9;}
</style>
<g>
	<path class="st0" d="M3514.2,967.4H1886c-126.1,0-229.4,103.2-229.4,229.4v76.5h1173.1v-76.5c0-126.1,694.9-229.4,821-229.4h-107.3
		H3514.2z"/>
	<path class="st1" d="M3650.8,962.4H1886c-62.3,0-121.1,24.4-165.5,68.8c-44.4,44.4-68.8,103.2-68.8,165.5v76.5c0,2.8,2.2,5,5,5
		h1173.1c2.8,0,5-2.2,5-5v-76.5c0-26.5,37.2-55.7,107.4-84.4c61.1-25,145.9-49.4,251.8-72.7c189.9-41.7,394-67.3,456.8-67.3
		c2.8,0,5-2.2,5-5C3655.8,964.6,3653.6,962.4,3650.8,962.4z M3191.9,1029.8c-106.5,23.4-191.8,48-253.5,73.2
		c-35.4,14.5-62.9,29.2-81.6,43.7c-21.3,16.5-32,33.3-32,50v71.5H1661.7v-71.5c0-59.7,23.4-115.9,65.9-158.4
		c42.5-42.5,98.8-65.9,158.4-65.9h1644.8C3438.3,983.5,3312.2,1003.4,3191.9,1029.8z"/>
</g>
<g>
	<path class="st2" d="M4031.4,3636.8l-0.4-3.7V1196.7c0-125.9-102-228.7-227.9-228.7H1886c22.8,0,44.9,3.2,65.8,9.5
		c95.5,28.5,159.9,116.3,162.2,215.9l-1,3.4v2436.4c0,125.9,104.8,229.9,230.7,229.9h1917.1c-22.8,0-44.9-3.8-65.8-10.1
		C4099.5,3824.4,4033.7,3736.4,4031.4,3636.8z"/>
	<path class="st1" d="M4260.8,3858c-20.8,0-42.4-3.3-64.4-9.9c-45.7-13.6-85.2-41.2-114.2-79.6c-28.9-38.3-44.7-83.9-45.8-131.9
		c0-0.2,0-0.3,0-0.5l-0.4-3.4V1196.7c0-128.9-104.5-233.7-232.9-233.7H1886c-2.8,0-5,2.2-5,5s2.2,5,5,5c22.1,0,43.7,3.1,64.4,9.3
		c92.4,27.6,156,112.1,158.6,210.4l-0.8,2.6c-0.1,0.5-0.2,0.9-0.2,1.4v2436.4c0,62.2,24.7,121,69.6,165.7
		c44.8,44.6,103.8,69.2,166.1,69.2h1917.1c2.8,0,5-2.2,5-5S4263.5,3858,4260.8,3858z M2343.7,3858c-59.6,0-116.1-23.5-159-66.3
		c-43-42.8-66.7-99.1-66.7-158.6V1197.4l0.8-2.7c0.1-0.5,0.2-1,0.2-1.5c-2.3-102.7-68.5-191-164.7-220.2h1848.8
		c122.9,0,222.9,100.4,222.9,223.7v2436.4c0,0.2,0,0.4,0,0.6l0.4,3.4c1.2,50,17.7,97.5,47.8,137.4c30.3,40.2,71.6,68.9,119.3,83.2
		c0.3,0.1,0.6,0.2,0.9,0.3H2343.7z"/>
</g>
<g>
	<path class="st3" d="M2571,3633.1c0,126.1-101.1,230.9-227.3,230.9h1917.1c126.1,0,227.2-104.7,227.2-230.9V3558H2571V3633.1z"/>
	<path class="st1" d="M4488,3553H2571c-2.8,0-5,2.2-5,5v75.1c0,124.6-99.7,225.9-222.3,225.9c-2.8,0-5,2.2-5,5s2.2,5,5,5h1917.1
		c128,0,232.2-105.8,232.2-235.9V3558C4493,3555.2,4490.8,3553,4488,3553z M4483,3633.1c0,124.6-99.7,225.9-222.2,225.9H2410.7
		c95.5-29.3,165.3-119.5,165.3-225.9V3563h1907V3633.1z"/>
</g>
<g>
	<g>
		<g>
			<path class="st4" d="M3826.3,3521.2c-10.6,7.3-6.3,26.8,5.9,26.8h160.6c9.6,0,17.4-9.4,17.4-21.1v-53.1h-75.8L3826.3,3521.2z"/>
			<path class="st1" d="M4010.3,3468.2h-75.8c-0.8,0-1.5,0.2-2.2,0.5l-108.1,47.4c-0.3,0.1-0.6,0.3-0.9,0.5
				c-7.2,4.9-10.2,14.7-7.4,23.8c2.5,8.1,8.8,13.1,16.4,13.1h160.6c12.7,0,23-11.9,23-26.6v-53.1
				C4015.8,3470.7,4013.3,3468.2,4010.3,3468.2z M4004.7,3526.9c0,8.6-5.3,15.5-11.9,15.5h-160.6c-3.8,0-5.4-4.1-5.8-5.3
				c-1.1-3.5-0.7-8.5,2.7-11.1l106.5-46.7h69.1V3526.9z"/>
		</g>
		<g>
			<polygon class="st5" points="4117.9,3473.8 4213.1,3473.8 4213.1,2807.7 4071.7,2807.7 			"/>
			<path class="st1" d="M4213.1,2802.2h-141.4c-1.5,0-3,0.6-4.1,1.8c-1,1.1-1.6,2.6-1.5,4.2l46.2,666.1c0.2,2.9,2.6,5.2,5.5,5.2
				h95.1c3.1,0,5.5-2.5,5.5-5.5v-666.1C4218.6,2804.6,4216.1,2802.2,4213.1,2802.2z M4207.5,3468.2h-84.4l-45.5-655h129.9V3468.2z"
				/>
		</g>
		<g>
			<g>
				<polygon class="st0" points="3893.6,3473.8 4010.3,3473.8 4056.5,2807.7 3915.1,2807.7 				"/>
				<path class="st1" d="M4056.5,2802.2h-141.4c-3,0-5.4,2.4-5.5,5.4l-21.5,666.1c0,1.5,0.5,3,1.6,4c1,1.1,2.5,1.7,4,1.7h116.7
					c2.9,0,5.3-2.3,5.5-5.2l46.2-666.1c0.1-1.5-0.4-3-1.5-4.2C4059.5,2802.8,4058,2802.2,4056.5,2802.2z M4005.1,3468.2h-105.8
					l21.2-655h130.1L4005.1,3468.2z"/>
			</g>
		</g>
		<g>
			<polygon class="st0" points="4015,2889.4 4077.4,2889.4 4096.6,3473.8 4213.1,3473.8 4213.1,2807.7 3915.1,2807.7 			"/>
			<path class="st1" d="M4213.1,2802.2h-297.9c-3.1,0-5.5,2.5-5.5,5.5s2.5,5.5,5.5,5.5h292.4v655h-105.6l-19-579.1
				c-0.1-3-2.5-5.4-5.5-5.4H4015c-3.1,0-5.5,2.5-5.5,5.5s2.5,5.5,5.5,5.5h57.1l19,579.1c0.1,3,2.5,5.4,5.5,5.4h116.5
				c3.1,0,5.5-2.5,5.5-5.5v-666.1C4218.6,2804.6,4216.1,2802.2,4213.1,2802.2z"/>
		</g>
		<g>
			<path class="st4" d="M4035.3,3521.2c-10.2,7.3-6.1,26.8,5.7,26.8h155.2c9.3,0,16.8-9.4,16.8-21.1v-53.1h-73.3L4035.3,3521.2z"/>
			<path class="st1" d="M4213.1,3468.2h-73.3c-0.8,0-1.6,0.2-2.3,0.5l-104.5,47.4c-0.3,0.1-0.6,0.3-0.9,0.5c-7.1,5-9.9,14.9-7,24.1
				c2.5,7.9,8.6,12.8,15.9,12.8h155.2c12.3,0,22.4-11.9,22.4-26.6v-53.1C4218.6,3470.7,4216.1,3468.2,4213.1,3468.2z M4207.5,3526.9
				c0,8.4-5.2,15.5-11.3,15.5H4041c-3.5,0-5-3.9-5.3-5.1c-1.2-3.8-0.7-8.8,2.5-11.4l102.8-46.6h66.6V3526.9z"/>
		</g>
	</g>
	<g>
		<g>
			<path class="st4" d="M4123.5,1971.5h-133c-23.7,0-43,19.2-43,43v133.8h219v-133.8C4166.5,1990.8,4147.3,1971.5,4123.5,1971.5z"/>
			<path class="st1" d="M4123.5,1966h-133c-26.8,0-48.5,21.8-48.5,48.5v133.8c0,3.1,2.5,5.5,5.5,5.5h219c3.1,0,5.5-2.5,5.5-5.5
				v-133.8C4172.1,1987.7,4150.3,1966,4123.5,1966z M4161,2142.8h-207.9v-128.3c0-20.6,16.8-37.4,37.4-37.4h133
				c20.6,0,37.4,16.8,37.4,37.4V2142.8z"/>
		</g>
		<g>
			<path class="st3" d="M4101.1,2272.1v-56.4h-43.9h-43.9v56.4c0,22.9-22.1,41.5-49.3,41.5h93.2h93.2
				C4123.2,2313.6,4101.1,2295.1,4101.1,2272.1z"/>
			<path class="st1" d="M4150.4,2308.1c-24.1,0-43.8-16.1-43.8-36v-56.4c0-3.1-2.5-5.5-5.5-5.5h-87.8c-3.1,0-5.5,2.5-5.5,5.5v56.4
				c0,19.8-19.6,36-43.8,36c-3.1,0-5.5,2.5-5.5,5.5s2.5,5.5,5.5,5.5h186.4c3.1,0,5.5-2.5,5.5-5.5S4153.5,2308.1,4150.4,2308.1z
				 M3999.3,2308.1c11.9-8.6,19.5-21.6,19.5-36v-50.9h76.7v50.9c0,14.4,7.6,27.3,19.5,36H3999.3z"/>
		</g>
		<g>
			<path class="st5" d="M4149.3,2293.5h-184.2c-46.6,0-84.4,37.8-84.4,84.4v429.8h172.8h180.3v-429.8
				C4233.7,2331.3,4195.9,2293.5,4149.3,2293.5z"/>
			<path class="st1" d="M4149.3,2287.9h-184.2c-49.6,0-90,40.4-90,90v429.8c0,3.1,2.5,5.5,5.5,5.5h353.1c3.1,0,5.5-2.5,5.5-5.5
				v-429.8C4239.3,2328.3,4198.9,2287.9,4149.3,2287.9z M4228.2,2802.2h-342v-424.3c0-43.5,35.4-78.9,78.9-78.9h184.2
				c43.5,0,78.9,35.4,78.9,78.9V2802.2z"/>
		</g>
		<g>
			<path class="st5" d="M3769.1,2629.3c-16,38.3-0.7,81.2,34.2,95.7l0,0c34.8,14.5,76-4.8,92-43.1l-7.6-336.9L3769.1,2629.3z"/>
			<path class="st1" d="M3897.4,2676.7c-2.8-1.2-6.1,0.2-7.2,3c-7.2,17.3-20,30.9-36.2,38.5c-15.9,7.5-33.2,8.1-48.6,1.6
				c-15.4-6.4-27.1-19.1-33-35.7c-6-16.8-5.3-35.5,1.9-52.8l118.5-284.4c1.2-2.8-0.2-6.1-3-7.2c-2.8-1.2-6.1,0.2-7.2,3L3764,2627.2
				c-8.3,19.8-9,41.4-2.1,60.8c7,19.6,20.9,34.5,39.2,42.2c8.5,3.5,17.4,5.3,26.4,5.3c10.5,0,21.1-2.4,31.2-7.1
				c18.6-8.7,33.4-24.4,41.7-44.3C3901.6,2681.2,3900.2,2677.9,3897.4,2676.7z"/>
		</g>
		<g>
			<g>
				
					<rect x="3940.3" y="2409" transform="matrix(0.9647 -0.2633 0.2633 0.9647 -514.452 1127.2401)" class="st4" width="15.7" height="147.8"/>
				<path class="st1" d="M3941.6,2408.1c-0.8-3-3.9-4.7-6.8-3.9l-15.1,4.1c-1.4,0.4-2.6,1.3-3.4,2.6c-0.7,1.3-0.9,2.8-0.5,4.2
					l38.9,142.5c0.4,1.4,1.3,2.6,2.6,3.4c0.8,0.5,1.8,0.7,2.7,0.7c0.5,0,1-0.1,1.5-0.2l15.1-4.1c3-0.8,4.7-3.9,3.9-6.8
					L3941.6,2408.1z M3963.9,2549.4l-36-131.9l4.5-1.2l36,131.9L3963.9,2549.4z"/>
			</g>
			<g>
				<path class="st3" d="M3979.2,2504.2h-45.3c-7.5,0-14.6,3.3-19.4,8.9l-10.7,12.5l-43,52l61.6,25.2l13-16.6h56l-1.8-75.1
					L3979.2,2504.2z"/>
				<path class="st1" d="M3992.6,2506.6l-10.3-7c-0.9-0.6-2-1-3.1-1h-45.3c-9.1,0-17.7,4-23.6,10.9l-10.8,12.6l-43,52
					c-1.9,2.4-1.6,5.8,0.7,7.8c2.4,1.9,5.8,1.6,7.8-0.7l42.9-51.9l10.7-12.5c3.8-4.4,9.4-7,15.2-7h43.6l6.5,4.4l1.6,66.6h-50.3
					c-1.7,0-3.3,0.8-4.4,2.1l-13,16.6c-1.9,2.4-1.4,5.9,1,7.8c1,0.8,2.2,1.2,3.4,1.2c1.6,0,3.3-0.7,4.4-2.1l11.3-14.5h53.3
					c1.5,0,2.9-0.6,4-1.7c1-1.1,1.6-2.5,1.6-4l-1.8-75.1C3995,2509.2,3994.1,2507.6,3992.6,2506.6z"/>
			</g>
			<g>
				<g>
					<path class="st3" d="M3996.9,2504.2h-42l24,20.5h18c5.7,0,10.3-4.6,10.3-10.3C4007.1,2508.8,4002.5,2504.2,3996.9,2504.2z"/>
					<path class="st1" d="M3996.9,2498.6h-42c-3.1,0-5.5,2.5-5.5,5.5s2.5,5.5,5.5,5.5h42c2.6,0,4.7,2.1,4.7,4.7s-2.1,4.7-4.7,4.7
						h-18c-3.1,0-5.5,2.5-5.5,5.5s2.5,5.5,5.5,5.5h18c8.7,0,15.8-7.1,15.8-15.8S4005.6,2498.6,3996.9,2498.6z"/>
				</g>
				<g>
					<path class="st3" d="M3996.9,2545.2H3964v20.5h32.8c5.7,0,10.3-4.6,10.3-10.3l0,0C4007.1,2549.8,4002.5,2545.2,3996.9,2545.2z"
						/>
					<path class="st1" d="M3996.9,2539.7H3964c-3.1,0-5.5,2.5-5.5,5.5s2.5,5.5,5.5,5.5h32.8c2.6,0,4.7,2.1,4.7,4.7s-2.1,4.7-4.7,4.7
						H3964c-3.1,0-5.5,2.5-5.5,5.5s2.5,5.5,5.5,5.5h32.8c8.7,0,15.8-7.1,15.8-15.8S4005.6,2539.7,3996.9,2539.7z"/>
				</g>
				<g>
					<path class="st3" d="M3991.3,2565.7H3964l-28.7,20.5h56c5.7,0,10.3-4.6,10.3-10.3C4001.6,2570.3,3997,2565.7,3991.3,2565.7z"/>
					<path class="st1" d="M3991.3,2560.2H3964c-3.1,0-5.5,2.5-5.5,5.5s2.5,5.5,5.5,5.5h27.3c2.6,0,4.7,2.1,4.7,4.7s-2.1,4.7-4.7,4.7
						h-56c-3.1,0-5.5,2.5-5.5,5.5s2.5,5.5,5.5,5.5h56c8.7,0,15.8-7.1,15.8-15.8S4000,2560.2,3991.3,2560.2z"/>
				</g>
				<g>
					<path class="st3" d="M4002,2524.7H3964v20.5h37.9c4.8,0,8.7-4.6,8.7-10.3S4006.8,2524.7,4002,2524.7z"/>
					<path class="st1" d="M4002,2519.1H3964c-3.1,0-5.5,2.5-5.5,5.5s2.5,5.5,5.5,5.5h37.9c1.5,0,3.1,1.9,3.1,4.7
						c0,2.8-1.6,4.7-3.1,4.7H3964c-3.1,0-5.5,2.5-5.5,5.5s2.5,5.5,5.5,5.5h37.9c7.8,0,14.2-7.1,14.2-15.8
						C4016.2,2526.2,4009.8,2519.1,4002,2519.1z"/>
				</g>
			</g>
		</g>
		<g>
			<path class="st3" d="M4168.4,2471.2c-17.7-16.8-36.5-25.9-36.5-25.9l-3.3,61.6l64.9,46.4l4.1-27.9
				C4197.5,2525.4,4192.2,2493.8,4168.4,2471.2z"/>
			<path class="st1" d="M4172.2,2467.2c-18.1-17.2-37.1-26.4-37.9-26.8c-1.7-0.8-3.6-0.7-5.2,0.2c-1.6,0.9-2.6,2.6-2.7,4.5
				l-3.3,61.6c-0.1,1.9,0.8,3.7,2.3,4.8l64.9,46.4c1,0.7,2.1,1,3.2,1c0.7,0,1.5-0.1,2.2-0.4c1.8-0.8,3-2.4,3.3-4.3l4.1-27.9
				c0.1-0.6,0.1-1.2,0-1.7C4202.8,2523.1,4197.1,2490.8,4172.2,2467.2z M4189.3,2543.5l-55-39.3l2.7-49.7
				c6.9,4.1,17.5,11.1,27.7,20.8c20.1,19,26.3,45.4,27.3,50.3L4189.3,2543.5z"/>
		</g>
		<g>
			<path class="st5" d="M4226.4,2344.9l-7.6,336.9c16,38.3,57.2,57.6,92,43.1l0,0c34.8-14.5,50.1-57.4,34.2-95.7L4226.4,2344.9z"/>
			<path class="st1" d="M4231.5,2342.8c-1.2-2.8-4.4-4.2-7.2-3c-2.8,1.2-4.2,4.4-3,7.2l118.5,284.4c7.2,17.3,7.9,36,1.9,52.8
				c-5.9,16.6-17.7,29.2-33,35.7c-15.4,6.4-32.6,5.8-48.6-1.6c-16.1-7.6-29-21.2-36.2-38.5c-1.2-2.8-4.4-4.2-7.2-3
				c-2.8,1.2-4.2,4.4-3,7.2c8.3,19.8,23.1,35.5,41.7,44.3c10.1,4.7,20.7,7.1,31.2,7.1c9,0,17.9-1.8,26.4-5.3
				c37.6-15.7,54.3-61.8,37.1-102.9L4231.5,2342.8z"/>
		</g>
		<g>
			<rect x="3977.9" y="2357.5" class="st3" width="190.9" height="295.5"/>
			<path class="st1" d="M4168.8,2352h-190.9c-3.1,0-5.5,2.5-5.5,5.5v295.5c0,3.1,2.5,5.5,5.5,5.5h190.9c3.1,0,5.5-2.5,5.5-5.5
				v-295.5C4174.4,2354.5,4171.9,2352,4168.8,2352z M4163.3,2647.5h-179.8v-284.5h179.8V2647.5z"/>
		</g>
		<g>
			<path class="st3" d="M4144.8,2481.1h-45.3l-10.3,7l5.3,73.5l77.6,5.3l2.8-64.3l-10.7-12.5
				C4159.4,2484.3,4152.3,2481.1,4144.8,2481.1z"/>
			<path class="st1" d="M4168.4,2486.4c-5.9-6.9-14.5-10.9-23.6-10.9h-45.3c-1.1,0-2.2,0.3-3.1,1l-10.3,7c-1.6,1.1-2.6,3-2.4,5
				l5.3,73.5c0.2,2.8,2.4,4.9,5.1,5.1l77.6,5.3c0.1,0,0.3,0,0.4,0c2.9,0,5.3-2.2,5.5-5.2c0.2-3.1-2.1-5.7-5.1-5.9l-72.8-5l-4.8-65.5
				l6.2-4.2h43.6c5.9,0,11.4,2.5,15.2,7l10.7,12.5c2,2.3,5.5,2.6,7.8,0.6c2.3-2,2.6-5.5,0.6-7.8L4168.4,2486.4z"/>
		</g>
		<g>
			<g>
				<path class="st3" d="M4023.2,2491.3c0,5.7,4.6,10.3,10.3,10.3h66.5l24-20.5h-90.5C4027.8,2481.1,4023.2,2485.7,4023.2,2491.3z"
					/>
				<path class="st1" d="M4124,2475.5h-90.5c-8.7,0-15.8,7.1-15.8,15.8c0,8.7,7.1,15.8,15.8,15.8h66.5c3.1,0,5.5-2.5,5.5-5.5
					s-2.5-5.5-5.5-5.5h-66.5c-2.6,0-4.7-2.1-4.7-4.7c0-2.6,2.1-4.7,4.7-4.7h90.5c3.1,0,5.5-2.5,5.5-5.5S4127,2475.5,4124,2475.5z"/>
			</g>
			<g>
				<path class="st3" d="M4023.2,2532.4L4023.2,2532.4c0,5.7,4.6,10.3,10.3,10.3h81.3v-20.5h-81.3
					C4027.8,2522.1,4023.2,2526.7,4023.2,2532.4z"/>
				<path class="st1" d="M4033.4,2527.7h81.3c3.1,0,5.5-2.5,5.5-5.5c0-3.1-2.5-5.5-5.5-5.5h-81.3c-8.7,0-15.8,7.1-15.8,15.8
					c0,8.7,7.1,15.8,15.8,15.8h81.3c3.1,0,5.5-2.5,5.5-5.5s-2.5-5.5-5.5-5.5h-81.3c-2.6,0-4.7-2.1-4.7-4.7
					S4030.8,2527.7,4033.4,2527.7z"/>
			</g>
			<g>
				<path class="st3" d="M4062.1,2542.6c-5.7,0-10.3,4.6-10.3,10.3s4.6,10.3,10.3,10.3h81.3l-28.7-20.5H4062.1z"/>
				<path class="st1" d="M4143.5,2557.6h-81.3c-2.6,0-4.7-2.1-4.7-4.7s2.1-4.7,4.7-4.7h52.6c3.1,0,5.5-2.5,5.5-5.5s-2.5-5.5-5.5-5.5
					h-52.6c-8.7,0-15.8,7.1-15.8,15.8c0,8.7,7.1,15.8,15.8,15.8h81.3c3.1,0,5.5-2.5,5.5-5.5S4146.5,2557.6,4143.5,2557.6z"/>
			</g>
			<g>
				<path class="st3" d="M4011,2511.9c0,5.7,4.6,10.3,10.3,10.3h93.4v-20.5h-93.4C4015.6,2501.6,4011,2506.2,4011,2511.9z"/>
				<path class="st1" d="M4021.3,2507.1h93.4c3.1,0,5.5-2.5,5.5-5.5s-2.5-5.5-5.5-5.5h-93.4c-8.7,0-15.8,7.1-15.8,15.8
					s7.1,15.8,15.8,15.8h93.4c3.1,0,5.5-2.5,5.5-5.5c0-3.1-2.5-5.5-5.5-5.5h-93.4c-2.6,0-4.7-2.1-4.7-4.7
					C4016.6,2509.2,4018.7,2507.1,4021.3,2507.1z"/>
			</g>
		</g>
		<g>
			
				<rect x="4167" y="2523.9" transform="matrix(0.7925 -0.6099 0.6099 0.7925 -713.9804 3109.156)" class="st5" width="89.6" height="159.8"/>
			<path class="st1" d="M4202.9,2509.7c-0.9-1.2-2.2-1.9-3.7-2.1c-1.5-0.2-2.9,0.2-4.1,1.1l-71,54.6c-2.4,1.9-2.9,5.3-1,7.8
				l97.4,126.6c1.1,1.4,2.7,2.2,4.4,2.2c1.2,0,2.4-0.4,3.4-1.1c2.4-1.9,2.9-5.3,1-7.8l-94.1-122.2l62.2-47.9l94.1,122.2
				c1.9,2.4,5.3,2.9,7.8,1c2.4-1.9,2.9-5.3,1-7.8L4202.9,2509.7z"/>
		</g>
		<g>
			<polygon class="st5" points="3818.1,2639.7 3889.1,2694.4 3948.4,2599.4 3877.4,2544.8 			"/>
			<path class="st1" d="M3951.8,2595l-71-54.6c-1.2-1-2.8-1.3-4.4-1.1c-1.5,0.3-2.9,1.2-3.7,2.5l-59.3,95c-1.6,2.6-0.8,6,1.8,7.6
				c2.6,1.6,6,0.8,7.6-1.8l56.1-89.8l62.2,47.8l-56.7,90.7c-1.6,2.6-0.8,6,1.8,7.6c0.9,0.6,1.9,0.8,2.9,0.8c1.8,0,3.7-0.9,4.7-2.6
				l59.3-95C3954.6,2599.9,3954,2596.7,3951.8,2595z"/>
		</g>
		<g>
			<g>
				<path class="st3" d="M4156.3,2093.1h-27.6c-1.2,0-2.2,1-2.2,2.2l-5.4,69c0,1.2,1,2.2,2.2,2.2h27.6c11,0,18.2-8.6,20-20.6
					l5.4-32.3C4177.8,2102.1,4167.3,2093.1,4156.3,2093.1z"/>
				<path class="st1" d="M4156.3,2087.6h-27.6c-4.1,0-7.5,3.3-7.7,7.5l-5.4,68.9c0,0.1,0,0.3,0,0.4c0,4.3,3.5,7.8,7.7,7.8h27.6
					c13.2,0,23.2-9.9,25.4-25.3l5.4-32.2c0-0.1,0-0.1,0-0.2c0.9-6.5-1.1-12.8-5.5-17.9C4171.3,2090.9,4163.9,2087.6,4156.3,2087.6z
					 M4170.8,2112.9l-5.4,32.2c0,0,0,0.1,0,0.1c-0.5,3.7-3.2,15.8-14.5,15.8h-24l4.9-62.4h24.5c4.4,0,8.8,2,11.6,5.2
					C4169.5,2105.7,4171.3,2108.7,4170.8,2112.9z"/>
			</g>
			<g>
				<path class="st3" d="M3985.4,2093.1h-27.6c-11,0-21.5,9-20,20.6l5.4,32.3c1.7,12,8.9,20.6,20,20.6h27.6c1.2,0,2.2-1,2.2-2.2
					l-5.4-69C3987.6,2094.1,3986.6,2093.1,3985.4,2093.1z"/>
				<path class="st1" d="M3993.1,2095.1c-0.1-4.2-3.5-7.5-7.7-7.5h-27.6c-7.6,0-15,3.4-19.9,9c-4.4,5-6.4,11.4-5.5,17.9
					c0,0.1,0,0.1,0,0.2l5.4,32.2c2.3,15.4,12.2,25.3,25.4,25.3h27.6c4.2,0,7.7-3.5,7.7-7.8c0-0.1,0-0.3,0-0.4L3993.1,2095.1z
					 M3963.1,2161.1c-11.3,0-14-12.1-14.5-15.8c0,0,0-0.1,0-0.1l-5.4-32.2c-0.5-4.2,1.3-7.2,2.9-9.1c2.8-3.2,7.3-5.2,11.6-5.2h24.5
					l4.9,62.4H3963.1z"/>
			</g>
		</g>
		<g>
			<path class="st3" d="M4106.8,2014.9h-37.2h-62.4c-23.4,0-42.3,19-42.3,42.3v0v96.2c0,56.2,40.6,107.2,90.3,107.2h3.6
				c49.7,0,90.3-50.9,90.3-107.2v-96.2C4149.2,2033.9,4130.2,2014.9,4106.8,2014.9z"/>
			<path class="st1" d="M4106.8,2009.4h-99.6c-26.4,0-47.9,21.5-47.9,47.9v96.2c0,28.4,10.1,56.9,27.8,78.2
				c18.4,22.3,42.6,34.5,68,34.5h3.6c25.5,0,49.6-12.3,68-34.5c17.7-21.3,27.8-49.8,27.8-78.2v-96.2
				C4154.7,2030.9,4133.2,2009.4,4106.8,2009.4z M4143.6,2153.5c0,25.8-9.2,51.8-25.3,71.2c-16.3,19.7-37.4,30.5-59.5,30.5h-3.6
				c-22.1,0-43.2-10.8-59.5-30.5c-16.1-19.4-25.3-45.3-25.3-71.2v-96.2c0-20.3,16.5-36.8,36.8-36.8h99.6c20.3,0,36.8,16.5,36.8,36.8
				V2153.5z"/>
		</g>
		<g>
			<path class="st4" d="M4003.2,1958c-23.7,0-55.9,21.2-55.7,56.5v43.2l17.4-0.4c0-16.2,22.8-42.3,55.5-42.3h49.4
				c47.6,0,43.3-56.9,43.3-56.9H4003.2z"/>
			<path class="st1" d="M4113,1952.5h-109.8c-15,0-31.7,7.4-43.6,19.3c-8.1,8.2-17.8,22.2-17.6,42.7v43.2c0,3.1,2.5,5.5,5.5,5.5
				c3.1,0,5.5-2.5,5.5-5.5v-43.2c-0.1-16.7,7.8-28.2,14.4-34.8c9.7-9.8,23.7-16.1,35.7-16.1h104.3c-0.2,8.3-1.9,24.9-11.9,35.7
				c-6.2,6.7-14.9,10.1-25.9,10.1h-49.4c-16,0-31.5,5.8-43.6,16.5c-10.7,9.4-17.4,21.4-17.4,31.4c0,3.1,2.5,5.5,5.5,5.5
				c3.1,0,5.5-2.5,5.5-5.5c0-12.6,19.4-36.8,49.9-36.8h49.4c14.2,0,25.7-4.6,34.1-13.7c16.9-18.2,14.8-47.9,14.7-49.2
				C4118.3,1954.7,4115.9,1952.5,4113,1952.5z"/>
		</g>
		<g>
			<path class="st1" d="M4149.1,2340.6c-3.1,0-5.5,2.5-5.5,5.5v20.9c0,3.1,2.5,5.5,5.5,5.5s5.5-2.5,5.5-5.5v-20.9
				C4154.7,2343.1,4152.2,2340.6,4149.1,2340.6z"/>
			<path class="st1" d="M4123.9,2340.6c-3.1,0-5.5,2.5-5.5,5.5v20.9c0,3.1,2.5,5.5,5.5,5.5c3.1,0,5.5-2.5,5.5-5.5v-20.9
				C4129.4,2343.1,4126.9,2340.6,4123.9,2340.6z"/>
			<path class="st1" d="M4098.6,2340.6c-3.1,0-5.5,2.5-5.5,5.5v20.9c0,3.1,2.5,5.5,5.5,5.5c3.1,0,5.5-2.5,5.5-5.5v-20.9
				C4104.2,2343.1,4101.7,2340.6,4098.6,2340.6z"/>
			<path class="st1" d="M4073.4,2340.6c-3.1,0-5.5,2.5-5.5,5.5v20.9c0,3.1,2.5,5.5,5.5,5.5c3.1,0,5.5-2.5,5.5-5.5v-20.9
				C4078.9,2343.1,4076.4,2340.6,4073.4,2340.6z"/>
			<path class="st1" d="M4048.1,2340.6c-3.1,0-5.5,2.5-5.5,5.5v20.9c0,3.1,2.5,5.5,5.5,5.5s5.5-2.5,5.5-5.5v-20.9
				C4053.7,2343.1,4051.2,2340.6,4048.1,2340.6z"/>
			<path class="st1" d="M4022.9,2340.6c-3.1,0-5.5,2.5-5.5,5.5v20.9c0,3.1,2.5,5.5,5.5,5.5c3.1,0,5.5-2.5,5.5-5.5v-20.9
				C4028.4,2343.1,4026,2340.6,4022.9,2340.6z"/>
			<path class="st1" d="M3997.6,2340.6c-3.1,0-5.5,2.5-5.5,5.5v20.9c0,3.1,2.5,5.5,5.5,5.5c3.1,0,5.5-2.5,5.5-5.5v-20.9
				C4003.2,2343.1,4000.7,2340.6,3997.6,2340.6z"/>
		</g>
	</g>
</g>
<g>
	<g>
		<g>
			<g>
				<g>
					<path class="st3" d="M4766.3,2693.5l-17.5,132.8l90.9,3.5c0-10.5,0-136.3,0-136.3l-26.4-66.6L4766.3,2693.5z"/>
					<path class="st1" d="M4818,2625c-0.7-1.7-2.2-2.9-4.1-3.1c-1.8-0.2-3.6,0.6-4.7,2.1l-47,66.6c-0.5,0.7-0.8,1.4-0.9,2.2
						l-17.5,132.8c-0.2,1.4,0.2,2.8,1.1,3.9c0.9,1.1,2.2,1.7,3.6,1.8l90.9,3.5c0.1,0,0.1,0,0.2,0c1.3,0,2.5-0.5,3.5-1.4
						c1-0.9,1.5-2.2,1.5-3.6v-136.3c0-0.6-0.1-1.3-0.4-1.8L4818,2625z M4834.7,2824.6l-80.2-3.1l16.6-126.2l41-58.1l22.7,57.1
						V2824.6z"/>
				</g>
				<g>
					<path class="st3" d="M4702.4,2613.2l-3.7,37.3l-13.2,19.4c-2,2.9,0.1,6.7,3.6,6.7h6.9l-3,30.2c-2.3,22.8,17.7,41.8,40.4,38
						l56.8-9.5l39.2-161.1l-75.8-4.6C4727.6,2568,4705,2587.3,4702.4,2613.2z"/>
					<path class="st1" d="M4829.7,2569.2l-75.8-4.6c-28.8-1.7-53.7,19.4-56.5,48.1l-3.6,36.1l-12.5,18.3c-1.9,2.9-2.1,6.5-0.5,9.5
						c1.6,3.1,4.8,5,8.3,5h1.4l-2.5,24.7c-1.2,12.5,3.3,24.6,12.5,33.2c7.5,7,17.1,10.8,27.1,10.8c2.2,0,4.4-0.2,6.6-0.5l56.8-9.5
						c2.7-0.5,4.6-3,4.1-5.8c-0.5-2.7-3-4.6-5.8-4.1l-56.8,9.5c-9.2,1.5-18.4-1.3-25.2-7.7c-6.9-6.5-10.3-15.5-9.4-24.9l3-30.2
						c0.1-1.4-0.3-2.8-1.3-3.9c-0.9-1-2.3-1.6-3.7-1.6h-5.6l12.4-18.2c0.5-0.7,0.8-1.5,0.8-2.3l3.7-37.3c2.3-23.4,22.5-40.6,46-39.1
						l75.8,4.6c2.8,0.2,5.1-1.9,5.3-4.7C4834.5,2571.7,4832.5,2569.4,4829.7,2569.2z"/>
				</g>
				<g>
					<path class="st5" d="M4707.1,2530.5c-13.7,11.5-15,49,7,55c14.1,3.8,46.5,10.7,60.8,21.9c11.2,8.8,18.8,21.2,21.7,35.1
						l11.4,55.1c1.3,6.1,5,11.5,10.2,14.9l19.4,12.5c0.8,0.5,1.5,1,2.1,1.3c0,0,103.2-90.5,53.4-170.9
						C4855,2494,4739.1,2503.5,4707.1,2530.5z"/>
					<path class="st1" d="M4818.1,2506.9c-42.8-6.8-93,1.9-114.2,19.8c-9.5,8-14,25.6-10.6,40.9c2.6,12,9.6,20,19.6,22.8
						c2.2,0.6,4.9,1.3,7.9,2c14.9,3.8,39.9,10.2,51.1,18.9c10.2,8,17.3,19.4,19.9,32.2l11.4,55.1c1.5,7.4,6.1,14,12.4,18.1
						l19.3,12.5c0.9,0.6,1.7,1.1,2.4,1.5c0.8,0.4,1.6,0.7,2.5,0.7c1.2,0,2.4-0.4,3.3-1.2c1.1-0.9,26.6-23.5,46.4-56.5
						c26.6-44.5,29.4-86.2,8-120.8C4878.4,2522.3,4843.8,2511,4818.1,2506.9z M4880.9,2668.3c-15.3,25.5-34.7,45-41.8,51.8
						l-18.2-11.7c-4.1-2.7-7-6.9-8-11.7l-11.4-55.1c-3.1-15.1-11.5-28.6-23.5-38.1c-12.9-10.1-38.1-16.5-54.8-20.8
						c-3-0.8-5.6-1.4-7.7-2c-8-2.2-11.2-9.5-12.4-15.3c-2.5-11.4,0.8-25.6,7.3-31.1c12.9-10.9,43.4-19.8,77.2-19.8
						c9.5,0,19.2,0.7,29,2.2c42.8,6.8,63,26.2,72.3,41.3C4908.4,2589.7,4905.7,2626.8,4880.9,2668.3z"/>
				</g>
				<g>
					<path class="st3" d="M4804.9,2637.4c-5.1,0-10.6,2.3-15.2,5.9l7.2,40.5c11.6,0,21.6-6.8,24.7-22.9
						C4823.8,2649.5,4816.5,2637.4,4804.9,2637.4z"/>
					<path class="st1" d="M4804.9,2632.4c-6,0-12.6,2.5-18.3,6.9c-2.2,1.7-2.6,4.8-0.9,7c1.7,2.2,4.8,2.6,7,0.9
						c3.9-3.1,8.4-4.8,12.1-4.8c4.2,0,7,2.3,8.6,4.2c2.9,3.5,4.1,8.6,3.2,13.4c-2.4,12.3-9.2,18.8-19.8,18.8c-2.8,0-5,2.2-5,5
						s2.2,5,5,5c15.3,0,26.4-10.1,29.6-26.9c1.5-7.7-0.5-15.8-5.3-21.6C4817,2635.2,4811.2,2632.4,4804.9,2632.4z"/>
				</g>
			</g>
		</g>
	</g>
	<g>
		<g>
			<path class="st3" d="M4340.3,2904.7c-16.6-4.5-39.7,13-49.1,30.6c-3.2,6,2.1,13,8.8,11.8l15.7-2.9l76.8,0.3l-18.6-32.4
				L4340.3,2904.7z"/>
			<path class="st1" d="M4378.3,2909.8c-0.7-1.2-1.9-2.1-3.2-2.4l-33.6-7.5c-9-2.4-20.1,0.4-31.2,7.7c-9.7,6.4-18.5,15.9-23.5,25.4
				c-2.4,4.4-2,9.7,1,13.8c2.6,3.5,6.5,5.5,10.7,5.5c0.8,0,1.6-0.1,2.4-0.2l15.3-2.8l76.3,0.3c0,0,0,0,0,0c1.8,0,3.4-0.9,4.3-2.5
				c0.9-1.5,0.9-3.5,0-5L4378.3,2909.8z M4315.8,2939.2c-0.3,0-0.6,0-0.9,0.1l-15.7,2.9c-1.9,0.3-3-0.9-3.3-1.3
				c-0.3-0.5-1.1-1.7-0.3-3.2c7.6-14.2,25.6-28.7,39.1-28.7c1.5,0,2.9,0.2,4.3,0.5c0.1,0,0.1,0,0.2,0.1l31.6,7.1l13.1,22.9
				L4315.8,2939.2z"/>
		</g>
		<g>
			<path class="st3" d="M4374,2912.2l-8.6,14.8l-32.5-7.6c-4.7-1.1-9.5,1.8-10.6,6.6l0,0c-1.1,4.7,1.8,9.5,6.5,10.6l51.3,12
				c7.1,1.7,13.2-2,19.1-5.5c1.9-1.2,32.3,22,35.9,20.1c4.9-2.7-17.1-39.1-17.1-39.1L4374,2912.2z"/>
			<path class="st1" d="M4422.2,2921.5c-0.7-1.1-1.7-1.9-3-2.2l-43.9-11.9c-2.7-0.7-5.4,0.9-6.1,3.5c-0.7,2.7,0.9,5.4,3.5,6.1
				l42,11.4c5.6,9.4,11.3,20.1,14.1,26.9c-4.1-2.5-9.4-5.9-13.1-8.3c-13.3-8.7-15.7-10.3-19.2-8.1c-5.2,3.2-10.1,6.1-15.3,4.9
				l-51.3-12c-1-0.2-1.8-0.8-2.3-1.7c-0.5-0.9-0.7-1.9-0.5-2.9c0.5-2.1,2.5-3.3,4.6-2.9l32.5,7.6c2.7,0.6,5.4-1,6-3.7
				c0.6-2.7-1-5.4-3.7-6l-32.5-7.6c-7.4-1.7-14.9,2.9-16.6,10.3c-0.9,3.6-0.2,7.3,1.7,10.5c1.9,3.1,5,5.3,8.6,6.2l51.3,12
				c8.2,1.9,15-1.5,20.7-4.9c2.5,1.4,7,4.4,10.6,6.7c14.2,9.3,20.3,13,24.3,13c1.1,0,2-0.3,2.9-0.7c1.5-0.8,2.6-2.2,3.1-3.9
				c0.8-2.8,0.8-7.2-8.6-25C4427.2,2929.8,4422.4,2921.9,4422.2,2921.5z"/>
		</g>
		<g>
			<polygon class="st5" points="4380.4,2943 4450.4,2931 4388.5,2914.3 			"/>
			<path class="st1" d="M4451.7,2926.2l-61.9-16.7c-2.6-0.7-5.4,0.8-6.1,3.5l-8.1,28.7c-0.8,2.7,0.8,5.4,3.4,6.2
				c0.5,0.1,0.9,0.2,1.4,0.2c2.2,0,4.2-1.4,4.8-3.6l6.8-24l57.1,15.4c2.7,0.7,5.4-0.9,6.1-3.5
				C4455.9,2929.6,4454.4,2926.9,4451.7,2926.2z"/>
		</g>
		<g>
			<path class="st5" d="M4568.3,2962.8l-179.7-48.5l-15.3,53.9l183.8,80c18.5,8,40,3.3,53.5-11.7l125.8-140.2l-70.1-79.1
				L4568.3,2962.8z"/>
			<path class="st1" d="M4732.6,2893l-125.8,140.2c-12,13.4-31.2,17.6-47.8,10.4l-179.8-78.3l12.7-45l175,47.2
				c2.1,0.6,4.3-0.3,5.5-2l98-145.6c1.5-2.3,0.9-5.4-1.4-6.9c-2.3-1.5-5.4-0.9-6.9,1.4l-96,142.6l-176.3-47.6
				c-2.6-0.7-5.4,0.8-6.1,3.5l-15.3,53.9c-0.7,2.4,0.5,4.9,2.8,5.9l183.8,80c6.7,2.9,13.7,4.3,20.7,4.3c14.4,0,28.5-6,38.5-17.2
				l125.8-140.2c1.8-2.1,1.7-5.2-0.4-7.1S4734.4,2890.9,4732.6,2893z"/>
		</g>
		<g>
			<g>
				<path class="st0" d="M4578.7,3841.4c-9.1,6.3-5.4,23.1,5.1,23.1H4722c8.3,0,15-8.1,15-18.1v-45.7h-65.3L4578.7,3841.4z"/>
				<path class="st1" d="M4737,3795.6h-65.3c-0.7,0-1.4,0.1-2,0.4l-93,40.8c-0.3,0.1-0.6,0.3-0.8,0.5c-6.2,4.3-8.9,12.8-6.4,20.7
					c2.2,7.1,7.7,11.5,14.3,11.5H4722c11,0,20-10.4,20-23.1v-45.7C4742,3797.9,4739.8,3795.6,4737,3795.6z M4732,3846.3
					c0,7.2-4.5,13.1-10,13.1h-138.2c-3.1,0-4.4-3.4-4.8-4.4c-0.9-3-0.6-7.1,2.2-9.3l91.6-40.1h59.2V3846.3z"/>
			</g>
			<g>
				<polygon class="st5" points="4829.7,3800.6 4911.5,3800.6 4911.5,3227.5 4789.9,3227.5 				"/>
				<path class="st1" d="M4911.5,3222.5h-121.7c-1.4,0-2.7,0.6-3.7,1.6c-0.9,1-1.4,2.4-1.3,3.8l39.8,573.2c0.2,2.6,2.4,4.7,5,4.7
					h81.9c2.8,0,5-2.2,5-5v-573.2C4916.5,3224.7,4914.3,3222.5,4911.5,3222.5z M4906.5,3795.6h-72.2l-39.1-563.2h111.3V3795.6z"/>
			</g>
			<g>
				<g>
					<polygon class="st4" points="4657.8,3800.6 4737,3800.6 4776.8,3227.5 4655.2,3227.5 					"/>
					<path class="st1" d="M4776.8,3222.5h-121.7c-1.3,0-2.6,0.5-3.5,1.5s-1.5,2.2-1.5,3.6l2.7,573.2c0,2.8,2.2,5,5,5h79.2
						c2.6,0,4.8-2,5-4.7l39.8-573.2c0.1-1.4-0.4-2.7-1.3-3.8C4779.5,3223.1,4778.2,3222.5,4776.8,3222.5z M4732.4,3795.6h-69.5
						l-2.6-563.2h111.3L4732.4,3795.6z"/>
				</g>
			</g>
			<g>
				<polygon class="st4" points="4741.1,3297.7 4794.8,3297.7 4829.7,3800.6 4911.5,3800.6 4911.5,3227.5 4655.2,3227.5 				"/>
				<path class="st1" d="M4911.5,3222.5h-256.4c-2.8,0-5,2.2-5,5s2.2,5,5,5h251.4v563.2h-72.2l-34.6-498.2c-0.2-2.6-2.4-4.7-5-4.7
					h-53.7c-2.8,0-5,2.2-5,5s2.2,5,5,5h49l34.6,498.2c0.2,2.6,2.4,4.7,5,4.7h81.9c2.8,0,5-2.2,5-5v-573.2
					C4916.5,3224.7,4914.3,3222.5,4911.5,3222.5z"/>
			</g>
			<g>
				<path class="st0" d="M4758.6,3841.4c-8.8,6.3-5.2,23.1,4.9,23.1H4897c8,0,14.5-8.1,14.5-18.1v-45.7h-63.1L4758.6,3841.4z"/>
				<path class="st1" d="M4911.5,3795.6h-63.1c-0.7,0-1.4,0.2-2.1,0.4l-89.9,40.8c-0.3,0.1-0.6,0.3-0.8,0.5c-6.2,4.4-8.7,13-6.1,21
					c2.2,6.9,7.5,11.2,13.9,11.2H4897c10.8,0,19.5-10.4,19.5-23.1v-45.7C4916.5,3797.9,4914.3,3795.6,4911.5,3795.6z M4906.5,3846.3
					c0,7.1-4.3,13.1-9.5,13.1h-133.6c-2.8,0-4.1-3.2-4.4-4.2c-1-3.1-0.6-7.3,2.1-9.5l88.4-40.1h57V3846.3z"/>
			</g>
		</g>
		<g>
			<path class="st5" d="M4856.6,2785h-136.5c-40.1,0-66.5,32.5-66.5,72.7l1.5,369.8h119h155.2v-369.8
				C4929.3,2817.5,4896.8,2785,4856.6,2785z"/>
			<path class="st1" d="M4856.7,2780h-136.5c-20.5,0-39,8.2-52,23c-12.5,14.2-19.5,33.6-19.5,54.7l1.5,369.8c0,2.8,2.2,5,5,5h274.2
				c2.8,0,5-2.2,5-5v-369.8C4934.3,2814.8,4899.5,2780,4856.7,2780z M4924.3,3222.5h-264.2l-1.5-364.8c0-39.2,25.9-67.7,61.5-67.7
				h136.5c37.3,0,67.7,30.4,67.7,67.7V3222.5z"/>
		</g>
		<g>
			<path class="st3" d="M4518.9,3123.8l-26.8,6.8c-3.6,17.8,31.5,41.1,53,35.9l61.5-16l-10.8-25.1L4518.9,3123.8z"/>
			<path class="st1" d="M4600.2,3123.5c-0.8-1.8-2.5-3-4.5-3l-76.8-1.7c-0.4,0-0.9,0-1.3,0.2l-26.8,6.8c-1.9,0.5-3.3,2-3.7,3.9
				c-1.6,7.9,2.2,16.8,10.7,24.9c9.7,9.4,26.1,17.7,40.7,17.7c2.7,0,5.3-0.3,7.7-0.9l61.5-16c1.4-0.4,2.6-1.3,3.2-2.6
				s0.7-2.8,0.1-4.2L4600.2,3123.5z M4543.9,3161.7c-10.8,2.6-28-3.7-39.1-14.3c-4.6-4.5-7.4-9-7.9-12.8l22.5-5.7l72.9,1.6l7.3,16.8
				L4543.9,3161.7z"/>
		</g>
		<g>
			<g>
				<rect x="4437.3" y="2944" class="st4" width="139.5" height="193.1"/>
				<path class="st1" d="M4576.8,2939h-139.5c-2.8,0-5,2.2-5,5v193.1c0,2.8,2.2,5,5,5h139.5c2.8,0,5-2.2,5-5V2944
					C4581.8,2941.2,4579.5,2939,4576.8,2939z M4571.8,3132.1h-129.5V2949h129.5V3132.1z"/>
			</g>
			<g>
				<rect x="4297.7" y="2944" class="st0" width="139.5" height="193.1"/>
				<path class="st1" d="M4437.3,2939h-139.5c-2.8,0-5,2.2-5,5v193.1c0,2.8,2.2,5,5,5h139.5c2.8,0,5-2.2,5-5V2944
					C4442.3,2941.2,4440,2939,4437.3,2939z M4432.3,3132.1h-129.5V2949h129.5V3132.1z"/>
			</g>
		</g>
		<g>
			<path class="st3" d="M4641.7,3120.4c-3.5-2-37.6,7.9-39.5,6.7c-5.8-3.7-11.8-7.5-18.9-6l-51.6,10.7c-4.8,1-7.8,5.7-6.8,10.4l0,0
				c1,4.8,5.7,7.8,10.4,6.9l32.7-6.8l8.2,15.1l51,6.8l2.7-15.1l0.6-8.7C4630.6,3140.3,4646.5,3123.2,4641.7,3120.4z"/>
			<path class="st1" d="M4644.1,3116.1c-3.3-1.9-8.5-1-27.7,3.4c-4.5,1-10.4,2.4-12.8,2.7c-5.8-3.7-12.8-7.7-21.4-5.9l-51.6,10.7
				c-3.6,0.7-6.7,2.9-8.7,5.9c-2,3.1-2.7,6.8-2,10.4c1.6,7.5,8.9,12.3,16.3,10.7l32.7-6.8c2.7-0.6,4.4-3.2,3.9-5.9
				c-0.6-2.7-3.2-4.4-5.9-3.9l-32.7,6.8c-2.1,0.4-4.1-0.9-4.5-3c-0.2-1,0-2,0.5-2.9c0.6-0.8,1.4-1.4,2.4-1.6l51.6-10.7
				c5.2-1.1,10.1,2,15.2,5.3c2.4,1.6,4.5,1.2,19.3-2.2c5-1.1,12.3-2.8,17.1-3.6c-2,3.1-5.4,7.5-8.9,11.4c-0.8,0.8-1.2,1.9-1.3,3.1
				l-0.6,8.5l-1.8,10.1l-46.3-6.2c-2.7-0.4-5.3,1.6-5.6,4.3c-0.4,2.7,1.6,5.3,4.3,5.6l51,6.8c0.2,0,0.4,0,0.7,0
				c2.4,0,4.5-1.7,4.9-4.1l2.7-15.1c0-0.2,0.1-0.4,0.1-0.6l0.5-7c6.2-6.9,12.9-15.8,12-21.4
				C4647.2,3118.9,4646,3117.1,4644.1,3116.1z"/>
		</g>
		<g>
			<path class="st5" d="M4877.5,2785.7l-28.8-0.2l4.7,126.8l-67.8,161.4l-181.8,38.7l-3.4,64.9l197.5-24.4
				c18.7,1.8,38.3-6.8,48.7-25.8l95-190.5c9.8-19.6,15.2-41.1,15.4-62.9C4957.1,2835.1,4944.9,2783.9,4877.5,2785.7z"/>
			<path class="st1" d="M4877.4,2780.7l-28.7-0.2c0,0,0,0,0,0c-2.7,0-5,2.2-5,5c0,2.8,2.2,5,5,5l28.8,0.2c0.1,0,0.1,0,0.2,0
				c23-0.6,40.8,5.2,53.1,17.2c9.8,9.6,21.4,28.8,21.2,65.7c-0.1,20.6-5.3,41.6-14.8,60.7l-94.9,190.4c-8.8,16-25.5,24.9-43.8,23.1
				c-0.4,0-0.7,0-1.1,0l-191.6,23.7l2.9-55.1l178.1-37.9c1.6-0.3,2.9-1.4,3.6-3l67.8-161.4c1.1-2.5-0.1-5.5-2.7-6.5
				c-2.5-1.1-5.5,0.1-6.5,2.7l-66.8,159l-179.3,38.1c-2.2,0.5-3.8,2.4-4,4.6l-3.4,64.9c-0.1,1.5,0.5,2.9,1.6,3.9
				c0.9,0.9,2.2,1.3,3.4,1.3c0.2,0,0.4,0,0.6,0l197-24.3c22.1,1.9,42.4-9,53-28.4c0-0.1,0.1-0.1,0.1-0.2l95-190.5
				c10.2-20.5,15.7-43,15.9-65.1c0.2-32-8.1-57.2-24.2-72.9C4923.4,2786.8,4903.1,2780,4877.4,2780.7z"/>
		</g>
	</g>
</g>
<g>
	<rect x="2429.9" y="1271.7" class="st3" width="1305.5" height="1791.7"/>
	<path class="st1" d="M3735.4,1266H2429.9c-2.8,0-5,2.6-5,5.7v1791.7c0,3.2,2.2,5.7,5,5.7h1305.5c2.8,0,5-2.6,5-5.7V1271.7
		C3740.4,1268.5,3738.2,1266,3735.4,1266z M3730.4,3057.7H2434.9V1277.4h1295.5V3057.7z"/>
</g>
<g>
	<g>
		<path class="st1" d="M3735.4,3130.1H2429.9c-2.8,0-5,2.2-5,5s2.2,5,5,5h1305.5c2.8,0,5-2.2,5-5S3738.2,3130.1,3735.4,3130.1z"/>
		<path class="st1" d="M3735.4,3194.8H2429.9c-2.8,0-5,2.2-5,5s2.2,5,5,5h1305.5c2.8,0,5-2.2,5-5S3738.2,3194.8,3735.4,3194.8z"/>
	</g>
	<g>
		<path class="st1" d="M3735.4,3259.4H2429.9c-2.8,0-5,2.2-5,5s2.2,5,5,5h1305.5c2.8,0,5-2.2,5-5S3738.2,3259.4,3735.4,3259.4z"/>
	</g>
	<g>
		<path class="st1" d="M2899.3,3324h-469.3c-2.8,0-5,2.2-5,5s2.2,5,5,5h469.3c2.8,0,5-2.2,5-5S2902,3324,2899.3,3324z"/>
	</g>
</g>
<g>
	<g>
		<g>
			<path class="st4" d="M1936.7,3776.1l18.1-44.3h-104.3l-35.9,84.7c-1.5,8.7,4.3,15.8,13,15.8h123.6c15.6,0,23.1-18.8,13.8-28.9
				L1936.7,3776.1z"/>
			<path class="st1" d="M1969,3799.2l-25.5-24.5l16.7-40.7c0.7-1.8,0.5-3.8-0.5-5.4c-1.1-1.6-2.9-2.5-4.8-2.5h-104.3
				c-2.3,0-4.4,1.4-5.3,3.5l-35.9,84.7c-0.2,0.4-0.3,0.8-0.4,1.2c-1,5.9,0.4,11.7,4,15.9c3.6,4.2,8.8,6.6,14.7,6.6h123.6
				c9.5,0,17.7-5.4,21.6-14.2c3.7-8.4,2.3-18-3.5-24.4C1969.2,3799.3,1969.1,3799.2,1969,3799.2z M1962.3,3819.2
				c-2,4.6-6.2,7.3-11.1,7.3h-123.6c-2.4,0-4.5-0.9-5.9-2.5c-1.3-1.5-1.8-3.6-1.6-6l34.2-80.5h92l-14.9,36.4
				c-0.9,2.2-0.4,4.7,1.3,6.3l28.2,27.1C1964.2,3810.9,1963.8,3815.8,1962.3,3819.2z"/>
		</g>
		<g>
			<path class="st4" d="M2203.4,3803.3l-33.2-27.2l0.6-44.3h-115.6v84.7c0,8.7,7.1,15.8,15.8,15.8h123.6
				C2210.4,3832.2,2214.6,3813.4,2203.4,3803.3z"/>
			<path class="st1" d="M2207.3,3799.1c-0.1-0.1-0.1-0.1-0.2-0.2l-31-25.5l0.6-41.5c0-1.5-0.6-3-1.7-4.1c-1.1-1.1-2.6-1.7-4.1-1.7
				h-115.6c-3.2,0-5.7,2.6-5.7,5.7v84.7c0,11.9,9.7,21.5,21.5,21.5h123.6c8.9,0,16.1-4.8,19.2-12.7
				C2217.4,3816.3,2214.7,3805.8,2207.3,3799.1z M2203.2,3821.1c-0.8,2-2.9,5.4-8.5,5.4h-123.6c-5.5,0-10-4.5-10-10v-78.9h104
				l-0.5,38.5c0,1.7,0.7,3.4,2.1,4.5l33,27.1C2204.1,3811.8,2204.7,3817.4,2203.2,3821.1z"/>
		</g>
		<g>
			<path class="st3" d="M2537,2755.6l-74.7,105.6l36.9,29.5c0,0,58.6-27.2,89-57.7c21.2-21.2-11.8-94.8-24.9-111.4
				C2545.7,2699.5,2537,2755.6,2537,2755.6z"/>
			<path class="st1" d="M2552.3,2711.1c-13.2,3.5-19.1,31.6-20.8,42.2l-74,104.5c-1.8,2.5-1.3,5.9,1.1,7.8l36.9,29.5
				c1,0.8,2.3,1.3,3.6,1.3c0.8,0,1.6-0.2,2.4-0.5c2.4-1.1,59.9-28,90.7-58.8c24.8-24.8-10.9-101.9-24.5-119
				C2561.8,2710.6,2556.1,2710.2,2552.3,2711.1z M2584.1,2829c-25.4,25.4-71.7,48.9-84.2,55l-29.9-23.9l71.6-101.2
				c0.5-0.7,0.8-1.6,1-2.4c0-0.1,1.5-9.2,4.3-18.3c4-12.9,7.6-15.8,8.4-15.9c0.2,0,1.5,0.5,3.5,3c6.4,8.1,17.5,30.3,24.4,52.1
				C2591.1,2802.8,2591.5,2821.7,2584.1,2829z"/>
		</g>
		<g>
			<path class="st4" d="M2559.4,2640.7h-268.9l-39.9,195.1l268.4-4.8l17.3-28.6l31.1-151.8
				C2568.4,2645.5,2564.5,2640.7,2559.4,2640.7z"/>
			<path class="st1" d="M2559.4,2635h-268.9c-2.7,0-5.1,1.9-5.6,4.6l-39.9,195.1c-0.3,1.7,0.1,3.5,1.2,4.8c1.1,1.3,2.7,2.1,4.4,2.1
				c0,0,0.1,0,0.1,0l268.4-4.8c2,0,3.8-1.1,4.8-2.8l17.3-28.6c0.3-0.6,0.6-1.2,0.7-1.8l31.1-151.8c0.8-4.1-0.2-8.3-2.9-11.6
				C2567.5,2636.9,2563.6,2635,2559.4,2635z M2561.8,2649.4l-30.9,150.8l-15.2,25.1l-258.1,4.7l37.6-183.5h264.2
				c1,0,1.6,0.6,1.9,0.9C2561.5,2647.7,2562,2648.4,2561.8,2649.4z"/>
		</g>
		<g>
			<path class="st0" d="M2266.7,2652.3l-33.7,164.5c-2,9.8,5.5,19,15.5,19H2508l39.9-195.1h-267.1
				C2273.9,2640.7,2268,2645.6,2266.7,2652.3z"/>
			<path class="st1" d="M2547.9,2635h-267.1c-9.5,0-17.9,6.8-19.8,16.1l-33.7,164.5c-1.3,6.4,0.3,12.9,4.4,18
				c4.1,5,10.2,7.9,16.7,7.9H2508c2.7,0,5.1-1.9,5.6-4.6l39.9-195.1c0.3-1.7-0.1-3.4-1.2-4.8C2551.3,2635.8,2549.7,2635,2547.9,2635
				z M2503.3,2830.1h-254.8c-3,0-5.9-1.4-7.8-3.7c-1.9-2.4-2.7-5.4-2.1-8.4l33.7-164.5c0.8-4,4.4-7,8.5-7h260.1L2503.3,2830.1z"/>
		</g>
		<polygon class="st4" points="2262.3,2814.9 2489.4,2814.9 2521.2,2659.8 2294.1,2659.8 		"/>
		<g>
			<g>
				<path class="st3" d="M2001.8,2381.8l-30.3,76.5c0,0,0,144.5,0,156.5l104.3-4l-20.1-152.5L2001.8,2381.8z"/>
				<path class="st1" d="M2061.5,2457.6c-0.1-0.9-0.5-1.8-1-2.6l-54-76.5c-1.2-1.7-3.3-2.6-5.4-2.4c-2.1,0.2-3.9,1.6-4.7,3.6
					l-30.3,76.5c-0.3,0.7-0.4,1.4-0.4,2.1v156.5c0,1.6,0.6,3.1,1.8,4.1c1.1,1,2.5,1.6,4,1.6c0.1,0,0.1,0,0.2,0l104.3-4
					c1.6-0.1,3.1-0.8,4.2-2c1-1.2,1.5-2.8,1.3-4.4L2061.5,2457.6z M1977.3,2608.8v-149.4l26-65.6l47,66.6l19.1,144.8L1977.3,2608.8z
					"/>
			</g>
			<g>
				<path class="st3" d="M2133.5,2409.1l-4.3-42.9c-3-29.8-29-51.9-58.8-50.1l-87,5.3l63.4,188l46.9,7.8c26,4.3,49-17.2,46.4-43.4
					l-3.4-34.4h7.9c4,0,6.5-4.5,4.2-7.9L2133.5,2409.1z"/>
				<path class="st1" d="M2139.1,2407.1l-4.1-41.4c-3.3-33-31.8-57.3-64.9-55.2l-87,5.3c-3.2,0.2-5.6,2.9-5.4,6.1
					c0.2,3.2,2.9,5.6,6.1,5.4l87-5.3c26.9-1.7,50.1,18.1,52.8,44.9l4.3,42.9c0.1,0.9,0.4,1.9,1,2.6l14.4,21.3h-6.6
					c-1.6,0-3.2,0.7-4.3,1.9c-1.1,1.2-1.6,2.8-1.5,4.4l3.4,34.4c1.1,10.7-2.8,21-10.7,28.4c-7.8,7.3-18.4,10.5-29,8.8l-46.9-7.8
					c-3.1-0.5-6.1,1.6-6.6,4.7c-0.5,3.1,1.6,6.1,4.7,6.6l46.9,7.8c2.6,0.4,5.1,0.6,7.6,0.6c11.5,0,22.5-4.3,31.1-12.4
					c10.5-9.8,15.7-23.6,14.2-37.9l-2.8-28.1h1.6c4,0,7.7-2.2,9.5-5.7c1.9-3.5,1.7-7.8-0.6-11.1L2139.1,2407.1z"/>
			</g>
			<g>
				<path class="st4" d="M2107.1,2268.5c-57.6,4.9-138.8-42-185,34.1c-56.3,92.9,49.4,193.4,49.4,193.4c0.7-0.4,56.2,2.3,75.6-15.4
					c18-16.5,15.7-48,18.4-59.5c5.9-24.7,21.2-62.7,36-77c24.7-23.9,50.2-29.1,48-52.1C2147.7,2272.7,2131.3,2266.4,2107.1,2268.5z"
					/>
				<path class="st1" d="M2106.6,2262.8l0.5,5.7L2106.6,2262.8c-16,1.4-34.2-1.5-53.4-4.5c-47.5-7.5-101.3-15.9-136,41.4
					c-24.1,39.8-22.9,87.3,3.4,137.2c19.6,37.1,45.8,62.3,47,63.4c1.1,1,2.5,1.6,4,1.6c0.2,0,0.5,0,0.7,0c0.2,0,0.5,0,0.9,0
					c0.5,0,1.1,0,1.7,0c38.3,0,64-5.7,76.2-16.9c15.3-14,17.4-36.7,18.8-51.8c0.4-4.4,0.8-8.2,1.3-10.6
					c6.2-25.8,21.5-61.7,34.4-74.2c8.1-7.8,16.4-13.7,23.7-18.8c14.9-10.5,27.7-19.5,26-38
					C2153.8,2276.6,2144.2,2259.6,2106.6,2262.8z M1974.4,2501.1C1974.4,2501.1,1974.4,2501.1,1974.4,2501.1
					S1974.4,2501.1,1974.4,2501.1z M1974.4,2501.1C1974.4,2501.1,1974.4,2501.1,1974.4,2501.1
					C1974.4,2501.1,1974.4,2501.1,1974.4,2501.1z M1974.4,2501.1C1974.4,2501.1,1974.4,2501.1,1974.4,2501.1
					C1974.4,2501.1,1974.4,2501.1,1974.4,2501.1z M2122.7,2320.1c-7.7,5.4-16.3,11.5-25.1,20c-16.5,16-31.9,56.3-37.6,79.8
					c-0.8,3.2-1.2,7.4-1.6,12.2c-1.3,14.1-3.1,33.4-15.1,44.4c-6.9,6.3-24.4,13.8-68.4,13.8c-0.3,0-0.6,0-0.9,0
					c-6-6.1-27.1-28.5-43.1-58.8c-24.7-46.9-26-89.2-3.8-125.9c30.7-50.7,78.4-43.2,124.4-36c19.9,3.1,38.7,6.1,56.1,4.6h0
					c14.7-1.3,34.4-0.7,36.2,18.3C2144.9,2303.9,2137.7,2309.5,2122.7,2320.1z"/>
			</g>
			<g>
				<path class="st3" d="M2053.5,2421.8c3.5,18.4,15.1,26.3,28.4,26.3l8.2-46.5c-5.3-4.1-11.6-6.7-17.5-6.7
					C2059.3,2394.8,2051,2408.7,2053.5,2421.8z"/>
				<path class="st1" d="M2093.6,2397c-6.5-5.1-14.1-7.9-21-7.9c-7.3,0-13.9,3.2-18.7,9c-5.5,6.7-7.8,16-6.1,24.8
					c3.7,19.4,16.4,30.9,34,30.9c3.2,0,5.7-2.6,5.7-5.7c0-3.2-2.6-5.7-5.7-5.7c-12.2,0-20-7.5-22.7-21.6c-1-5.4,0.4-11.3,3.7-15.3
					c1.8-2.2,5-4.8,9.8-4.8c4.3,0,9.4,2,13.9,5.5c2.5,1.9,6.1,1.5,8.1-1C2096.6,2402.6,2096.1,2399,2093.6,2397z"/>
			</g>
		</g>
		<g>
			<g>
				<polygon class="st2" points="1887,3372.7 1827.9,3759.3 1965.2,3759.3 2010.1,3375.4 2017.6,3162.4 2034.7,3153.9 
					2088.7,3029.5 1887,3029.5 				"/>
				<path class="st1" d="M2088.7,3023.8H1887c-3.2,0-5.7,2.6-5.7,5.7v342.8l-59,386.2c-0.3,1.7,0.2,3.3,1.3,4.6c1.1,1.3,2.7,2,4.4,2
					h137.3c2.9,0,5.4-2.2,5.7-5.1l44.9-383.9c0-0.2,0-0.3,0-0.5l7.3-209.6l14-7c2.8-1.4,4-4.9,2.6-7.7c-1.4-2.8-4.9-4-7.7-2.6
					l-17.1,8.5c-1.9,0.9-3.1,2.8-3.2,4.9l-7.5,212.8l-44.3,378.6h-125.5l58.1-380c0-0.3,0.1-0.6,0.1-0.9v-337.4h195.9
					c3.2,0,5.7-2.6,5.7-5.7C2094.4,3026.4,2091.8,3023.8,2088.7,3023.8z"/>
			</g>
			<g>
				<path class="st2" d="M1985.2,3142c24.1,34.3,70.1,41.1,70.1,41.1l-11.3,576.2h138.1l10.3-729.8h-137.1L1985.2,3142z"/>
				<path class="st1" d="M2192.4,3023.8h-137.1c-3.2,0-5.7,2.6-5.7,5.7c0,3.2,2.6,5.7,5.7,5.7h131.3l-10.1,718.3h-126.6l11.2-570.3
					c0.1-2.9-2-5.4-4.9-5.8c-0.4-0.1-43.8-6.9-66.3-38.8c-1.8-2.6-5.4-3.2-8-1.4c-2.6,1.8-3.2,5.4-1.4,8
					c20.7,29.4,55.9,39.7,69,42.6l-11.2,571.4c0,1.5,0.6,3,1.6,4.1c1.1,1.1,2.6,1.7,4.1,1.7h138.1c3.1,0,5.7-2.5,5.7-5.7l10.3-729.8
					c0-1.5-0.6-3-1.7-4.1C2195.4,3024.4,2194,3023.8,2192.4,3023.8z"/>
			</g>
		</g>
		<g>
			<path class="st3" d="M2153.7,2578.9h-267.5c-28.7,0-50.8,25.4-46.8,53.8l8.9,359.9c2.9,21.2,21,36.9,42.4,36.9h301.8l31.5-399.6
				C2226.1,2602.4,2181.2,2578.9,2153.7,2578.9z"/>
			<path class="st1" d="M2153.7,2573.2h-267.5c-15.3,0-29.9,6.6-40,18.2c-10,11.5-14.6,26.7-12.6,41.8l8.9,359.6
				c0,0.2,0,0.4,0.1,0.7c3.3,23.9,24,41.8,48.1,41.8h301.8c3,0,5.5-2.3,5.7-5.3l31.5-399.6c0.8-9.7-3.3-19.7-11.6-28.7
				C2203.3,2585.7,2175,2573.2,2153.7,2573.2z M2218.2,2629.5l-31.1,394.3h-296.5c-18.3,0-34-13.6-36.7-31.6l-8.9-359.6
				c0-0.2,0-0.4-0.1-0.7c-1.7-11.9,1.9-23.9,9.8-33c7.9-9.1,19.3-14.3,31.3-14.3h267.5c18.2,0,43.3,11.1,55.9,24.7
				C2215.8,2616.2,2218.7,2622.9,2218.2,2629.5z"/>
		</g>
		<circle class="st5" cx="2373.3" cy="2731" r="21.8"/>
		<path class="st5" d="M2472.9,2695.9l-101.4,28.9c-3.4,1-5.4,4.5-4.4,7.9c0.8,2.8,3.4,4.6,6.2,4.6c0.6,0,1.2-0.1,1.8-0.2
			l101.4-28.9c3.4-1,5.4-4.5,4.4-7.9C2479.9,2696.9,2476.3,2695,2472.9,2695.9z"/>
		<g>
			<path class="st3" d="M2317.6,2674.8c-4-2.1-11-7.1-22.3-5l-83.5,6.5l8.8,31.8c0,0,83.2,52,92.7,38.3c9.9-14.3-28.2-30-15-44.7
				c11.8-13.1,63.7,38.1,75,26.3C2386.6,2714,2335.1,2684,2317.6,2674.8z"/>
			<path class="st1" d="M2354.5,2690.6c-14.2-10.1-29.8-18.5-34.2-20.9c-0.4-0.2-0.8-0.5-1.3-0.7c-4.4-2.5-12.5-7-24.4-4.9
				l-83.2,6.4c-1.7,0.1-3.3,1-4.3,2.4c-1,1.4-1.3,3.2-0.8,4.8l8.8,31.8c0.4,1.4,1.3,2.6,2.5,3.3c0.2,0.1,21.3,13.3,43.2,24.5
				c17.7,9.1,34.9,16.9,46.3,16.9c4.8,0,8.6-1.4,10.9-4.7c7.3-10.6-1.7-20.9-8.4-28.4c-8.4-9.6-9.8-12.7-7.1-15.8
				c0.3-0.3,2.6-0.9,9,1.9c6.5,2.7,14.6,7.7,22.4,12.5c18.6,11.4,34.7,21.2,43.4,12.1c3.1-3.2,4.3-7.2,3.6-11.6
				C2379.6,2712,2371,2702.3,2354.5,2690.6z M2369.1,2723.9c-0.3,0.1-2.6,0.5-9.6-2.8c-5.8-2.7-12.8-7-19.6-11.1
				c-18.9-11.5-36.7-22.5-45.9-12.2c-10.2,11.4,0.1,23.2,7,31c6.5,7.4,9.3,11.3,7.8,14c-1.4,0.4-10.2,1.5-45.7-17.1
				c-16.6-8.7-32.2-18.1-37.5-21.3l-6.3-22.9l76.5-5.9c0.2,0,0.4,0,0.6-0.1c8-1.5,13.2,1.5,17.1,3.6c0.6,0.3,1.1,0.6,1.6,0.9
				c34,17.9,53.6,35.1,54.7,42.2C2369.8,2722.9,2369.7,2723.3,2369.1,2723.9z"/>
		</g>
		<g>
			<path class="st3" d="M2519.7,2746.6c-15.2,4.2-6.2,56-10.4,65.7c-4.2,9.7-27,21.4-27,21.4l19.4,48.4l13.1,2.8l31.8-83
				C2546.7,2801.9,2534.9,2742.4,2519.7,2746.6z"/>
			<path class="st1" d="M2527.8,2742.6c-3.1-1.9-6.4-2.4-9.6-1.6c-14.2,3.9-13.8,28.3-13.5,49.8c0.1,7.2,0.3,17-0.7,19.2
				c-2.3,5.4-15.6,14.1-24.3,18.6c-2.6,1.4-3.8,4.5-2.7,7.2l19.4,48.4c0.7,1.8,2.3,3.1,4.1,3.5l13.1,2.8c0.4,0.1,0.8,0.1,1.2,0.1
				c2.7,0,5-1.9,5.6-4.6c0.7-3.1-1.3-6.1-4.4-6.8l-10.1-2.1l-16.3-40.8c7.7-4.4,21.3-13.1,25-21.8c1.8-4.3,1.8-11.5,1.6-23.9
				c-0.2-9-0.3-19.1,0.7-27.1c1.4-10.3,4-11.3,4.3-11.4c0.1,0,5.4,1.4,12.8,24.2c4.3,13.3,7,26.6,7,26.8c0.6,3.1,3.6,5.1,6.7,4.5
				c3.1-0.6,5.1-3.6,4.5-6.7C2550.7,2792.6,2541.9,2751.3,2527.8,2742.6z"/>
		</g>
		<g>
			<path class="st3" d="M2451.2,2796.6l-128.5,45.8l-89.7-221.3c-14.4-35.4-45.1-42.3-86.6-42.3l-19.9,156.8l81.9,193.2
				c15.6,38.5,52.6,62,92,62c10.9,0,21.9-1.8,32.7-5.6l163.6-58.1c36.1-12.6,28.7-41.7,16.1-77.8
				C2500.3,2813.4,2487.3,2784.1,2451.2,2796.6z"/>
			<path class="st1" d="M2495.1,2801c-11.9-13.1-26.9-16.3-45.8-9.7l-123.3,44l-87.6-216.2c-15.4-38.1-47.9-45.9-91.9-45.9
				c-3.2,0-5.7,2.6-5.7,5.7c0,3.2,2.6,5.7,5.7,5.7c40.5,0,68.2,6.5,81.3,38.7l89.7,221.3c1.2,2.9,4.4,4.3,7.2,3.2l128.5-45.8
				c14.4-5,24.8-3,33.5,6.6c8.9,9.8,15.2,26.5,20.8,42.7c5.6,16,10.9,32.7,9.9,45.4c-1,12.3-7.9,20.1-22.5,25.1l-163.6,58.1
				c-10,3.5-20.4,5.2-30.8,5.2c-38.2,0-72.3-22.9-86.7-58.5l-81.9-193.2c-1.2-2.9-4.6-4.3-7.5-3c-2.9,1.2-4.3,4.6-3,7.5l81.9,193.1
				c16.2,39.9,54.3,65.6,97.3,65.6c11.8,0,23.4-2,34.6-5.9l163.6-58.1c18.9-6.6,28.8-18,30.1-35c1.2-14.9-4.5-32.9-10.5-50.1
				C2512.2,2830.3,2505.4,2812.4,2495.1,2801z"/>
		</g>
		<path class="st5" d="M2499.7,2876.1l-170.6,56.5c-7.5,2.6-15.2,3.9-23,3.9c-28.5,0-53.9-17.1-64.7-43.7l-62.9-148.3
			c-1.4-3.3-5.1-4.8-8.4-3.4c-3.3,1.4-4.8,5.1-3.4,8.4l62.9,148.2c12.7,31.4,42.7,51.6,76.5,51.6c9.2,0,18.4-1.6,27.1-4.6
			l170.5-56.5c3.4-1.1,5.2-4.7,4.1-8.1C2506.6,2876.8,2503,2875,2499.7,2876.1z"/>
		<path class="st5" d="M2474.7,2691c-6.1,0-11.1,5-11.1,11.1c0,6.1,5,11.1,11.1,11.1c6.1,0,11.1-5,11.1-11.1
			C2485.8,2696,2480.8,2691,2474.7,2691z"/>
	</g>
</g>
</svg>
